<svg width="21" height="21" viewBox="0 0 21 21" fill="none" xmlns="http://www.w3.org/2000/svg">
<path d="M15.6256 0.90625C15.6256 0.69905 15.5433 0.500335 15.3968 0.353822C15.2503 0.207309 15.0516 0.125 14.8444 0.125H5.46937C5.26217 0.125 5.06345 0.207309 4.91694 0.353822C4.77043 0.500335 4.68812 0.69905 4.68812 0.90625C4.68812 1.11345 4.77043 1.31217 4.91694 1.45868C5.06345 1.60519 5.26217 1.6875 5.46937 1.6875H14.8444C15.0516 1.6875 15.2503 1.60519 15.3968 1.45868C15.5433 1.31217 15.6256 1.11345 15.6256 0.90625ZM20.0846 10.834L10.7096 20.209C10.637 20.2816 10.5509 20.3392 10.456 20.3786C10.3612 20.4179 10.2595 20.4381 10.1569 20.4381C10.0542 20.4381 9.95254 20.4179 9.85769 20.3786C9.76285 20.3392 9.67669 20.2816 9.60413 20.209L0.229131 10.834C0.119747 10.7247 0.0452411 10.5855 0.0150455 10.4338C-0.0151501 10.2822 0.000322264 10.125 0.0595039 9.98219C0.118685 9.83936 0.218915 9.7173 0.347504 9.63147C0.476093 9.54563 0.627259 9.49988 0.781865 9.5H4.68812V7.15625C4.68812 6.94905 4.77043 6.75034 4.91694 6.60382C5.06345 6.45731 5.26217 6.375 5.46937 6.375H14.8444C15.0516 6.375 15.2503 6.45731 15.3968 6.60382C15.5433 6.75034 15.6256 6.94905 15.6256 7.15625V9.5H19.5319C19.6865 9.49988 19.8376 9.54563 19.9662 9.63147C20.0948 9.7173 20.195 9.83936 20.2542 9.98219C20.3134 10.125 20.3289 10.2822 20.2987 10.4338C20.2685 10.5855 20.194 10.7247 20.0846 10.834ZM14.8444 4.8125H5.46937C5.26217 4.8125 5.06345 4.73019 4.91694 4.58368C4.77043 4.43716 4.68812 4.23845 4.68812 4.03125C4.68812 3.82405 4.77043 3.62533 4.91694 3.47882C5.06345 3.33231 5.26217 3.25 5.46937 3.25H14.8444C15.0516 3.25 15.2503 3.33231 15.3968 3.47882C15.5433 3.62533 15.6256 3.82405 15.6256 4.03125C15.6256 4.23845 15.5433 4.43716 15.3968 4.58368C15.2503 4.73019 15.0516 4.8125 14.8444 4.8125Z" fill="#E5383B"/>
</svg>
