<svg width="21" height="21" viewBox="0 0 21 21" fill="none" xmlns="http://www.w3.org/2000/svg">
<path d="M15.6256 20.0934C15.6256 20.3006 15.5433 20.4993 15.3968 20.6458C15.2503 20.7923 15.0516 20.8746 14.8444 20.8746H5.46937C5.26217 20.8746 5.06345 20.7923 4.91694 20.6458C4.77043 20.4993 4.68812 20.3006 4.68812 20.0934C4.68812 19.8862 4.77043 19.6875 4.91694 19.541C5.06345 19.3944 5.26217 19.3121 5.46937 19.3121H14.8444C15.0516 19.3121 15.2503 19.3944 15.3968 19.541C15.5433 19.6875 15.6256 19.8862 15.6256 20.0934ZM20.0846 10.1657L10.7096 0.790654C10.637 0.718016 10.5509 0.660392 10.456 0.621076C10.3612 0.58176 10.2595 0.561523 10.1569 0.561523C10.0542 0.561523 9.95254 0.58176 9.85769 0.621076C9.76285 0.660392 9.67669 0.718016 9.60413 0.790654L0.229131 10.1657C0.119747 10.2749 0.0452411 10.4142 0.0150455 10.5658C-0.0151501 10.7174 0.000322264 10.8746 0.0595039 11.0174C0.118685 11.1603 0.218915 11.2823 0.347504 11.3682C0.476093 11.454 0.627259 11.4998 0.781865 11.4996H4.68812V13.8434C4.68812 14.0506 4.77043 14.2493 4.91694 14.3958C5.06345 14.5423 5.26217 14.6246 5.46937 14.6246H14.8444C15.0516 14.6246 15.2503 14.5423 15.3968 14.3958C15.5433 14.2493 15.6256 14.0506 15.6256 13.8434V11.4996H19.5319C19.6865 11.4998 19.8376 11.454 19.9662 11.3682C20.0948 11.2823 20.195 11.1603 20.2542 11.0174C20.3134 10.8746 20.3289 10.7174 20.2987 10.5658C20.2685 10.4142 20.194 10.2749 20.0846 10.1657ZM14.8444 16.1871H5.46937C5.26217 16.1871 5.06345 16.2694 4.91694 16.416C4.77043 16.5625 4.68812 16.7612 4.68812 16.9684C4.68812 17.1756 4.77043 17.3743 4.91694 17.5208C5.06345 17.6673 5.26217 17.7496 5.46937 17.7496H14.8444C15.0516 17.7496 15.2503 17.6673 15.3968 17.5208C15.5433 17.3743 15.6256 17.1756 15.6256 16.9684C15.6256 16.7612 15.5433 16.5625 15.3968 16.416C15.2503 16.2694 15.0516 16.1871 14.8444 16.1871Z" fill="#51D65E"/>
</svg>
