<svg width="45" height="45" viewBox="0 0 45 45" fill="none" xmlns="http://www.w3.org/2000/svg">
<g clip-path="url(#clip0_849_1763)">
<path d="M7.03125 0C6.56437 0 6.10313 0.045 5.66156 0.135L6.20719 2.89125C6.47866 2.83823 6.75465 2.81185 7.03125 2.8125H8.31938V0H7.03125ZM13.4775 0H10.8984V2.8125H13.4775V0ZM18.6328 0H16.0538V2.8125H18.6328V0ZM23.7881 0H21.2119V2.8125H23.7881V0ZM28.9462 0H26.3672V2.8125H28.9462V0ZM34.1016 0H31.5225V2.8125H34.1016V0ZM37.9688 0H36.6806V2.8125H37.9688C38.25 2.8125 38.5284 2.84063 38.7928 2.89406L39.3384 0.135C38.8874 0.0454945 38.4286 0.000279705 37.9688 0ZM43.8159 3.12188C43.3019 2.35534 42.6426 1.69699 41.8753 1.18406L40.3116 3.52125C40.7728 3.83062 41.1694 4.22719 41.4788 4.68844L43.8131 3.12469L43.8159 3.12188ZM3.12188 1.18406C2.35534 1.6981 1.69699 2.3574 1.18406 3.12469L3.52125 4.68844C3.83062 4.22719 4.22719 3.83062 4.68844 3.52125L3.12188 1.18406ZM45 7.03125C45 6.56437 44.955 6.10313 44.865 5.66156L42.1087 6.20719C42.1594 6.47156 42.1875 6.74719 42.1875 7.03125V8.31938H45V7.03125ZM0.135 5.66156C0.0454945 6.11264 0.000279705 6.57138 0 7.03125L0 8.31938H2.8125V7.03125C2.8125 6.75 2.84063 6.47156 2.89406 6.20719L0.135 5.66156ZM0 10.8984V13.4775H2.8125V10.8984H0ZM45 13.4775V10.8984H42.1875V13.4775H45ZM0 16.0538V18.6328H2.8125V16.0538H0ZM45 18.6328V16.0538H42.1875V18.6328H45ZM0 21.2119V23.7881H2.8125V21.2119H0ZM42.1875 23.7881H45V21.2119H42.1875V23.7881ZM0 26.3672V28.9462H2.8125V26.3672H0ZM45 28.9462V26.3672H42.1875V28.9462H45ZM0 31.5225V34.1016H2.8125V31.5225H0ZM45 34.1016V31.5225H42.1875V34.1016H45ZM0 36.6806V37.9688C0 38.4356 0.045 38.8969 0.135 39.3384L2.89125 38.7928C2.83823 38.5213 2.81185 38.2453 2.8125 37.9688V36.6806H0ZM45 37.9688V36.6806H42.1875V37.9688C42.1875 38.25 42.1594 38.5284 42.1059 38.7928L44.865 39.3384C44.955 38.8941 45 38.4384 45 37.9688ZM1.18406 41.8781C1.69875 42.6431 2.35687 43.3013 3.12469 43.8159L4.68844 41.4788C4.22678 41.1698 3.83023 40.7732 3.52125 40.3116L1.18687 41.8753L1.18406 41.8781ZM41.8781 43.8159C42.6431 43.3013 43.3013 42.6431 43.8159 41.8753L41.4788 40.3116C41.1694 40.7728 40.7728 41.1694 40.3116 41.4788L41.8753 43.8131L41.8781 43.8159ZM5.66156 44.865C6.10594 44.955 6.56156 45 7.03125 45H8.31938V42.1875H7.03125C6.75 42.1875 6.47156 42.1594 6.20719 42.1059L5.66156 44.865ZM37.9688 45C38.4356 45 38.8969 44.955 39.3384 44.865L38.7928 42.1087C38.5213 42.1618 38.2453 42.1881 37.9688 42.1875H36.6806V45H37.9688ZM10.8984 45H13.4775V42.1875H10.8984V45ZM16.0538 45H18.6328V42.1875H16.0538V45ZM21.2119 42.1875V45H23.7881V42.1875H21.2119ZM26.3672 45H28.9462V42.1875H26.3672V45ZM31.5225 45H34.1016V42.1875H31.5225V45ZM23.9062 12.6562C23.9062 12.2833 23.7581 11.9256 23.4944 11.6619C23.2306 11.3982 22.873 11.25 22.5 11.25C22.127 11.25 21.7694 11.3982 21.5056 11.6619C21.2419 11.9256 21.0938 12.2833 21.0938 12.6562V21.0938H12.6562C12.2833 21.0938 11.9256 21.2419 11.6619 21.5056C11.3982 21.7694 11.25 22.127 11.25 22.5C11.25 22.873 11.3982 23.2306 11.6619 23.4944C11.9256 23.7581 12.2833 23.9062 12.6562 23.9062H21.0938V32.3438C21.0938 32.7167 21.2419 33.0744 21.5056 33.3381C21.7694 33.6018 22.127 33.75 22.5 33.75C22.873 33.75 23.2306 33.6018 23.4944 33.3381C23.7581 33.0744 23.9062 32.7167 23.9062 32.3438V23.9062H32.3438C32.7167 23.9062 33.0744 23.7581 33.3381 23.4944C33.6018 23.2306 33.75 22.873 33.75 22.5C33.75 22.127 33.6018 21.7694 33.3381 21.5056C33.0744 21.2419 32.7167 21.0938 32.3438 21.0938H23.9062V12.6562Z" fill="black"/>
</g>
<defs>
<clipPath id="clip0_849_1763">
<rect width="45" height="45" fill="white"/>
</clipPath>
</defs>
</svg>
