<svg width="35" height="33" viewBox="0 0 35 33" fill="none" xmlns="http://www.w3.org/2000/svg">
<path d="M30.8466 32.4033H3.19103C1.43596 32.4033 0 31.0639 0 29.427V3.63253C0 1.99558 1.43596 0.65625 3.19103 0.65625H30.8466C32.6016 0.65625 34.0376 1.99558 34.0376 3.63253V29.427C34.0376 31.0639 32.6016 32.4033 30.8466 32.4033Z" fill="#FCC21B"/>
<path d="M33.1011 1.5293L0.935547 31.5302C1.51525 32.0684 2.31301 32.4033 3.19054 32.4033H30.8461C32.6012 32.4033 34.0371 31.0639 34.0371 29.427V3.63254C34.0371 2.81406 33.6781 2.06999 33.1011 1.5293Z" fill="#F79329"/>
<path d="M29.783 25.7064C29.783 27.3508 28.3551 28.6827 26.592 28.6827H7.41661C5.66155 28.6827 4.22559 27.3434 4.22559 25.7064V7.82394C4.22559 6.18698 5.66155 4.84766 7.41661 4.84766H26.592C28.3551 4.84766 29.783 6.17954 29.783 7.82394V25.7064Z" fill="#FCC21B"/>
</svg>
