<svg width="20" height="21" viewBox="0 0 20 21" fill="none" xmlns="http://www.w3.org/2000/svg">
<path d="M1.81681 19.5388C1.73789 19.4784 1.71672 19.3416 1.8197 19.2386L18.7398 2.31967C18.8429 2.21667 18.9797 2.23792 19.0401 2.31689C19.4855 2.89943 19.75 3.62718 19.75 4.41742V16.7887C19.75 18.7004 18.2004 20.2501 16.2888 20.2501H3.91895C3.12797 20.2501 2.3996 19.9851 1.81681 19.5388Z" fill="#757575" stroke="black" stroke-width="0.5"/>
<path d="M18.1832 1.46117C18.2621 1.52161 18.2833 1.65843 18.1803 1.7614L1.26015 18.6803C1.15714 18.7833 1.02032 18.7621 0.959927 18.6831C0.514502 18.1006 0.25 17.3728 0.25 16.5826V4.21128C0.25 2.29959 1.79965 0.749887 3.71121 0.749887H16.081C16.872 0.749887 17.6004 1.01493 18.1832 1.46117Z" fill="#757575" stroke="black" stroke-width="0.5"/>
<rect x="3.8125" y="4.3125" width="12.375" height="12.375" rx="3.6875" fill="#FF9A9A" stroke="black" stroke-width="0.125"/>
</svg>
