<svg version="1.1" id="Layer_1" xmlns="http://www.w3.org/2000/svg" xmlns:xlink="http://www.w3.org/1999/xlink" x="0px" y="0px"
	 width="100%" viewBox="0 0 250 250" enable-background="new 0 0 250 250" xml:space="preserve">
<path fill="#000000" opacity="1.000000" stroke="none" 
	d="
M142.000000,251.000000 
	C94.666672,251.000000 47.833340,251.000000 1.000006,251.000000 
	C1.000004,167.666672 1.000004,84.333351 1.000002,1.000018 
	C84.333321,1.000012 167.666641,1.000012 250.999969,1.000006 
	C250.999969,84.333321 250.999969,167.666641 250.999985,250.999969 
	C214.833328,251.000000 178.666672,251.000000 142.000000,251.000000 
M85.701340,48.106155 
	C73.697212,54.816017 63.008160,63.019718 54.845127,74.309776 
	C42.210510,91.784348 36.604038,111.074921 37.863049,132.708328 
	C39.129314,154.466461 47.260529,173.136993 62.222778,188.507797 
	C79.701233,206.463547 101.220917,215.317032 126.620293,215.111115 
	C154.063187,214.888596 176.389664,203.944000 193.759369,183.443527 
	C221.585968,150.601364 220.645676,101.298775 192.388672,68.946472 
	C166.194260,38.955700 122.355736,30.220009 85.701340,48.106155 
z"/>
<path fill="#2A3548" opacity="1.000000" stroke="none" 
	d="
M86.048325,47.965675 
	C122.355736,30.220009 166.194260,38.955700 192.388672,68.946472 
	C220.645676,101.298775 221.585968,150.601364 193.759369,183.443527 
	C176.389664,203.944000 154.063187,214.888596 126.620293,215.111115 
	C101.220917,215.317032 79.701233,206.463547 62.222778,188.507797 
	C47.260529,173.136993 39.129314,154.466461 37.863049,132.708328 
	C36.604038,111.074921 42.210510,91.784348 54.845127,74.309776 
	C63.008160,63.019718 73.697212,54.816017 86.048325,47.965675 
M106.939056,139.761719 
	C102.618553,145.554474 98.298042,151.347229 93.977539,157.139984 
	C93.347313,156.817093 92.717087,156.494202 92.086861,156.171310 
	C92.910423,152.622070 93.733994,149.072815 94.299889,146.634003 
	C86.784256,153.566330 78.867729,160.868408 70.771164,168.336578 
	C69.301323,166.358017 68.578529,165.385040 68.216576,164.897812 
	C65.338387,166.055222 62.924881,167.025742 60.511375,167.996277 
	C60.248730,167.506836 59.986080,167.017395 59.723434,166.527954 
	C60.476437,165.516907 61.356316,164.573883 61.945572,163.475006 
	C62.498726,162.443466 62.744698,161.247208 63.125828,160.123413 
	C61.788891,160.273712 60.225491,160.036896 59.163910,160.657913 
	C57.180534,161.818192 55.524803,163.525009 53.666260,164.915558 
	C51.178684,166.776749 51.116997,168.702988 52.781914,171.295883 
	C61.882351,185.468658 73.709480,196.552155 88.897995,204.002869 
	C91.734703,205.394409 93.238907,205.133911 95.479065,202.441315 
	C109.381081,185.731506 123.586952,169.273697 137.766190,152.796112 
	C140.150970,150.024780 143.113129,147.733170 145.354050,144.864822 
	C146.099426,143.910767 146.082962,141.108353 145.294205,140.401688 
	C136.929581,132.907623 128.317612,125.690445 119.824509,118.338394 
	C117.588013,116.402367 116.056351,116.350533 114.253494,119.055901 
	C112.629692,121.492577 112.355553,123.408348 114.197327,125.783859 
	C118.060257,130.766251 121.880768,135.790100 125.490913,140.956116 
	C127.170433,143.359436 129.033798,146.044556 126.817986,149.399612 
	C121.160545,143.354431 120.612617,142.908218 115.240562,149.504883 
	C107.856224,158.572540 101.387436,168.387207 94.560791,177.906494 
	C92.995506,180.089188 91.570473,182.372437 90.080894,184.609406 
	C90.253510,181.673080 91.271179,179.274323 92.536705,177.014389 
	C99.108795,165.278168 104.388435,153.005981 108.367760,139.861557 
	C108.409683,139.627548 108.451614,139.393555 108.493538,139.159546 
	C108.144745,139.208145 107.795952,139.256744 106.939056,139.761719 
M144.913269,150.719864 
	C128.955139,169.253067 112.997025,187.786270 96.670746,206.747040 
	C98.676331,207.738358 99.633087,208.406342 100.693909,208.706345 
	C116.699615,213.232498 132.815399,213.654434 148.833710,209.098465 
	C168.702393,203.447342 184.892487,192.197021 196.222336,174.890427 
	C202.271240,165.650620 202.827164,168.317108 194.798996,160.422272 
	C191.311066,156.992294 187.215622,154.180054 183.396103,151.087250 
	C183.032211,151.437088 182.668304,151.786926 182.304413,152.136765 
	C182.756500,155.432632 183.208588,158.728500 183.660675,162.024368 
	C179.856857,157.320724 177.639450,152.038651 174.032944,147.995743 
	C170.419449,143.945023 166.010269,140.033340 159.590347,139.974960 
	C163.281815,143.853821 167.751633,147.003342 167.035843,153.205017 
	C166.432892,158.428879 168.311813,164.086136 163.477417,170.021393 
	C162.103943,164.544327 161.376205,160.021133 159.741180,155.853897 
	C159.001068,153.967575 156.646072,152.359131 154.647400,151.485977 
	C153.767456,151.101562 151.657913,152.594376 150.620285,153.711838 
	C148.712906,155.765976 147.185730,158.173172 145.500092,160.433212 
	C144.972855,160.200058 144.445633,159.966888 143.918396,159.733734 
	C144.641632,156.844315 145.364853,153.954910 146.369614,150.862198 
	C146.411224,150.627670 146.452850,150.393127 146.494461,150.158585 
	C146.145233,150.207062 145.796005,150.255539 144.913269,150.719864 
M60.030689,157.375198 
	C63.383205,155.719986 66.732674,154.058533 70.089149,152.411392 
	C73.151726,150.908478 76.229218,149.435852 79.286560,147.922424 
	C82.025925,146.566406 85.485100,145.813400 87.338280,143.676819 
	C93.047379,137.094650 98.051384,129.906479 103.518646,123.105957 
	C105.476082,120.671188 107.902061,118.590927 110.241409,116.490562 
	C113.782280,113.311401 117.395760,113.473450 120.930466,116.595329 
	C126.775856,121.758026 132.576355,126.973053 138.491608,132.054474 
	C141.127197,134.318558 143.875443,136.506744 146.823257,138.322357 
	C147.864227,138.963516 150.277588,139.010132 150.996994,138.278549 
	C156.242523,132.944382 161.341110,133.571884 166.767960,137.892014 
	C169.877579,140.367508 173.174881,142.612061 176.442535,144.881622 
	C177.635406,145.710114 178.971481,146.340164 180.268982,147.008804 
	C184.051941,148.958237 187.962067,150.692490 191.600189,152.880463 
	C194.085083,154.374863 196.197830,156.488098 198.704742,158.508240 
	C199.404221,157.500244 200.005692,156.904755 200.289124,156.184158 
	C204.291580,146.008179 206.539825,135.342987 205.797348,124.520264 
	C204.208755,101.364197 195.182144,81.640961 177.034805,66.467331 
	C156.700760,49.465324 133.239929,43.875778 107.930962,49.800133 
	C76.441040,57.171333 56.326385,77.551521 48.108479,108.917236 
	C43.728294,125.635323 45.413250,142.189484 51.910652,158.263962 
	C53.220661,161.504898 54.657925,161.587997 57.000618,159.521652 
	C57.741875,158.867844 58.621128,158.370468 60.030689,157.375198 
M81.034294,54.477879 
	C79.170181,55.802528 77.306068,57.127178 75.441956,58.451828 
	C75.620560,58.886024 75.799171,59.320217 75.977783,59.754414 
	C107.030449,39.504807 138.694595,38.541317 170.954834,56.378838 
	C153.063293,40.303516 112.406448,34.983433 81.034294,54.477879 
M42.458912,108.132576 
	C38.867714,131.071396 41.931145,155.128723 50.078197,163.639114 
	C44.112759,149.596939 40.863651,135.792007 42.236465,121.325256 
	C43.590790,107.053436 47.899696,93.582283 55.075226,81.023918 
	C48.816170,88.875694 45.078728,97.789009 42.458912,108.132576 
M207.513458,150.980881 
	C215.511673,126.646759 208.441269,95.589417 198.511719,85.167473 
	C211.528091,109.991096 212.567413,135.473358 202.473557,161.567841 
	C202.908691,161.649170 203.343842,161.730484 203.778976,161.811813 
	C204.925674,158.452637 206.072372,155.093475 207.513458,150.980881 
M76.495468,157.999054 
	C77.776711,156.380203 79.057953,154.761368 81.125168,152.149460 
	C73.124092,153.759308 71.171631,156.098404 72.221855,161.791199 
	C73.619186,160.570892 74.814293,159.527206 76.495468,157.999054 
M188.284103,69.923119 
	C186.711212,68.038177 185.138306,66.153236 183.565399,64.268303 
	C183.101685,64.744507 182.637985,65.220718 182.174271,65.696930 
	C184.076508,67.231407 185.978745,68.765884 188.284103,69.923119 
M178.320724,62.316936 
	C178.484802,62.308563 178.661682,62.335411 178.809265,62.281700 
	C178.951096,62.230080 179.062592,62.095032 179.187408,61.996635 
	C177.639954,60.410530 176.092484,58.824425 174.545029,57.238323 
	C174.159866,57.679829 173.774704,58.121338 173.389542,58.562843 
	C174.859375,59.731018 176.329224,60.899193 178.320724,62.316936 
M71.841385,60.903614 
	C70.718956,62.203213 69.596527,63.502815 68.474098,64.802414 
	C69.069450,65.117050 69.664810,65.431694 70.260162,65.746330 
	C70.956406,64.050972 71.652649,62.355614 71.841385,60.903614 
M63.316742,71.074059 
	C62.004356,71.844666 60.691971,72.615273 59.379585,73.385880 
	C59.780872,73.819527 60.182159,74.253166 60.583443,74.686813 
	C61.507832,73.668129 62.432220,72.649452 63.316742,71.074059 
M190.570938,74.550850 
	C191.337997,75.228882 192.105042,75.906914 192.872101,76.584946 
	C193.146973,76.134521 193.421844,75.684097 193.696716,75.233673 
	C192.678192,74.825813 191.659668,74.417961 190.570938,74.550850 
M56.763729,77.123489 
	C56.936787,77.564964 57.109844,78.006439 57.282902,78.447914 
	C57.673130,78.054352 58.063358,77.660789 58.453587,77.267227 
	C58.010292,77.098137 57.566998,76.929047 56.763729,77.123489 
M194.518127,79.186707 
	C194.839447,79.124420 195.160782,79.062134 195.482101,78.999847 
	C195.162674,78.928139 194.843246,78.856430 194.518127,79.186707 
M196.533508,81.780647 
	C196.801529,81.970062 197.069550,82.159477 197.337570,82.348892 
	C197.165771,82.069252 196.993973,81.789612 196.533508,81.780647 
z"/>
<path fill="#000000" opacity="1.000000" stroke="none" 
	d="
M59.733955,157.588348 
	C58.621128,158.370468 57.741875,158.867844 57.000618,159.521652 
	C54.657925,161.587997 53.220661,161.504898 51.910652,158.263962 
	C45.413250,142.189484 43.728294,125.635323 48.108479,108.917236 
	C56.326385,77.551521 76.441040,57.171333 107.930962,49.800133 
	C133.239929,43.875778 156.700760,49.465324 177.034805,66.467331 
	C195.182144,81.640961 204.208755,101.364197 205.797348,124.520264 
	C206.539825,135.342987 204.291580,146.008179 200.289124,156.184158 
	C200.005692,156.904755 199.404221,157.500244 198.704742,158.508240 
	C196.197830,156.488098 194.085083,154.374863 191.600189,152.880463 
	C187.962067,150.692490 184.051941,148.958237 180.268982,147.008804 
	C178.971481,146.340164 177.635406,145.710114 176.442535,144.881622 
	C173.174881,142.612061 169.877579,140.367508 166.767960,137.892014 
	C161.341110,133.571884 156.242523,132.944382 150.996994,138.278549 
	C150.277588,139.010132 147.864227,138.963516 146.823257,138.322357 
	C143.875443,136.506744 141.127197,134.318558 138.491608,132.054474 
	C132.576355,126.973053 126.775856,121.758026 120.930466,116.595329 
	C117.395760,113.473450 113.782280,113.311401 110.241409,116.490562 
	C107.902061,118.590927 105.476082,120.671188 103.518646,123.105957 
	C98.051384,129.906479 93.047379,137.094650 87.338280,143.676819 
	C85.485100,145.813400 82.025925,146.566406 79.286560,147.922424 
	C76.229218,149.435852 73.151726,150.908478 70.089149,152.411392 
	C66.732674,154.058533 63.383205,155.719986 59.733955,157.588348 
M86.165573,89.428978 
	C87.210533,88.670532 88.255493,87.912086 89.060287,87.327957 
	C87.062935,84.919098 85.260239,82.745010 83.048775,80.077919 
	C85.767319,78.158951 87.957359,76.613045 90.657112,74.707344 
	C92.288399,77.732765 93.576767,80.122200 95.071434,82.894249 
	C96.993408,81.407082 98.862259,79.961006 99.629486,79.367348 
	C95.427567,73.675697 91.565811,68.444809 87.532784,62.981934 
	C86.223480,63.965965 84.452835,65.296730 83.046402,66.353752 
	C85.251099,68.665810 87.080330,70.584122 89.296959,72.908691 
	C86.354897,74.886391 84.103279,76.399963 81.233986,78.328751 
	C79.804970,75.350586 78.674667,72.994972 77.376030,70.288544 
	C75.499611,71.837471 73.706429,73.317688 72.982285,73.915443 
	C76.763870,79.390602 80.036270,84.209801 83.434715,88.938416 
	C83.826485,89.483528 84.920021,89.524292 86.165573,89.428978 
M111.756851,59.354610 
	C110.254410,64.715195 108.751968,70.075775 107.099197,75.972710 
	C108.888596,75.727516 110.095413,75.562149 111.485733,75.371635 
	C110.828094,71.944038 109.726723,68.616402 114.190178,67.494484 
	C119.537621,66.150383 118.581024,71.033173 120.396027,74.176727 
	C122.278732,73.611694 124.256760,73.018051 126.193031,72.436943 
	C123.882172,68.906364 121.911568,66.046288 120.101631,63.087925 
	C118.299263,60.141922 116.658150,57.097260 114.946335,54.095856 
	C114.427139,54.261166 113.907936,54.426472 113.388741,54.591782 
	C112.898415,55.930515 112.408081,57.269253 111.756851,59.354610 
M71.051193,110.926880 
	C73.055931,107.434364 75.298103,104.052704 76.995514,100.416710 
	C78.547928,97.091316 76.633545,95.733215 72.669403,95.353760 
	C75.217239,100.610519 75.705521,105.251900 69.870728,107.693939 
	C66.165794,109.244576 59.998363,106.369980 58.548916,102.520500 
	C57.944096,100.914192 57.537228,98.275963 58.398739,97.268303 
	C60.373390,94.958664 63.183422,93.363243 66.668221,90.704140 
	C64.115234,90.557121 61.688129,89.645668 60.498943,90.486008 
	C55.992275,93.670677 54.104176,101.716019 56.286907,106.142921 
	C58.764225,111.167282 63.443981,112.868607 71.051193,110.926880 
M195.602509,104.461067 
	C195.602509,106.481178 195.602509,108.501289 195.602509,111.214500 
	C197.228897,109.954666 198.437256,109.018654 199.580917,108.132759 
	C197.455276,103.211441 195.436203,98.698624 193.556000,94.128677 
	C192.229553,90.904694 190.323334,90.121086 187.776321,91.634232 
	C189.352448,93.553909 190.726440,95.227402 192.100433,96.900887 
	C190.393677,98.225128 188.854965,99.915543 186.943130,100.792862 
	C183.579086,102.336601 179.987000,103.383392 175.864990,104.862732 
	C176.602859,106.553101 177.530533,108.678253 178.296799,110.433678 
	C183.855652,107.040520 188.461807,102.870987 195.602509,104.461067 
M137.740021,75.049599 
	C140.595123,75.875435 143.447128,76.712128 146.306076,77.524429 
	C150.027908,78.581894 150.963501,76.460999 151.673904,73.783905 
	C148.699097,74.212700 146.207794,75.143402 144.004135,74.686584 
	C142.557922,74.386787 140.277588,71.792465 140.525055,70.725273 
	C141.647842,65.883286 143.536011,61.218769 145.281784,56.100281 
	C143.767014,55.567062 141.531296,54.780056 140.119370,54.283035 
	C138.208893,61.082710 136.457336,67.316757 134.614716,73.874893 
	C134.635452,73.883606 135.831665,74.386253 137.740021,75.049599 
M172.321579,90.606506 
	C171.094650,90.054771 169.806030,89.607361 168.655136,88.927010 
	C166.898849,87.888802 164.748016,87.002098 163.742813,85.426888 
	C163.239944,84.638893 164.636185,82.265465 165.636139,80.964836 
	C168.221970,77.601532 171.064896,74.435890 174.118317,70.820518 
	C172.666367,69.533905 171.442017,68.448990 170.924179,67.990120 
	C166.132614,73.260910 161.820602,78.004211 157.232178,83.051552 
	C159.928375,85.379593 163.288116,88.041527 166.351471,91.009377 
	C168.406189,93.000023 170.037994,92.658066 172.321579,90.606506 
M173.590927,79.056480 
	C172.233368,79.383850 170.875809,79.711220 169.138443,80.130180 
	C169.224670,81.743103 169.312073,83.377968 169.399460,85.012833 
	C169.944290,85.161766 170.489120,85.310699 171.033966,85.459625 
	C172.055099,83.269913 173.076233,81.080200 173.590927,79.056480 
M180.524765,78.795288 
	C179.721344,76.961655 178.917923,75.128021 178.114502,73.294395 
	C177.587433,73.542389 177.060364,73.790382 176.533295,74.038376 
	C177.250824,76.337051 177.968338,78.635719 178.895187,81.604988 
	C179.609772,80.393929 179.916595,79.873962 180.524765,78.795288 
z"/>
<path fill="#000000" opacity="1.000000" stroke="none" 
	d="
M146.088089,151.065491 
	C145.364853,153.954910 144.641632,156.844315 143.918396,159.733734 
	C144.445633,159.966888 144.972855,160.200058 145.500092,160.433212 
	C147.185730,158.173172 148.712906,155.765976 150.620285,153.711838 
	C151.657913,152.594376 153.767456,151.101562 154.647400,151.485977 
	C156.646072,152.359131 159.001068,153.967575 159.741180,155.853897 
	C161.376205,160.021133 162.103943,164.544327 163.477417,170.021393 
	C168.311813,164.086136 166.432892,158.428879 167.035843,153.205017 
	C167.751633,147.003342 163.281815,143.853821 159.590347,139.974960 
	C166.010269,140.033340 170.419449,143.945023 174.032944,147.995743 
	C177.639450,152.038651 179.856857,157.320724 183.660675,162.024368 
	C183.208588,158.728500 182.756500,155.432632 182.304413,152.136765 
	C182.668304,151.786926 183.032211,151.437088 183.396103,151.087250 
	C187.215622,154.180054 191.311066,156.992294 194.798996,160.422272 
	C202.827164,168.317108 202.271240,165.650620 196.222336,174.890427 
	C184.892487,192.197021 168.702393,203.447342 148.833710,209.098465 
	C132.815399,213.654434 116.699615,213.232498 100.693909,208.706345 
	C99.633087,208.406342 98.676331,207.738358 96.670746,206.747040 
	C112.997025,187.786270 128.955139,169.253067 145.337433,150.704773 
	C145.761597,150.689667 146.088089,151.065491 146.088089,151.065491 
z"/>
<path fill="#000000" opacity="1.000000" stroke="none" 
	d="
M108.086159,140.064026 
	C104.388435,153.005981 99.108795,165.278168 92.536705,177.014389 
	C91.271179,179.274323 90.253510,181.673080 90.080894,184.609406 
	C91.570473,182.372437 92.995506,180.089188 94.560791,177.906494 
	C101.387436,168.387207 107.856224,158.572540 115.240562,149.504883 
	C120.612617,142.908218 121.160545,143.354431 126.817986,149.399612 
	C129.033798,146.044556 127.170433,143.359436 125.490913,140.956116 
	C121.880768,135.790100 118.060257,130.766251 114.197327,125.783859 
	C112.355553,123.408348 112.629692,121.492577 114.253494,119.055901 
	C116.056351,116.350533 117.588013,116.402367 119.824509,118.338394 
	C128.317612,125.690445 136.929581,132.907623 145.294205,140.401688 
	C146.082962,141.108353 146.099426,143.910767 145.354050,144.864822 
	C143.113129,147.733170 140.150970,150.024780 137.766190,152.796112 
	C123.586952,169.273697 109.381081,185.731506 95.479065,202.441315 
	C93.238907,205.133911 91.734703,205.394409 88.897995,204.002869 
	C73.709480,196.552155 61.882351,185.468658 52.781914,171.295883 
	C51.116997,168.702988 51.178684,166.776749 53.666260,164.915558 
	C55.524803,163.525009 57.180534,161.818192 59.163910,160.657913 
	C60.225491,160.036896 61.788891,160.273712 63.125828,160.123413 
	C62.744698,161.247208 62.498726,162.443466 61.945572,163.475006 
	C61.356316,164.573883 60.476437,165.516907 59.723434,166.527954 
	C59.986080,167.017395 60.248730,167.506836 60.511375,167.996277 
	C62.924881,167.025742 65.338387,166.055222 68.216576,164.897812 
	C68.578529,165.385040 69.301323,166.358017 70.771164,168.336578 
	C78.867729,160.868408 86.784256,153.566330 94.299889,146.634003 
	C93.733994,149.072815 92.910423,152.622070 92.086861,156.171310 
	C92.717087,156.494202 93.347313,156.817093 93.977539,157.139984 
	C98.298042,151.347229 102.618553,145.554474 107.349922,139.725677 
	C107.760788,139.689636 108.086159,140.064026 108.086159,140.064026 
z"/>
<path fill="#000000" opacity="1.000000" stroke="none" 
	d="
M81.345558,54.296097 
	C112.406448,34.983433 153.063293,40.303516 170.954834,56.378838 
	C138.694595,38.541317 107.030449,39.504807 75.977783,59.754414 
	C75.799171,59.320217 75.620560,58.886024 75.441956,58.451828 
	C77.306068,57.127178 79.170181,55.802528 81.345558,54.296097 
z"/>
<path fill="#000000" opacity="1.000000" stroke="none" 
	d="
M42.610561,107.739197 
	C45.078728,97.789009 48.816170,88.875694 55.075226,81.023918 
	C47.899696,93.582283 43.590790,107.053436 42.236465,121.325256 
	C40.863651,135.792007 44.112759,149.596939 50.078197,163.639114 
	C41.931145,155.128723 38.867714,131.071396 42.610561,107.739197 
z"/>
<path fill="#000000" opacity="1.000000" stroke="none" 
	d="
M207.366272,151.357590 
	C206.072372,155.093475 204.925674,158.452637 203.778976,161.811813 
	C203.343842,161.730484 202.908691,161.649170 202.473557,161.567841 
	C212.567413,135.473358 211.528091,109.991096 198.511719,85.167473 
	C208.441269,95.589417 215.511673,126.646759 207.366272,151.357590 
z"/>
<path fill="#000000" opacity="1.000000" stroke="none" 
	d="
M76.252426,158.241287 
	C74.814293,159.527206 73.619186,160.570892 72.221855,161.791199 
	C71.171631,156.098404 73.124092,153.759308 81.125168,152.149460 
	C79.057953,154.761368 77.776711,156.380203 76.252426,158.241287 
z"/>
<path fill="#000000" opacity="1.000000" stroke="none" 
	d="
M188.082550,70.111740 
	C185.978745,68.765884 184.076508,67.231407 182.174271,65.696930 
	C182.637985,65.220718 183.101685,64.744507 183.565399,64.268303 
	C185.138306,66.153236 186.711212,68.038177 188.082550,70.111740 
z"/>
<path fill="#000000" opacity="1.000000" stroke="none" 
	d="
M178.059891,62.192154 
	C176.329224,60.899193 174.859375,59.731018 173.389542,58.562843 
	C173.774704,58.121338 174.159866,57.679829 174.545029,57.238323 
	C176.092484,58.824425 177.639954,60.410530 179.187408,61.996635 
	C179.062592,62.095032 178.951096,62.230080 178.809265,62.281700 
	C178.661682,62.335411 178.484802,62.308563 178.059891,62.192154 
z"/>
<path fill="#000000" opacity="1.000000" stroke="none" 
	d="
M72.095139,60.781937 
	C71.652649,62.355614 70.956406,64.050972 70.260162,65.746330 
	C69.664810,65.431694 69.069450,65.117050 68.474098,64.802414 
	C69.596527,63.502815 70.718956,62.203213 72.095139,60.781937 
z"/>
<path fill="#000000" opacity="1.000000" stroke="none" 
	d="
M63.336678,71.352417 
	C62.432220,72.649452 61.507832,73.668129 60.583443,74.686813 
	C60.182159,74.253166 59.780872,73.819527 59.379585,73.385880 
	C60.691971,72.615273 62.004356,71.844666 63.336678,71.352417 
z"/>
<path fill="#000000" opacity="1.000000" stroke="none" 
	d="
M190.606049,74.280479 
	C191.659668,74.417961 192.678192,74.825813 193.696716,75.233673 
	C193.421844,75.684097 193.146973,76.134521 192.872101,76.584946 
	C192.105042,75.906914 191.337997,75.228882 190.606049,74.280479 
z"/>
<path fill="#000000" opacity="1.000000" stroke="none" 
	d="
M56.943714,76.941727 
	C57.566998,76.929047 58.010292,77.098137 58.453587,77.267227 
	C58.063358,77.660789 57.673130,78.054352 57.282902,78.447914 
	C57.109844,78.006439 56.936787,77.564964 56.943714,76.941727 
z"/>
<path fill="#000000" opacity="1.000000" stroke="none" 
	d="
M194.520966,78.985718 
	C194.843246,78.856430 195.162674,78.928139 195.482101,78.999847 
	C195.160782,79.062134 194.839447,79.124420 194.520966,78.985718 
z"/>
<path fill="#000000" opacity="1.000000" stroke="none" 
	d="
M196.677841,81.645309 
	C196.993973,81.789612 197.165771,82.069252 197.337570,82.348892 
	C197.069550,82.159477 196.801529,81.970062 196.677841,81.645309 
z"/>
<path fill="#000000" opacity="1.000000" stroke="none" 
	d="
M107.603973,139.497498 
	C107.795952,139.256744 108.144745,139.208145 108.493546,139.159546 
	C108.451614,139.393555 108.409683,139.627548 108.226959,139.962799 
	C108.086159,140.064026 107.760788,139.689636 107.603973,139.497498 
z"/>
<path fill="#000000" opacity="1.000000" stroke="none" 
	d="
M145.604187,150.496841 
	C145.796005,150.255539 146.145233,150.207062 146.494461,150.158600 
	C146.452850,150.393127 146.411224,150.627670 146.228851,150.963837 
	C146.088089,151.065491 145.761597,150.689667 145.604187,150.496841 
z"/>
<path fill="#293549" opacity="1.000000" stroke="none" 
	d="
M85.926880,89.613937 
	C84.920021,89.524292 83.826485,89.483528 83.434715,88.938416 
	C80.036270,84.209801 76.763870,79.390602 72.982285,73.915443 
	C73.706429,73.317688 75.499611,71.837471 77.376030,70.288544 
	C78.674667,72.994972 79.804970,75.350586 81.233986,78.328751 
	C84.103279,76.399963 86.354897,74.886391 89.296959,72.908691 
	C87.080330,70.584122 85.251099,68.665810 83.046402,66.353752 
	C84.452835,65.296730 86.223480,63.965965 87.532784,62.981934 
	C91.565811,68.444809 95.427567,73.675697 99.629486,79.367348 
	C98.862259,79.961006 96.993408,81.407082 95.071434,82.894249 
	C93.576767,80.122200 92.288399,77.732765 90.657112,74.707344 
	C87.957359,76.613045 85.767319,78.158951 83.048775,80.077919 
	C85.260239,82.745010 87.062935,84.919098 89.060287,87.327957 
	C88.255493,87.912086 87.210533,88.670532 85.926880,89.613937 
z"/>
<path fill="#293649" opacity="1.000000" stroke="none" 
	d="
M111.837303,58.981300 
	C112.408081,57.269253 112.898415,55.930515 113.388741,54.591782 
	C113.907936,54.426472 114.427139,54.261166 114.946335,54.095856 
	C116.658150,57.097260 118.299263,60.141922 120.101631,63.087925 
	C121.911568,66.046288 123.882172,68.906364 126.193031,72.436943 
	C124.256760,73.018051 122.278732,73.611694 120.396027,74.176727 
	C118.581024,71.033173 119.537621,66.150383 114.190178,67.494484 
	C109.726723,68.616402 110.828094,71.944038 111.485733,75.371635 
	C110.095413,75.562149 108.888596,75.727516 107.099197,75.972710 
	C108.751968,70.075775 110.254410,64.715195 111.837303,58.981300 
z"/>
<path fill="#293449" opacity="1.000000" stroke="none" 
	d="
M70.687157,111.086334 
	C63.443981,112.868607 58.764225,111.167282 56.286907,106.142921 
	C54.104176,101.716019 55.992275,93.670677 60.498943,90.486008 
	C61.688129,89.645668 64.115234,90.557121 66.668221,90.704140 
	C63.183422,93.363243 60.373390,94.958664 58.398739,97.268303 
	C57.537228,98.275963 57.944096,100.914192 58.548916,102.520500 
	C59.998363,106.369980 66.165794,109.244576 69.870728,107.693939 
	C75.705521,105.251900 75.217239,100.610519 72.669403,95.353760 
	C76.633545,95.733215 78.547928,97.091316 76.995514,100.416710 
	C75.298103,104.052704 73.055931,107.434364 70.687157,111.086334 
z"/>
<path fill="#2A3548" opacity="1.000000" stroke="none" 
	d="
M195.407043,104.206284 
	C188.461807,102.870987 183.855652,107.040520 178.296799,110.433678 
	C177.530533,108.678253 176.602859,106.553101 175.864990,104.862732 
	C179.987000,103.383392 183.579086,102.336601 186.943130,100.792862 
	C188.854965,99.915543 190.393677,98.225128 192.100433,96.900887 
	C190.726440,95.227402 189.352448,93.553909 187.776321,91.634232 
	C190.323334,90.121086 192.229553,90.904694 193.556000,94.128677 
	C195.436203,98.698624 197.455276,103.211441 199.580917,108.132759 
	C198.437256,109.018654 197.228897,109.954666 195.602509,111.214500 
	C195.602509,108.501289 195.602509,106.481178 195.407043,104.206284 
z"/>
<path fill="#293549" opacity="1.000000" stroke="none" 
	d="
M137.383942,74.969254 
	C135.831665,74.386253 134.635452,73.883606 134.614716,73.874893 
	C136.457336,67.316757 138.208893,61.082710 140.119370,54.283035 
	C141.531296,54.780056 143.767014,55.567062 145.281784,56.100281 
	C143.536011,61.218769 141.647842,65.883286 140.525055,70.725273 
	C140.277588,71.792465 142.557922,74.386787 144.004135,74.686584 
	C146.207794,75.143402 148.699097,74.212700 151.673904,73.783905 
	C150.963501,76.460999 150.027908,78.581894 146.306076,77.524429 
	C143.447128,76.712128 140.595123,75.875435 137.383942,74.969254 
z"/>
<path fill="#293549" opacity="1.000000" stroke="none" 
	d="
M172.089111,90.782433 
	C170.037994,92.658066 168.406189,93.000023 166.351471,91.009377 
	C163.288116,88.041527 159.928375,85.379593 157.232178,83.051552 
	C161.820602,78.004211 166.132614,73.260910 170.924179,67.990120 
	C171.442017,68.448990 172.666367,69.533905 174.118317,70.820518 
	C171.064896,74.435890 168.221970,77.601532 165.636139,80.964836 
	C164.636185,82.265465 163.239944,84.638893 163.742813,85.426888 
	C164.748016,87.002098 166.898849,87.888802 168.655136,88.927010 
	C169.806030,89.607361 171.094650,90.054771 172.089111,90.782433 
z"/>
<path fill="#293549" opacity="1.000000" stroke="none" 
	d="
M173.844147,78.973480 
	C173.076233,81.080200 172.055099,83.269913 171.033966,85.459625 
	C170.489120,85.310699 169.944290,85.161766 169.399460,85.012833 
	C169.312073,83.377968 169.224670,81.743103 169.138443,80.130180 
	C170.875809,79.711220 172.233368,79.383850 173.844147,78.973480 
z"/>
<path fill="#293549" opacity="1.000000" stroke="none" 
	d="
M180.374084,79.074646 
	C179.916595,79.873962 179.609772,80.393929 178.895187,81.604988 
	C177.968338,78.635719 177.250824,76.337051 176.533295,74.038376 
	C177.060364,73.790382 177.587433,73.542389 178.114502,73.294395 
	C178.917923,75.128021 179.721344,76.961655 180.374084,79.074646 
z"/>
</svg>