<?xml version="1.0" encoding="UTF-8"?>
<!DOCTYPE svg PUBLIC "-//W3C//DTD SVG 1.1//EN" "http://www.w3.org/Graphics/SVG/1.1/DTD/svg11.dtd">
<svg xmlns="http://www.w3.org/2000/svg" version="1.1" width="250px" height="250px" style="shape-rendering:geometricPrecision; text-rendering:geometricPrecision; image-rendering:optimizeQuality; fill-rule:evenodd; clip-rule:evenodd" xmlns:xlink="http://www.w3.org/1999/xlink">
<g><path style="opacity:0.775" fill="#283246" d="M 112.5,37.5 C 155.862,34.754 187.029,52.754 206,91.5C 220.308,134.111 210.142,169.611 175.5,198C 148.385,215.155 119.718,218.155 89.5,207C 55.4005,190.666 37.4005,163.5 35.5,125.5C 39.4235,76.9087 65.0902,47.5754 112.5,37.5 Z M 202.5,157.5 C 214.935,117.718 205.268,84.5517 173.5,58C 144.168,39.2748 113.835,37.6081 82.5,53C 52.9229,71.9854 39.0895,99.1521 41,134.5C 42.5496,144.456 44.8829,154.123 48,163.5C 31.3589,124.038 38.5256,89.5382 69.5,60C 100.421,37.0963 133.087,34.4297 167.5,52C 199.806,73.1257 213.306,102.959 208,141.5C 207.03,147.246 205.197,152.579 202.5,157.5 Z M 112.5,46.5 C 152.282,43.6284 180.782,59.9618 198,95.5C 206.82,115.945 206.654,136.279 197.5,156.5C 193.307,153.14 188.974,149.973 184.5,147C 178.967,146.834 174.634,144.501 171.5,140C 167.5,137.667 163.5,135.333 159.5,133C 155.08,132.697 151.413,134.364 148.5,138C 147.833,138.667 147.167,138.667 146.5,138C 137.167,130 127.833,122 118.5,114C 115.5,112 112.5,112 109.5,114C 107.759,115.62 105.925,117.12 104,118.5C 97.1667,127.333 90.3333,136.167 83.5,145C 76.6571,145.256 70.9905,147.922 66.5,153C 61.6882,153.406 57.6882,155.406 54.5,159C 53.365,159.749 52.365,159.583 51.5,158.5C 37.0318,119.75 45.6985,87.2499 77.5,61C 88.327,53.8978 99.9937,49.0644 112.5,46.5 Z M 111.5,58.5 C 112.601,59.8484 113.601,61.3484 114.5,63C 113.289,64.5778 111.955,64.7445 110.5,63.5C 111.309,61.9291 111.643,60.2624 111.5,58.5 Z M 79.5,150.5 C 75.6982,155.471 71.6982,160.304 67.5,165C 67.8499,166.257 68.5165,166.591 69.5,166C 79.3583,159.974 87.3583,152.141 93.5,142.5C 92.7103,146.206 91.7103,149.872 90.5,153.5C 90.5565,154.737 91.0565,155.737 92,156.5C 96.8536,150.098 101.687,143.765 106.5,137.5C 103.599,143.424 101.765,149.758 101,156.5C 95.5284,165.436 91.195,174.769 88,184.5C 92.6837,175.798 98.3504,167.798 105,160.5C 108.17,152.826 113.337,146.826 120.5,142.5C 122.188,144.029 123.521,145.863 124.5,148C 124.833,148.167 125.167,148.333 125.5,148.5C 126.602,145.81 126.436,143.143 125,140.5C 120.045,134.089 115.211,127.589 110.5,121C 112,118.833 113.5,116.667 115,114.5C 125.627,123.023 135.794,131.857 145.5,141C 135.346,151.821 125.179,162.655 115,173.5C 107.242,184.014 99.2419,194.347 91,204.5C 73.1863,196.187 59.353,183.52 49.5,166.5C 52.8514,163.152 56.5181,160.152 60.5,157.5C 61.5,157.833 62.1667,158.5 62.5,159.5C 60.8333,161.5 59.1667,163.5 57.5,165.5C 59.0745,166.631 60.7412,166.798 62.5,166C 64.3884,163.81 66.5551,161.977 69,160.5C 69.7691,154.23 73.2691,150.896 79.5,150.5 Z M 145.5,147.5 C 144.955,149.593 144.122,151.593 143,153.5C 142.192,155.579 142.359,157.579 143.5,159.5C 146.322,155.872 149.155,152.205 152,148.5C 153.444,150.155 155.278,150.822 157.5,150.5C 158.413,156.827 160.246,162.827 163,168.5C 165.46,161.379 166.126,154.045 165,146.5C 163.57,143.281 161.237,140.948 158,139.5C 157.409,138.517 157.743,137.85 159,137.5C 169.826,142.489 177.326,150.489 181.5,161.5C 182.418,157.96 182.085,154.46 180.5,151C 180.833,150.5 181.167,150 181.5,149.5C 187.481,154.313 193.314,159.313 199,164.5C 192.809,178.606 182.976,189.772 169.5,198C 146.401,211.311 122.068,214.144 96.5,206.5C 111.154,185.582 127.487,165.915 145.5,147.5 Z M 202.5,157.5 C 202.688,159.103 202.188,160.437 201,161.5C 200.652,159.86 201.152,158.527 202.5,157.5 Z"/></g>
<g><path style="opacity:0.69" fill="#283247" d="M 111.5,52.5 C 113.017,52.5106 114.184,53.1772 115,54.5C 117.768,60.3835 121.268,65.7168 125.5,70.5C 122.987,72.4052 120.321,72.7386 117.5,71.5C 118.154,69.1104 117.321,67.1104 115,65.5C 113.234,66.2335 111.401,66.5668 109.5,66.5C 109.714,68.1439 109.38,69.6439 108.5,71C 109.328,71.9147 110.328,72.5814 111.5,73C 109.386,74.518 107.053,74.8513 104.5,74C 107.517,67.1153 109.85,59.9487 111.5,52.5 Z M 111.5,58.5 C 111.643,60.2624 111.309,61.9291 110.5,63.5C 111.955,64.7445 113.289,64.5778 114.5,63C 113.601,61.3484 112.601,59.8484 111.5,58.5 Z"/></g>
<g><path style="opacity:0.738" fill="#283246" d="M 136.5,52.5 C 139.696,52.8986 142.696,53.8986 145.5,55.5C 144.066,56.2298 142.9,57.2298 142,58.5C 140.756,62.6445 139.589,66.8111 138.5,71C 142.568,74.4011 146.568,74.2344 150.5,70.5C 150.833,70.6667 151.167,70.8333 151.5,71C 150.139,72.5843 149.472,74.4176 149.5,76.5C 142.892,75.8526 136.559,74.1859 130.5,71.5C 131.628,70.7379 132.795,70.0712 134,69.5C 135.428,64.9471 136.928,60.4471 138.5,56C 137.177,55.1841 136.511,54.0174 136.5,52.5 Z"/></g>
<g><path style="opacity:0.716" fill="#283146" d="M 167.5,65.5 C 172.473,67.83 176.473,71.33 179.5,76C 179.122,77.6349 178.456,79.1349 177.5,80.5C 176.969,76.438 175.136,73.1046 172,70.5C 170.315,72.0175 168.815,73.6841 167.5,75.5C 168.831,79.0218 170.664,79.3552 173,76.5C 173.5,77 174,77.5 174.5,78C 172.288,80.0425 170.288,82.2092 168.5,84.5C 168.405,77.1507 166.238,76.1507 162,81.5C 161.289,83.3668 161.789,84.8668 163.5,86C 166.525,87.4339 169.525,87.9339 172.5,87.5C 171.055,89.0627 169.389,90.396 167.5,91.5C 162.848,88.1793 158.515,84.5126 154.5,80.5C 157.166,79.9611 159.333,78.6278 161,76.5C 162.626,73.8723 164.626,71.539 167,69.5C 167.49,68.2068 167.657,66.8734 167.5,65.5 Z"/></g>
<g><path style="opacity:0.737" fill="#283246" d="M 86.5,60.5 C 87.3764,60.3691 88.0431,60.7025 88.5,61.5C 87.6744,62.451 87.5078,63.451 88,64.5C 90.9113,67.9895 93.578,71.6562 96,75.5C 97.1353,75.727 98.302,76.0604 99.5,76.5C 97.4595,79.3484 94.7928,80.8484 91.5,81C 92.3589,77.9459 91.3589,75.4459 88.5,73.5C 86.1667,75.3333 83.8333,77.1667 81.5,79C 83.2134,80.3782 84.5467,82.0448 85.5,84C 86.7376,83.9227 87.7376,84.0894 88.5,84.5C 86.4698,86.607 84.3031,88.607 82,90.5C 80.1759,89.2513 80.3426,88.0847 82.5,87C 79.3007,83.4338 76.4674,79.6004 74,75.5C 72.6012,74.7734 71.1012,74.2734 69.5,74C 71.4704,71.6843 73.8037,69.8509 76.5,68.5C 77.5809,78.0036 81.2475,78.8369 87.5,71C 85.8815,68.2702 83.5481,66.4368 80.5,65.5C 82.5441,63.7806 84.5441,62.1139 86.5,60.5 Z"/></g>
<g><path style="opacity:0.715" fill="#293348" d="M 58.5,87.5 C 61.1795,87.6726 63.5128,88.6726 65.5,90.5C 58.2392,90.9129 55.4059,94.5796 57,101.5C 61.5367,106.983 66.5367,107.65 72,103.5C 72.6377,102.391 73.1377,101.225 73.5,100C 72.1726,97.547 71.3393,95.047 71,92.5C 73.087,93.7938 75.2537,94.9605 77.5,96C 75.9237,100.718 73.5904,105.052 70.5,109C 61.3061,112.57 55.6395,109.57 53.5,100C 54.5232,95.4712 56.1899,91.3045 58.5,87.5 Z"/></g>
<g><path style="opacity:0.732" fill="#283246" d="M 189.5,88.5 C 192.481,94.396 195.481,100.396 198.5,106.5C 193.26,111.002 191.927,110.335 194.5,104.5C 194.281,103.062 193.781,101.729 193,100.5C 188.321,102.924 183.488,104.924 178.5,106.5C 178.657,107.873 178.49,109.207 178,110.5C 175.289,107.472 174.123,104.139 174.5,100.5C 175.216,101.311 176.05,101.978 177,102.5C 182.041,100.728 186.875,98.5613 191.5,96C 190.194,92.8609 187.861,91.0276 184.5,90.5C 186.291,89.8302 187.958,89.1635 189.5,88.5 Z"/></g>
</svg>
