<?xml version="1.0" standalone="yes"?>
<svg xmlns="http://www.w3.org/2000/svg" width="250" height="250">
<path style="fill:#010101; stroke:none;" d="M0 0L0 250L250 250L250 0L0 0z"/>
<path style="fill:#1f2b50; stroke:none;" d="M113.667 38.3333L114.333 38.6667L113.667 38.3333z"/>
<path style="fill:#2b3549; stroke:none;" d="M115 38.4252C100.662 40.3769 87.0264 44.44 75 52.7739C13.5047 95.3882 30.5024 191.335 102 211.421C112.663 214.416 124.986 215.141 136 213.711C148.434 212.096 160.292 207.858 171 201.399C236.36 161.973 220.825 57.86 146 40.2361C136.045 37.8914 125.166 37.0413 115 38.4252z"/>
<path style="fill:#1f2b50; stroke:none;" d="M107 39L108 40L107 39z"/>
<path style="fill:#010101; stroke:none;" d="M48 164L49 164C44.6707 138.84 37.11 120.532 47.4529 95C71.2277 36.3102 151.493 25.7095 190.331 75C212.153 102.695 208.487 130.405 201 162C206.701 156.125 208.037 145.844 209.13 138C212.799 111.675 204.093 85.366 185.83 66.0394C138.491 15.9438 50.0876 45.7564 40.4282 113C37.8465 130.973 41.1696 147.347 48 164z"/>
<path style="fill:#1f2b50; stroke:none;" d="M93 43L94 44L93 43z"/>
<path style="fill:#010101; stroke:none;" d="M112.667 45.3333L113.333 45.6667L112.667 45.3333M135.667 45.3333L136.333 45.6667L135.667 45.3333z"/>
<path style="fill:#1f2b50; stroke:none;" d="M137 45L138 46L137 45M145 45L146 46L145 45z"/>
<path style="fill:#010101; stroke:none;" d="M107 46L108 47L107 46z"/>
<path style="fill:#1f2b50; stroke:none;" d="M108 46L109 47L108 46M122.667 46.3333L123.333 46.6667L122.667 46.3333M126 46L126 47L129 47L126 46z"/>
<path style="fill:#010101; stroke:none;" d="M141 46L142 47L141 46M103 47L104 48L103 47z"/>
<path style="fill:#1f2b50; stroke:none;" d="M111 47L112 48L111 47z"/>
<path style="fill:#010101; stroke:none;" d="M52 161C59.5534 157.242 66.4969 152.242 74 148.452C77.7996 146.533 82.4251 146.821 85.6103 143.697C93.8101 135.655 101.295 117.398 113 113.967C122.116 111.294 136.146 131.423 143 135.937C150.2 140.679 153.19 131.954 160 134.132C173.189 138.351 186.754 150.171 198 158C219.511 117.177 191.931 65.2744 151 50.865C119.646 39.8271 83.4102 50.4472 62.4645 76C54.6549 85.5274 49.2694 96.978 46.662 109C42.5952 127.751 47.12 143.158 52 161z"/>
<path style="fill:#1f2b50; stroke:none;" d="M145.667 47.3333L146.333 47.6667L145.667 47.3333M82 48L83 49L82 48z"/>
<path style="fill:#045757; stroke:none;" d="M94 48L95 49L94 48z"/>
<path style="fill:#010101; stroke:none;" d="M149 48L150 49L149 48z"/>
<path style="fill:#1f2b50; stroke:none;" d="M97 49L98 50L97 49z"/>
<path style="fill:#045757; stroke:none;" d="M152 49L153 50L152 49M94 50L95 51L94 50z"/>
<path style="fill:#1f2b50; stroke:none;" d="M154 50L155 51L154 50M164 50L165 51L164 50z"/>
<path style="fill:#045757; stroke:none;" d="M170 50L171 51L170 50z"/>
<path style="fill:#010101; stroke:none;" d="M157 51L158 52L157 51z"/>
<path style="fill:#045757; stroke:none;" d="M159 52L160 53L159 52z"/>
<path style="fill:#1f2b50; stroke:none;" d="M173 52L174 53L173 52M87 53L88 54L87 53z"/>
<path style="fill:#2b3549; stroke:none;" d="M113 53L105 75L112 74L112 73L109 72L110 67C115.158 66.5114 117.707 67.4484 118 73L126 72L113 53M137 53L139 55L132 73C138.573 74.5069 148.997 80.6019 151 71C137.109 78.6326 138.585 63.1718 146 56L137 53z"/>
<path style="fill:#1f2b50; stroke:none;" d="M139 53L140 54L139 53M157 53L158 54L157 53M161 53L162 54L161 53M165 53L166 54L165 53M85 54L86 55L85 54M80 55L81 56L80 55z"/>
<path style="fill:#045757; stroke:none;" d="M138 55L139 56L138 55z"/>
<path style="fill:#1f2b50; stroke:none;" d="M70 56L71 57L70 56M82 56L83 57L82 56M170 56L171 57L170 56M168 57L169 58L168 57M170 58L172 60L170 58z"/>
<path style="fill:#045757; stroke:none;" d="M173 58L174 59L173 58z"/>
<path style="fill:#1f2b50; stroke:none;" d="M77 59L78 60L77 59z"/>
<path style="fill:#010101; stroke:none;" d="M112 59L111 65L115 64L112 59z"/>
<path style="fill:#1f2b50; stroke:none;" d="M168 59L169 60L168 59M174 59L175 60L174 59z"/>
<path style="fill:#045757; stroke:none;" d="M65 60L66 61L65 60z"/>
<path style="fill:#1f2b50; stroke:none;" d="M64 61L65 62L64 61z"/>
<path style="fill:#2b3549; stroke:none;" d="M81 67L88 73L80 78L78 69L70 74L70 75C75.9042 76.6924 81.6232 83.7814 82 90L89 86L82 80L82 79L90 73L93 82L100 76L97 77L89 61L81 67z"/>
<path style="fill:#045757; stroke:none;" d="M114 62L115 63L114 62z"/>
<path style="fill:#1f2b50; stroke:none;" d="M178 62L179 63L178 62M75 63L76 64L75 63M61 64L62 65L61 64M71 64L70 66L71 64M114 64L115 65L114 64M178 64L180 66L178 64z"/>
<path style="fill:#045757; stroke:none;" d="M67 65L68 66L67 65z"/>
<path style="fill:#1f2b50; stroke:none;" d="M66 66L67 67L66 66M83 66L84 67L83 66z"/>
<path style="fill:#2b3549; stroke:none;" d="M168 66C166.461 71.6478 161.19 79.2775 155 80C159.277 86.0555 165.448 93.3443 173 89L173 88L161 84L161 83L167 78L168 85L174 77L167 77L172 71L173 71L177 81C183.953 75.6766 172.748 68.2009 168 66z"/>
<path style="fill:#045757; stroke:none;" d="M177 66L178 67L177 66z"/>
<path style="fill:#1f2b50; stroke:none;" d="M191 68L192 69L191 68M86 69L87 70L86 69M91 69L92 70L91 69M118 69L119 70L118 69z"/>
<path style="fill:#045757; stroke:none;" d="M188 69L189 70L188 69z"/>
<path style="fill:#1f2b50; stroke:none;" d="M65 70L66 71L65 70z"/>
<path style="fill:#045757; stroke:none;" d="M92 70L93 71L92 70M131 71L132 72L131 71z"/>
<path style="fill:#1f2b50; stroke:none;" d="M185 71L186 72L185 71M63 72L64 73L63 72M72 72L73 73L72 72M188 72L189 73L188 72z"/>
<path style="fill:#045757; stroke:none;" d="M62 73L63 74L62 73z"/>
<path style="fill:#1f2b50; stroke:none;" d="M89 73L90 74L89 73M94 73L95 74L94 73z"/>
<path style="fill:#045757; stroke:none;" d="M189 73L190 74L189 73z"/>
<path style="fill:#1f2b50; stroke:none;" d="M78 74L79 75L78 74M163 74L164 75L163 74M58 75L59 76L58 75M176 75L177 76L176 75M193 75L194 76L193 75M75 77L76 78L75 77M80 77L81 78L80 77M92 77L93 78L92 77M198 77L199 78L198 77z"/>
<path style="fill:#045757; stroke:none;" d="M58 78L59 79L58 78z"/>
<path style="fill:#1f2b50; stroke:none;" d="M174 78L175 79L174 78M57 79L58 80L57 79M52 80L53 81L52 80M157 80L158 81L157 80M192 80L193 81L192 80M48 81L49 82L48 81z"/>
<path style="fill:#045757; stroke:none;" d="M56 81L57 82L56 81z"/>
<path style="fill:#1f2b50; stroke:none;" d="M78 81L79 82L78 81M92 81L93 82L92 81z"/>
<path style="fill:#045757; stroke:none;" d="M168 81L169 82L168 81z"/>
<path style="fill:#1f2b50; stroke:none;" d="M191 82L192 83L191 82M201 82L202 83L201 82M161 83L162 84L161 83M194 83L195 84L194 83M196 83L197 84L196 83z"/>
<path style="fill:#045757; stroke:none;" d="M54 84L55 85L54 84M88 84L89 85L88 84z"/>
<path style="fill:#1f2b50; stroke:none;" d="M202 84L203 85L202 84z"/>
<path style="fill:#010101; stroke:none;" d="M195 85L196 86L195 85z"/>
<path style="fill:#1f2b50; stroke:none;" d="M53 86L54 87L53 86M55 86L56 87L55 86M86 87L87 88L86 87M196 87L197 88L196 87M52 88L53 89L52 88M59.3333 88.6667L59.6667 89.3333L59.3333 88.6667z"/>
<path style="fill:#2b3549; stroke:none;" d="M60 88C57.6754 91.6437 54.5226 95.4813 54.3148 100C53.9556 107.813 62.9342 113.664 69.8256 109.682C74.7909 106.813 75.6893 101.051 77 96L71 94C71.7886 95.578 72.8615 97.2665 73.2076 99.0239C76.2942 114.698 46.1762 101.323 61.0309 93.1752C62.6354 92.295 64.2308 92.1972 66 92L66 91L60 88z"/>
<path style="fill:#045757; stroke:none;" d="M163 88L164 89L163 88M63 89L64 90L63 89z"/>
<path style="fill:#2b3549; stroke:none;" d="M185 91L185 92L192 97L174 102L179 110L194 101L193 110L199 107L199 106L191 89L185 91z"/>
<path style="fill:#1f2b50; stroke:none;" d="M65 90L66 91L65 90M192 93L193 94L192 93z"/>
<path style="fill:#045757; stroke:none;" d="M45 94L46 95L45 94z"/>
<path style="fill:#1f2b50; stroke:none;" d="M55 95L56 96L55 95z"/>
<path style="fill:#045757; stroke:none;" d="M200 95L201 96L200 95z"/>
<path style="fill:#1f2b50; stroke:none;" d="M41 96L42 97L41 96M48 96L49 97L48 96M76 97L77 98L76 97M56 98L57 99L56 98M203 98L204 99L203 98z"/>
<path style="fill:#045757; stroke:none;" d="M47 99L48 100L47 99z"/>
<path style="fill:#1f2b50; stroke:none;" d="M200 100L201 101L200 100M202 100L203 101L202 100M209 101L210 102L209 101M73 102L74 103L73 102z"/>
<path style="fill:#045757; stroke:none;" d="M196 102L197 103L196 102z"/>
<path style="fill:#1f2b50; stroke:none;" d="M72 104L73 105L72 104z"/>
<path style="fill:#010101; stroke:none;" d="M203 104L204 105L203 104z"/>
<path style="fill:#1f2b50; stroke:none;" d="M45 105L46 106L45 105M55 105L56 106L55 105M71 105L72 106L71 105z"/>
<path style="fill:#010101; stroke:none;" d="M45 106L46 107L45 106z"/>
<path style="fill:#1f2b50; stroke:none;" d="M72 107L73 108L72 107M194 107L195 108L194 107M198 107L199 108L198 107z"/>
<path style="fill:#010101; stroke:none;" d="M204 108L205 109L204 108z"/>
<path style="fill:#1f2b50; stroke:none;" d="M46 109L47 110L46 109z"/>
<path style="fill:#045757; stroke:none;" d="M70 109L71 110L70 109z"/>
<path style="fill:#1f2b50; stroke:none;" d="M206 109L207 110L206 109z"/>
<path style="fill:#045757; stroke:none;" d="M211 109L212 110L211 109z"/>
<path style="fill:#010101; stroke:none;" d="M44 110L45 111L44 110z"/>
<path style="fill:#1f2b50; stroke:none;" d="M178 110L179 111L178 110M37 112L38 113L37 112M203 112L204 113L203 112z"/>
<path style="fill:#010101; stroke:none;" d="M205 113L206 114L205 113z"/>
<path style="fill:#045757; stroke:none;" d="M118 114L119 115L118 114z"/>
<path style="fill:#1f2b50; stroke:none;" d="M43 115L44 116L43 115M45 115L46 116L45 115z"/>
<path style="fill:#010101; stroke:none;" d="M115 115C107.03 127.423 125.847 136.199 127 149L122 143C112.7 146.161 109.395 154.601 104.201 162C98.8297 169.651 92.3859 176.054 89 185L88 185L108 137L91 156L95 142L68 167L81 150C70.9301 152.783 68.8215 166.423 58 166L63 159L62 158C58.2315 159.271 51.5973 162.508 51.0224 167.039C50.5148 171.04 55.3932 176.112 57.669 179C64.3945 187.536 78.2293 202.526 89.9606 203.716C93.8148 204.107 96.168 199.588 98.2106 197C104.26 189.336 110.146 181.462 116.439 174C122.905 166.334 129.913 159.09 137 152C139.524 149.475 144.59 145.902 145.079 142.093C145.531 138.572 140.266 136.17 138.039 134.331C130.353 127.984 124.004 119.665 115 115z"/>
<path style="fill:#1f2b50; stroke:none;" d="M116 115L117 116L116 115M212 116L213 117L212 116z"/>
<path style="fill:#010101; stroke:none;" d="M43 117L44 118L43 117z"/>
<path style="fill:#045757; stroke:none;" d="M43 118L44 119L43 118z"/>
<path style="fill:#1f2b50; stroke:none;" d="M43 119L44 120L43 119M204 120L205 121L204 120z"/>
<path style="fill:#045757; stroke:none;" d="M123 121L124 122L123 121z"/>
<path style="fill:#1f2b50; stroke:none;" d="M206 121L207 122L206 121M111 122L112 123L111 122M101 123L102 124L101 123z"/>
<path style="fill:#010101; stroke:none;" d="M206 123L206 130L207 130L206 123z"/>
<path style="fill:#045757; stroke:none;" d="M36 124L37 125L36 124z"/>
<path style="fill:#1f2b50; stroke:none;" d="M36 127L37 128L36 127M39 130L40 131L39 130M96 130L97 131L96 130M117 130L118 131L117 130z"/>
<path style="fill:#045757; stroke:none;" d="M134 131L135 132L134 131z"/>
<path style="fill:#1f2b50; stroke:none;" d="M206.333 131.667L206.667 132.333L206.333 131.667M41.3333 132.667L41.6667 133.333L41.3333 132.667M135 132L136 133L135 132M204 132L205 133L204 132M136 133L137 134L136 133M155 133L156 134L155 133M43 134L44 135L43 134M120 134L121 135L120 134z"/>
<path style="fill:#010101; stroke:none;" d="M43 135L44 136L43 135z"/>
<path style="fill:#1f2b50; stroke:none;" d="M212 135L213 136L212 135z"/>
<path style="fill:#045757; stroke:none;" d="M151 136L152 137L151 136z"/>
<path style="fill:#1f2b50; stroke:none;" d="M209 136L210 137L209 136M45 137L46 138L45 137M145 137L146 138L145 137M123 138L124 139L123 138z"/>
<path style="fill:#010101; stroke:none;" d="M158 138C163.803 149.478 168.392 154.143 164 168L162 168C160.406 160.277 159.9 153.446 153 149L152 149L143 160L147 147C133.401 156.659 122.622 173.083 112.197 186C106.84 192.637 99.589 199.258 96 207C123.688 212.715 149.717 212.833 174 195.961C181.115 191.017 200.243 176.162 198.978 166C198.412 161.448 192.256 157.433 189 154.758C186.423 152.641 184.145 151.067 181 150L183 162C173.919 153.389 172.916 140.661 158 138z"/>
<path style="fill:#045757; stroke:none;" d="M168 138L169 139L168 138z"/>
<path style="fill:#1f2b50; stroke:none;" d="M37 139L38 140L37 139z"/>
<path style="fill:#010101; stroke:none;" d="M205 139L206 140L205 139z"/>
<path style="fill:#045757; stroke:none;" d="M171 140L172 141L171 140z"/>
<path style="fill:#1f2b50; stroke:none;" d="M44 141L45 142L44 141M172 141L173 142L172 141z"/>
<path style="fill:#010101; stroke:none;" d="M44 142L45 143L44 142z"/>
<path style="fill:#1f2b50; stroke:none;" d="M211 142L212 143L211 142z"/>
<path style="fill:#045757; stroke:none;" d="M170 144L171 145L170 144z"/>
<path style="fill:#010101; stroke:none;" d="M204 144L205 145L204 144z"/>
<path style="fill:#1f2b50; stroke:none;" d="M202 145L203 146L202 145z"/>
<path style="fill:#010101; stroke:none;" d="M45 146L46 147L45 146z"/>
<path style="fill:#1f2b50; stroke:none;" d="M124 147L125 148L124 147M141 147L142 148L141 147z"/>
<path style="fill:#045757; stroke:none;" d="M184 147L185 148L184 147z"/>
<path style="fill:#1f2b50; stroke:none;" d="M174 148L175 149L174 148z"/>
<path style="fill:#010101; stroke:none;" d="M203 148L204 149L203 148z"/>
<path style="fill:#045757; stroke:none;" d="M92 149L93 150L92 149M46 150L47 151L46 150z"/>
<path style="fill:#1f2b50; stroke:none;" d="M206 150L207 151L206 150M91 152L92 153L91 152z"/>
<path style="fill:#045757; stroke:none;" d="M149 152L150 153L149 152z"/>
<path style="fill:#010101; stroke:none;" d="M47 153L48 154L47 153z"/>
<path style="fill:#045757; stroke:none;" d="M49 153L50 154L49 153z"/>
<path style="fill:#010101; stroke:none;" d="M201 154L202 155L201 154z"/>
<path style="fill:#1f2b50; stroke:none;" d="M41 155L42 156L41 155M138 155L139 156L138 155M48 156L49 157L48 156M159 157L160 158L159 157M47 158L48 159L47 158z"/>
<path style="fill:#045757; stroke:none;" d="M49 158L50 159L49 158M51 158L52 159L51 158z"/>
<path style="fill:#1f2b50; stroke:none;" d="M106 158L107 159L106 158M145 158L146 159L145 158M78 159L79 160L78 159M143 159L144 160L143 159z"/>
<path style="fill:#010101; stroke:none;" d="M199 159L200 160L199 159z"/>
<path style="fill:#1f2b50; stroke:none;" d="M46 160L47 161L46 160M50 160L51 161L50 160M105 160L106 161L105 160M160 161L161 162L160 161M54 162L55 163L54 162M70 162L71 163L70 162M126 162L127 163L126 162M73 163L74 164L73 163M103 163L104 164L103 163z"/>
<path style="fill:#045757; stroke:none;" d="M125 163L126 164L125 163z"/>
<path style="fill:#1f2b50; stroke:none;" d="M63 165L64 166L63 165M161 165L162 166L161 165M96 166L97 167L96 166M48 170L49 171L48 170z"/>
<path style="fill:#045757; stroke:none;" d="M197 170L198 171L197 170z"/>
<path style="fill:#1f2b50; stroke:none;" d="M52 171L53 172L52 171M96 171L97 172L96 171M117 172L118 173L117 172M123 172L124 173L123 172M116 173L117 174L116 173M54 174L55 175L54 174z"/>
<path style="fill:#045757; stroke:none;" d="M57 178L58 179L57 178z"/>
<path style="fill:#1f2b50; stroke:none;" d="M118 178L119 179L118 178M190 180L191 181L190 180z"/>
<path style="fill:#045757; stroke:none;" d="M189 181L190 182L189 181z"/>
<path style="fill:#1f2b50; stroke:none;" d="M58 184L59 185L58 184M62 184L63 185L62 184z"/>
<path style="fill:#ff0101; stroke:none;" d="M88 184L89 185L88 184z"/>
<path style="fill:#1f2b50; stroke:none;" d="M105 187L106 188L105 187M66 188L67 189L66 188M109 189L110 190L109 189M65 191L66 192L65 191M66 192L67 193L66 192M98 196L99 197L98 196M171 197L172 198L171 197M100 200L101 201L100 200M166 200L167 201L166 200z"/>
<path style="fill:#045757; stroke:none;" d="M164 201L165 202L164 201z"/>
<path style="fill:#1f2b50; stroke:none;" d="M170 201L171 202L170 201M156 208L157 209L156 208z"/>
<path style="fill:#045757; stroke:none;" d="M142 209L143 210L142 209z"/>
<path style="fill:#1f2b50; stroke:none;" d="M153 209L154 210L153 209M137 210L138 211L137 210M102 211L103 212L102 211M142 212L143 213L142 212z"/>
</svg>
