<svg width="298" height="41" viewBox="0 0 298 41" fill="none" xmlns="http://www.w3.org/2000/svg">
<path d="M0 7.5C0 3.35786 3.35786 0 7.5 0H274.729C276.815 0 278.806 0.868364 280.225 2.39662L292.644 15.7705C295.364 18.6998 295.309 23.2475 292.518 26.1096L280.208 38.7358C278.796 40.1835 276.86 41 274.838 41H7.5C3.35787 41 0 37.6421 0 33.5V7.5Z" fill="#DEF4FD"/>
<path d="M46.62 15.228V25H44.66V18.644L42.042 25H40.558L37.926 18.644V25H35.966V15.228H38.192L41.3 22.494L44.408 15.228H46.62ZM55.7678 20.954C55.7678 21.234 55.7491 21.486 55.7118 21.71H50.0418C50.0885 22.27 50.2845 22.7087 50.6298 23.026C50.9751 23.3433 51.3998 23.502 51.9038 23.502C52.6318 23.502 53.1498 23.1893 53.4578 22.564H55.5718C55.3478 23.3107 54.9185 23.9267 54.2838 24.412C53.6491 24.888 52.8698 25.126 51.9458 25.126C51.1991 25.126 50.5271 24.9627 49.9298 24.636C49.3418 24.3 48.8798 23.8287 48.5438 23.222C48.2171 22.6153 48.0538 21.9153 48.0538 21.122C48.0538 20.3193 48.2171 19.6147 48.5438 19.008C48.8705 18.4013 49.3278 17.9347 49.9158 17.608C50.5038 17.2813 51.1805 17.118 51.9458 17.118C52.6831 17.118 53.3411 17.2767 53.9198 17.594C54.5078 17.9113 54.9605 18.364 55.2778 18.952C55.6045 19.5307 55.7678 20.198 55.7678 20.954ZM53.7378 20.394C53.7285 19.89 53.5465 19.4887 53.1918 19.19C52.8371 18.882 52.4031 18.728 51.8898 18.728C51.4045 18.728 50.9938 18.8773 50.6578 19.176C50.3311 19.4653 50.1305 19.8713 50.0558 20.394H53.7378ZM60.1664 25.126C59.5318 25.126 58.9624 25.014 58.4584 24.79C57.9544 24.5567 57.5531 24.244 57.2544 23.852C56.9651 23.46 56.8064 23.026 56.7784 22.55H58.7524C58.7898 22.8487 58.9344 23.096 59.1864 23.292C59.4478 23.488 59.7698 23.586 60.1524 23.586C60.5258 23.586 60.8151 23.5113 61.0204 23.362C61.2351 23.2127 61.3424 23.0213 61.3424 22.788C61.3424 22.536 61.2118 22.3493 60.9504 22.228C60.6984 22.0973 60.2924 21.9573 59.7324 21.808C59.1538 21.668 58.6778 21.5233 58.3044 21.374C57.9404 21.2247 57.6231 20.996 57.3524 20.688C57.0911 20.38 56.9604 19.9647 56.9604 19.442C56.9604 19.0127 57.0818 18.6207 57.3244 18.266C57.5764 17.9113 57.9311 17.6313 58.3884 17.426C58.8551 17.2207 59.4011 17.118 60.0264 17.118C60.9504 17.118 61.6878 17.3513 62.2384 17.818C62.7891 18.2753 63.0924 18.896 63.1484 19.68H61.2724C61.2444 19.372 61.1138 19.1293 60.8804 18.952C60.6564 18.7653 60.3531 18.672 59.9704 18.672C59.6158 18.672 59.3404 18.7373 59.1444 18.868C58.9578 18.9987 58.8644 19.1807 58.8644 19.414C58.8644 19.6753 58.9951 19.876 59.2564 20.016C59.5178 20.1467 59.9238 20.282 60.4744 20.422C61.0344 20.562 61.4964 20.7067 61.8604 20.856C62.2244 21.0053 62.5371 21.2387 62.7984 21.556C63.0691 21.864 63.2091 22.2747 63.2184 22.788C63.2184 23.236 63.0924 23.6373 62.8404 23.992C62.5978 24.3467 62.2431 24.6267 61.7764 24.832C61.3191 25.028 60.7824 25.126 60.1664 25.126ZM67.7953 25.126C67.1607 25.126 66.5913 25.014 66.0873 24.79C65.5833 24.5567 65.182 24.244 64.8833 23.852C64.594 23.46 64.4353 23.026 64.4073 22.55H66.3813C66.4187 22.8487 66.5633 23.096 66.8153 23.292C67.0767 23.488 67.3987 23.586 67.7813 23.586C68.1547 23.586 68.444 23.5113 68.6493 23.362C68.864 23.2127 68.9713 23.0213 68.9713 22.788C68.9713 22.536 68.8407 22.3493 68.5793 22.228C68.3273 22.0973 67.9213 21.9573 67.3613 21.808C66.7827 21.668 66.3067 21.5233 65.9333 21.374C65.5693 21.2247 65.252 20.996 64.9813 20.688C64.72 20.38 64.5893 19.9647 64.5893 19.442C64.5893 19.0127 64.7107 18.6207 64.9533 18.266C65.2053 17.9113 65.56 17.6313 66.0173 17.426C66.484 17.2207 67.03 17.118 67.6553 17.118C68.5793 17.118 69.3167 17.3513 69.8673 17.818C70.418 18.2753 70.7213 18.896 70.7773 19.68H68.9013C68.8733 19.372 68.7427 19.1293 68.5093 18.952C68.2853 18.7653 67.982 18.672 67.5993 18.672C67.2447 18.672 66.9693 18.7373 66.7733 18.868C66.5867 18.9987 66.4933 19.1807 66.4933 19.414C66.4933 19.6753 66.624 19.876 66.8853 20.016C67.1467 20.1467 67.5527 20.282 68.1033 20.422C68.6633 20.562 69.1253 20.7067 69.4893 20.856C69.8533 21.0053 70.166 21.2387 70.4273 21.556C70.698 21.864 70.838 22.2747 70.8473 22.788C70.8473 23.236 70.7213 23.6373 70.4693 23.992C70.2267 24.3467 69.872 24.6267 69.4053 24.832C68.948 25.028 68.4113 25.126 67.7953 25.126ZM71.9522 21.094C71.9522 20.31 72.1062 19.6147 72.4142 19.008C72.7316 18.4013 73.1562 17.9347 73.6882 17.608C74.2296 17.2813 74.8316 17.118 75.4942 17.118C76.0729 17.118 76.5769 17.2347 77.0062 17.468C77.4449 17.7013 77.7949 17.9953 78.0562 18.35V17.244H80.0302V25H78.0562V23.866C77.8042 24.23 77.4542 24.5333 77.0062 24.776C76.5676 25.0093 76.0589 25.126 75.4802 25.126C74.8269 25.126 74.2296 24.958 73.6882 24.622C73.1562 24.286 72.7316 23.8147 72.4142 23.208C72.1062 22.592 71.9522 21.8873 71.9522 21.094ZM78.0562 21.122C78.0562 20.646 77.9629 20.24 77.7762 19.904C77.5896 19.5587 77.3376 19.2973 77.0202 19.12C76.7029 18.9333 76.3622 18.84 75.9982 18.84C75.6342 18.84 75.2982 18.9287 74.9902 19.106C74.6822 19.2833 74.4302 19.5447 74.2342 19.89C74.0476 20.226 73.9542 20.6273 73.9542 21.094C73.9542 21.5607 74.0476 21.9713 74.2342 22.326C74.4302 22.6713 74.6822 22.9373 74.9902 23.124C75.3076 23.3107 75.6436 23.404 75.9982 23.404C76.3622 23.404 76.7029 23.3153 77.0202 23.138C77.3376 22.9513 77.5896 22.69 77.7762 22.354C77.9629 22.0087 78.0562 21.598 78.0562 21.122ZM84.9825 17.118C85.5612 17.118 86.0698 17.2347 86.5085 17.468C86.9472 17.692 87.2925 17.986 87.5445 18.35V17.244H89.5185V25.056C89.5185 25.7747 89.3738 26.414 89.0845 26.974C88.7952 27.5433 88.3612 27.9913 87.7825 28.318C87.2038 28.654 86.5038 28.822 85.6825 28.822C84.5812 28.822 83.6758 28.5653 82.9665 28.052C82.2665 27.5387 81.8698 26.8387 81.7765 25.952H83.7225C83.8252 26.3067 84.0445 26.5867 84.3805 26.792C84.7258 27.0067 85.1412 27.114 85.6265 27.114C86.1958 27.114 86.6578 26.9413 87.0125 26.596C87.3672 26.26 87.5445 25.7467 87.5445 25.056V23.852C87.2925 24.216 86.9425 24.5193 86.4945 24.762C86.0558 25.0047 85.5518 25.126 84.9825 25.126C84.3292 25.126 83.7318 24.958 83.1905 24.622C82.6492 24.286 82.2198 23.8147 81.9025 23.208C81.5945 22.592 81.4405 21.8873 81.4405 21.094C81.4405 20.31 81.5945 19.6147 81.9025 19.008C82.2198 18.4013 82.6445 17.9347 83.1765 17.608C83.7178 17.2813 84.3198 17.118 84.9825 17.118ZM87.5445 21.122C87.5445 20.646 87.4512 20.24 87.2645 19.904C87.0778 19.5587 86.8258 19.2973 86.5085 19.12C86.1912 18.9333 85.8505 18.84 85.4865 18.84C85.1225 18.84 84.7865 18.9287 84.4785 19.106C84.1705 19.2833 83.9185 19.5447 83.7225 19.89C83.5358 20.226 83.4425 20.6273 83.4425 21.094C83.4425 21.5607 83.5358 21.9713 83.7225 22.326C83.9185 22.6713 84.1705 22.9373 84.4785 23.124C84.7958 23.3107 85.1318 23.404 85.4865 23.404C85.8505 23.404 86.1912 23.3153 86.5085 23.138C86.8258 22.9513 87.0778 22.69 87.2645 22.354C87.4512 22.0087 87.5445 21.598 87.5445 21.122ZM98.6428 20.954C98.6428 21.234 98.6241 21.486 98.5868 21.71H92.9168C92.9635 22.27 93.1595 22.7087 93.5048 23.026C93.8501 23.3433 94.2748 23.502 94.7788 23.502C95.5068 23.502 96.0248 23.1893 96.3328 22.564H98.4468C98.2228 23.3107 97.7935 23.9267 97.1588 24.412C96.5241 24.888 95.7448 25.126 94.8208 25.126C94.0741 25.126 93.4021 24.9627 92.8048 24.636C92.2168 24.3 91.7548 23.8287 91.4188 23.222C91.0921 22.6153 90.9288 21.9153 90.9288 21.122C90.9288 20.3193 91.0921 19.6147 91.4188 19.008C91.7455 18.4013 92.2028 17.9347 92.7908 17.608C93.3788 17.2813 94.0555 17.118 94.8208 17.118C95.5581 17.118 96.2161 17.2767 96.7948 17.594C97.3828 17.9113 97.8355 18.364 98.1528 18.952C98.4795 19.5307 98.6428 20.198 98.6428 20.954ZM96.6128 20.394C96.6035 19.89 96.4215 19.4887 96.0668 19.19C95.7121 18.882 95.2781 18.728 94.7648 18.728C94.2795 18.728 93.8688 18.8773 93.5328 19.176C93.2061 19.4653 93.0055 19.8713 92.9308 20.394H96.6128Z" fill="#33CCEE"/>
<path d="M115.973 18.577C115.973 19.215 115.753 19.7467 115.313 20.172C114.88 20.59 114.217 20.799 113.322 20.799H111.848V24H110.847V16.333H113.322C114.187 16.333 114.844 16.542 115.291 16.96C115.746 17.378 115.973 17.917 115.973 18.577ZM113.322 19.974C113.879 19.974 114.29 19.853 114.554 19.611C114.818 19.369 114.95 19.0243 114.95 18.577C114.95 17.631 114.407 17.158 113.322 17.158H111.848V19.974H113.322ZM118.218 15.86V24H117.217V15.86H118.218ZM125.424 20.755C125.424 20.9457 125.413 21.1473 125.391 21.36H120.573C120.61 21.954 120.811 22.4197 121.178 22.757C121.552 23.087 122.003 23.252 122.531 23.252C122.964 23.252 123.323 23.153 123.609 22.955C123.902 22.7497 124.108 22.4783 124.225 22.141H125.303C125.142 22.7203 124.819 23.1933 124.335 23.56C123.851 23.9193 123.25 24.099 122.531 24.099C121.959 24.099 121.446 23.9707 120.991 23.714C120.544 23.4573 120.192 23.0943 119.935 22.625C119.678 22.1483 119.55 21.5983 119.55 20.975C119.55 20.3517 119.675 19.8053 119.924 19.336C120.173 18.8667 120.522 18.5073 120.969 18.258C121.424 18.0013 121.944 17.873 122.531 17.873C123.103 17.873 123.609 17.9977 124.049 18.247C124.489 18.4963 124.826 18.841 125.061 19.281C125.303 19.7137 125.424 20.205 125.424 20.755ZM124.39 20.546C124.39 20.1647 124.306 19.8383 124.137 19.567C123.968 19.2883 123.737 19.0793 123.444 18.94C123.158 18.7933 122.839 18.72 122.487 18.72C121.981 18.72 121.548 18.8813 121.189 19.204C120.837 19.5267 120.635 19.974 120.584 20.546H124.39ZM126.371 20.964C126.371 20.348 126.496 19.809 126.745 19.347C126.995 18.8777 127.336 18.5147 127.768 18.258C128.208 18.0013 128.696 17.873 129.231 17.873C129.759 17.873 130.218 17.9867 130.606 18.214C130.995 18.4413 131.285 18.7273 131.475 19.072V17.972H132.487V24H131.475V22.878C131.277 23.23 130.98 23.5233 130.584 23.758C130.196 23.9853 129.741 24.099 129.22 24.099C128.685 24.099 128.201 23.967 127.768 23.703C127.336 23.439 126.995 23.0687 126.745 22.592C126.496 22.1153 126.371 21.5727 126.371 20.964ZM131.475 20.975C131.475 20.5203 131.384 20.1243 131.2 19.787C131.017 19.4497 130.768 19.193 130.452 19.017C130.144 18.8337 129.803 18.742 129.429 18.742C129.055 18.742 128.714 18.83 128.406 19.006C128.098 19.182 127.853 19.4387 127.669 19.776C127.486 20.1133 127.394 20.5093 127.394 20.964C127.394 21.426 127.486 21.8293 127.669 22.174C127.853 22.5113 128.098 22.7717 128.406 22.955C128.714 23.131 129.055 23.219 129.429 23.219C129.803 23.219 130.144 23.131 130.452 22.955C130.768 22.7717 131.017 22.5113 131.2 22.174C131.384 21.8293 131.475 21.4297 131.475 20.975ZM136.313 24.099C135.851 24.099 135.437 24.022 135.07 23.868C134.703 23.7067 134.414 23.4867 134.201 23.208C133.988 22.922 133.871 22.5957 133.849 22.229H134.883C134.912 22.5297 135.052 22.7753 135.301 22.966C135.558 23.1567 135.891 23.252 136.302 23.252C136.683 23.252 136.984 23.1677 137.204 22.999C137.424 22.8303 137.534 22.6177 137.534 22.361C137.534 22.097 137.417 21.9027 137.182 21.778C136.947 21.646 136.584 21.5177 136.093 21.393C135.646 21.2757 135.279 21.1583 134.993 21.041C134.714 20.9163 134.472 20.7367 134.267 20.502C134.069 20.26 133.97 19.9447 133.97 19.556C133.97 19.248 134.062 18.9657 134.245 18.709C134.428 18.4523 134.689 18.2507 135.026 18.104C135.363 17.95 135.748 17.873 136.181 17.873C136.848 17.873 137.387 18.0417 137.798 18.379C138.209 18.7163 138.429 19.1783 138.458 19.765H137.457C137.435 19.4497 137.307 19.1967 137.072 19.006C136.845 18.8153 136.537 18.72 136.148 18.72C135.789 18.72 135.503 18.797 135.29 18.951C135.077 19.105 134.971 19.3067 134.971 19.556C134.971 19.754 135.033 19.919 135.158 20.051C135.29 20.1757 135.451 20.2783 135.642 20.359C135.84 20.4323 136.111 20.5167 136.456 20.612C136.889 20.7293 137.241 20.8467 137.512 20.964C137.783 21.074 138.014 21.2427 138.205 21.47C138.403 21.6973 138.506 21.9943 138.513 22.361C138.513 22.691 138.421 22.988 138.238 23.252C138.055 23.516 137.794 23.725 137.457 23.879C137.127 24.0257 136.746 24.099 136.313 24.099ZM145.426 20.755C145.426 20.9457 145.415 21.1473 145.393 21.36H140.575C140.612 21.954 140.813 22.4197 141.18 22.757C141.554 23.087 142.005 23.252 142.533 23.252C142.966 23.252 143.325 23.153 143.611 22.955C143.904 22.7497 144.11 22.4783 144.227 22.141H145.305C145.144 22.7203 144.821 23.1933 144.337 23.56C143.853 23.9193 143.252 24.099 142.533 24.099C141.961 24.099 141.448 23.9707 140.993 23.714C140.546 23.4573 140.194 23.0943 139.937 22.625C139.68 22.1483 139.552 21.5983 139.552 20.975C139.552 20.3517 139.677 19.8053 139.926 19.336C140.175 18.8667 140.524 18.5073 140.971 18.258C141.426 18.0013 141.946 17.873 142.533 17.873C143.105 17.873 143.611 17.9977 144.051 18.247C144.491 18.4963 144.828 18.841 145.063 19.281C145.305 19.7137 145.426 20.205 145.426 20.755ZM144.392 20.546C144.392 20.1647 144.308 19.8383 144.139 19.567C143.97 19.2883 143.739 19.0793 143.446 18.94C143.16 18.7933 142.841 18.72 142.489 18.72C141.983 18.72 141.55 18.8813 141.191 19.204C140.839 19.5267 140.637 19.974 140.586 20.546H144.392ZM149.306 20.161C149.306 19.413 149.475 18.742 149.812 18.148C150.149 17.5467 150.608 17.0773 151.187 16.74C151.774 16.4027 152.423 16.234 153.134 16.234C153.97 16.234 154.7 16.4357 155.323 16.839C155.946 17.2423 156.401 17.8143 156.687 18.555H155.488C155.275 18.093 154.967 17.7373 154.564 17.488C154.168 17.2387 153.691 17.114 153.134 17.114C152.599 17.114 152.118 17.2387 151.693 17.488C151.268 17.7373 150.934 18.093 150.692 18.555C150.45 19.0097 150.329 19.545 150.329 20.161C150.329 20.7697 150.45 21.305 150.692 21.767C150.934 22.2217 151.268 22.5737 151.693 22.823C152.118 23.0723 152.599 23.197 153.134 23.197C153.691 23.197 154.168 23.076 154.564 22.834C154.967 22.5847 155.275 22.229 155.488 21.767H156.687C156.401 22.5003 155.946 23.0687 155.323 23.472C154.7 23.868 153.97 24.066 153.134 24.066C152.423 24.066 151.774 23.901 151.187 23.571C150.608 23.2337 150.149 22.768 149.812 22.174C149.475 21.58 149.306 20.909 149.306 20.161ZM161.169 17.862C161.624 17.862 162.034 17.961 162.401 18.159C162.768 18.3497 163.054 18.6393 163.259 19.028C163.472 19.4167 163.578 19.8897 163.578 20.447V24H162.588V20.59C162.588 19.9887 162.438 19.5303 162.137 19.215C161.836 18.8923 161.426 18.731 160.905 18.731C160.377 18.731 159.955 18.896 159.64 19.226C159.332 19.556 159.178 20.0363 159.178 20.667V24H158.177V15.86H159.178V18.83C159.376 18.522 159.647 18.2837 159.992 18.115C160.344 17.9463 160.736 17.862 161.169 17.862ZM167.842 24.099C167.278 24.099 166.764 23.9707 166.302 23.714C165.848 23.4573 165.488 23.0943 165.224 22.625C164.968 22.1483 164.839 21.5983 164.839 20.975C164.839 20.359 164.971 19.8163 165.235 19.347C165.507 18.8703 165.873 18.5073 166.335 18.258C166.797 18.0013 167.314 17.873 167.886 17.873C168.458 17.873 168.975 18.0013 169.437 18.258C169.899 18.5073 170.262 18.8667 170.526 19.336C170.798 19.8053 170.933 20.3517 170.933 20.975C170.933 21.5983 170.794 22.1483 170.515 22.625C170.244 23.0943 169.874 23.4573 169.404 23.714C168.935 23.9707 168.414 24.099 167.842 24.099ZM167.842 23.219C168.202 23.219 168.539 23.1347 168.854 22.966C169.17 22.7973 169.423 22.5443 169.613 22.207C169.811 21.8697 169.91 21.459 169.91 20.975C169.91 20.491 169.815 20.0803 169.624 19.743C169.434 19.4057 169.184 19.1563 168.876 18.995C168.568 18.8263 168.235 18.742 167.875 18.742C167.509 18.742 167.171 18.8263 166.863 18.995C166.563 19.1563 166.321 19.4057 166.137 19.743C165.954 20.0803 165.862 20.491 165.862 20.975C165.862 21.4663 165.95 21.8807 166.126 22.218C166.31 22.5553 166.552 22.8083 166.852 22.977C167.153 23.1383 167.483 23.219 167.842 23.219ZM174.878 24.099C174.314 24.099 173.8 23.9707 173.338 23.714C172.884 23.4573 172.524 23.0943 172.26 22.625C172.004 22.1483 171.875 21.5983 171.875 20.975C171.875 20.359 172.007 19.8163 172.271 19.347C172.543 18.8703 172.909 18.5073 173.371 18.258C173.833 18.0013 174.35 17.873 174.922 17.873C175.494 17.873 176.011 18.0013 176.473 18.258C176.935 18.5073 177.298 18.8667 177.562 19.336C177.834 19.8053 177.969 20.3517 177.969 20.975C177.969 21.5983 177.83 22.1483 177.551 22.625C177.28 23.0943 176.91 23.4573 176.44 23.714C175.971 23.9707 175.45 24.099 174.878 24.099ZM174.878 23.219C175.238 23.219 175.575 23.1347 175.89 22.966C176.206 22.7973 176.459 22.5443 176.649 22.207C176.847 21.8697 176.946 21.459 176.946 20.975C176.946 20.491 176.851 20.0803 176.66 19.743C176.47 19.4057 176.22 19.1563 175.912 18.995C175.604 18.8263 175.271 18.742 174.911 18.742C174.545 18.742 174.207 18.8263 173.899 18.995C173.599 19.1563 173.357 19.4057 173.173 19.743C172.99 20.0803 172.898 20.491 172.898 20.975C172.898 21.4663 172.986 21.8807 173.162 22.218C173.346 22.5553 173.588 22.8083 173.888 22.977C174.189 23.1383 174.519 23.219 174.878 23.219ZM181.419 24.099C180.957 24.099 180.543 24.022 180.176 23.868C179.81 23.7067 179.52 23.4867 179.307 23.208C179.095 22.922 178.977 22.5957 178.955 22.229H179.989C180.019 22.5297 180.158 22.7753 180.407 22.966C180.664 23.1567 180.998 23.252 181.408 23.252C181.79 23.252 182.09 23.1677 182.31 22.999C182.53 22.8303 182.64 22.6177 182.64 22.361C182.64 22.097 182.523 21.9027 182.288 21.778C182.054 21.646 181.691 21.5177 181.199 21.393C180.752 21.2757 180.385 21.1583 180.099 21.041C179.821 20.9163 179.579 20.7367 179.373 20.502C179.175 20.26 179.076 19.9447 179.076 19.556C179.076 19.248 179.168 18.9657 179.351 18.709C179.535 18.4523 179.795 18.2507 180.132 18.104C180.47 17.95 180.855 17.873 181.287 17.873C181.955 17.873 182.494 18.0417 182.904 18.379C183.315 18.7163 183.535 19.1783 183.564 19.765H182.563C182.541 19.4497 182.413 19.1967 182.178 19.006C181.951 18.8153 181.643 18.72 181.254 18.72C180.895 18.72 180.609 18.797 180.396 18.951C180.184 19.105 180.077 19.3067 180.077 19.556C180.077 19.754 180.14 19.919 180.264 20.051C180.396 20.1757 180.558 20.2783 180.748 20.359C180.946 20.4323 181.218 20.5167 181.562 20.612C181.995 20.7293 182.347 20.8467 182.618 20.964C182.89 21.074 183.121 21.2427 183.311 21.47C183.509 21.6973 183.612 21.9943 183.619 22.361C183.619 22.691 183.528 22.988 183.344 23.252C183.161 23.516 182.901 23.725 182.563 23.879C182.233 24.0257 181.852 24.099 181.419 24.099ZM190.533 20.755C190.533 20.9457 190.522 21.1473 190.5 21.36H185.682C185.718 21.954 185.92 22.4197 186.287 22.757C186.661 23.087 187.112 23.252 187.64 23.252C188.072 23.252 188.432 23.153 188.718 22.955C189.011 22.7497 189.216 22.4783 189.334 22.141H190.412C190.25 22.7203 189.928 23.1933 189.444 23.56C188.96 23.9193 188.358 24.099 187.64 24.099C187.068 24.099 186.554 23.9707 186.1 23.714C185.652 23.4573 185.3 23.0943 185.044 22.625C184.787 22.1483 184.659 21.5983 184.659 20.975C184.659 20.3517 184.783 19.8053 185.033 19.336C185.282 18.8667 185.63 18.5073 186.078 18.258C186.532 18.0013 187.053 17.873 187.64 17.873C188.212 17.873 188.718 17.9977 189.158 18.247C189.598 18.4963 189.935 18.841 190.17 19.281C190.412 19.7137 190.533 20.205 190.533 20.755ZM189.499 20.546C189.499 20.1647 189.414 19.8383 189.246 19.567C189.077 19.2883 188.846 19.0793 188.553 18.94C188.267 18.7933 187.948 18.72 187.596 18.72C187.09 18.72 186.657 18.8813 186.298 19.204C185.946 19.5267 185.744 19.974 185.693 20.546H189.499ZM199.505 16.333V17.147H197.415V24H196.414V17.147H194.313V16.333H199.505ZM203.73 17.862C204.184 17.862 204.595 17.961 204.962 18.159C205.328 18.3497 205.614 18.6393 205.82 19.028C206.032 19.4167 206.139 19.8897 206.139 20.447V24H205.149V20.59C205.149 19.9887 204.998 19.5303 204.698 19.215C204.397 18.8923 203.986 18.731 203.466 18.731C202.938 18.731 202.516 18.896 202.201 19.226C201.893 19.556 201.739 20.0363 201.739 20.667V24H200.738V15.86H201.739V18.83C201.937 18.522 202.208 18.2837 202.553 18.115C202.905 17.9463 203.297 17.862 203.73 17.862ZM213.274 20.755C213.274 20.9457 213.263 21.1473 213.241 21.36H208.423C208.459 21.954 208.661 22.4197 209.028 22.757C209.402 23.087 209.853 23.252 210.381 23.252C210.813 23.252 211.173 23.153 211.459 22.955C211.752 22.7497 211.957 22.4783 212.075 22.141H213.153C212.991 22.7203 212.669 23.1933 212.185 23.56C211.701 23.9193 211.099 24.099 210.381 24.099C209.809 24.099 209.295 23.9707 208.841 23.714C208.393 23.4573 208.041 23.0943 207.785 22.625C207.528 22.1483 207.4 21.5983 207.4 20.975C207.4 20.3517 207.524 19.8053 207.774 19.336C208.023 18.8667 208.371 18.5073 208.819 18.258C209.273 18.0013 209.794 17.873 210.381 17.873C210.953 17.873 211.459 17.9977 211.899 18.247C212.339 18.4963 212.676 18.841 212.911 19.281C213.153 19.7137 213.274 20.205 213.274 20.755ZM212.24 20.546C212.24 20.1647 212.155 19.8383 211.987 19.567C211.818 19.2883 211.587 19.0793 211.294 18.94C211.008 18.7933 210.689 18.72 210.337 18.72C209.831 18.72 209.398 18.8813 209.039 19.204C208.687 19.5267 208.485 19.974 208.434 20.546H212.24ZM219.915 16.333C220.751 16.333 221.473 16.4907 222.082 16.806C222.698 17.114 223.167 17.5577 223.49 18.137C223.82 18.7163 223.985 19.3983 223.985 20.183C223.985 20.9677 223.82 21.6497 223.49 22.229C223.167 22.801 222.698 23.241 222.082 23.549C221.473 23.8497 220.751 24 219.915 24H217.528V16.333H219.915ZM219.915 23.175C220.905 23.175 221.66 22.9147 222.181 22.394C222.701 21.866 222.962 21.129 222.962 20.183C222.962 19.2297 222.698 18.4853 222.17 17.95C221.649 17.4147 220.897 17.147 219.915 17.147H218.529V23.175H219.915ZM224.931 20.964C224.931 20.348 225.056 19.809 225.305 19.347C225.554 18.8777 225.895 18.5147 226.328 18.258C226.768 18.0013 227.256 17.873 227.791 17.873C228.319 17.873 228.777 17.9867 229.166 18.214C229.555 18.4413 229.844 18.7273 230.035 19.072V17.972H231.047V24H230.035V22.878C229.837 23.23 229.54 23.5233 229.144 23.758C228.755 23.9853 228.301 24.099 227.78 24.099C227.245 24.099 226.761 23.967 226.328 23.703C225.895 23.439 225.554 23.0687 225.305 22.592C225.056 22.1153 224.931 21.5727 224.931 20.964ZM230.035 20.975C230.035 20.5203 229.943 20.1243 229.76 19.787C229.577 19.4497 229.327 19.193 229.012 19.017C228.704 18.8337 228.363 18.742 227.989 18.742C227.615 18.742 227.274 18.83 226.966 19.006C226.658 19.182 226.412 19.4387 226.229 19.776C226.046 20.1133 225.954 20.5093 225.954 20.964C225.954 21.426 226.046 21.8293 226.229 22.174C226.412 22.5113 226.658 22.7717 226.966 22.955C227.274 23.131 227.615 23.219 227.989 23.219C228.363 23.219 228.704 23.131 229.012 22.955C229.327 22.7717 229.577 22.5113 229.76 22.174C229.943 21.8293 230.035 21.4297 230.035 20.975ZM233.96 18.797V22.35C233.96 22.6433 234.022 22.8523 234.147 22.977C234.271 23.0943 234.488 23.153 234.796 23.153H235.533V24H234.631C234.073 24 233.655 23.8717 233.377 23.615C233.098 23.3583 232.959 22.9367 232.959 22.35V18.797H232.178V17.972H232.959V16.454H233.96V17.972H235.533V18.797H233.96ZM242.245 20.755C242.245 20.9457 242.234 21.1473 242.212 21.36H237.394C237.431 21.954 237.633 22.4197 237.999 22.757C238.373 23.087 238.824 23.252 239.352 23.252C239.785 23.252 240.144 23.153 240.43 22.955C240.724 22.7497 240.929 22.4783 241.046 22.141H242.124C241.963 22.7203 241.64 23.1933 241.156 23.56C240.672 23.9193 240.071 24.099 239.352 24.099C238.78 24.099 238.267 23.9707 237.812 23.714C237.365 23.4573 237.013 23.0943 236.756 22.625C236.5 22.1483 236.371 21.5983 236.371 20.975C236.371 20.3517 236.496 19.8053 236.745 19.336C236.995 18.8667 237.343 18.5073 237.79 18.258C238.245 18.0013 238.766 17.873 239.352 17.873C239.924 17.873 240.43 17.9977 240.87 18.247C241.31 18.4963 241.648 18.841 241.882 19.281C242.124 19.7137 242.245 20.205 242.245 20.755ZM241.211 20.546C241.211 20.1647 241.127 19.8383 240.958 19.567C240.79 19.2883 240.559 19.0793 240.265 18.94C239.979 18.7933 239.66 18.72 239.308 18.72C238.802 18.72 238.37 18.8813 238.01 19.204C237.658 19.5267 237.457 19.974 237.405 20.546H241.211ZM250.833 16.333V17.147H247.5V19.732H250.206V20.546H247.5V24H246.499V16.333H250.833ZM252.559 16.993C252.369 16.993 252.207 16.927 252.075 16.795C251.943 16.663 251.877 16.5017 251.877 16.311C251.877 16.1203 251.943 15.959 252.075 15.827C252.207 15.695 252.369 15.629 252.559 15.629C252.743 15.629 252.897 15.695 253.021 15.827C253.153 15.959 253.219 16.1203 253.219 16.311C253.219 16.5017 253.153 16.663 253.021 16.795C252.897 16.927 252.743 16.993 252.559 16.993ZM253.043 17.972V24H252.042V17.972H253.043ZM255.75 18.951C255.926 18.6063 256.176 18.3387 256.498 18.148C256.828 17.9573 257.228 17.862 257.697 17.862V18.896H257.433C256.311 18.896 255.75 19.5047 255.75 20.722V24H254.749V17.972H255.75V18.951ZM260.987 24.099C260.525 24.099 260.111 24.022 259.744 23.868C259.377 23.7067 259.088 23.4867 258.875 23.208C258.662 22.922 258.545 22.5957 258.523 22.229H259.557C259.586 22.5297 259.726 22.7753 259.975 22.966C260.232 23.1567 260.565 23.252 260.976 23.252C261.357 23.252 261.658 23.1677 261.878 22.999C262.098 22.8303 262.208 22.6177 262.208 22.361C262.208 22.097 262.091 21.9027 261.856 21.778C261.621 21.646 261.258 21.5177 260.767 21.393C260.32 21.2757 259.953 21.1583 259.667 21.041C259.388 20.9163 259.146 20.7367 258.941 20.502C258.743 20.26 258.644 19.9447 258.644 19.556C258.644 19.248 258.736 18.9657 258.919 18.709C259.102 18.4523 259.363 18.2507 259.7 18.104C260.037 17.95 260.422 17.873 260.855 17.873C261.522 17.873 262.061 18.0417 262.472 18.379C262.883 18.7163 263.103 19.1783 263.132 19.765H262.131C262.109 19.4497 261.981 19.1967 261.746 19.006C261.519 18.8153 261.211 18.72 260.822 18.72C260.463 18.72 260.177 18.797 259.964 18.951C259.751 19.105 259.645 19.3067 259.645 19.556C259.645 19.754 259.707 19.919 259.832 20.051C259.964 20.1757 260.125 20.2783 260.316 20.359C260.514 20.4323 260.785 20.5167 261.13 20.612C261.563 20.7293 261.915 20.8467 262.186 20.964C262.457 21.074 262.688 21.2427 262.879 21.47C263.077 21.6973 263.18 21.9943 263.187 22.361C263.187 22.691 263.095 22.988 262.912 23.252C262.729 23.516 262.468 23.725 262.131 23.879C261.801 24.0257 261.42 24.099 260.987 24.099ZM265.821 18.797V22.35C265.821 22.6433 265.883 22.8523 266.008 22.977C266.133 23.0943 266.349 23.153 266.657 23.153H267.394V24H266.492C265.935 24 265.517 23.8717 265.238 23.615C264.959 23.3583 264.82 22.9367 264.82 22.35V18.797H264.039V17.972H264.82V16.454H265.821V17.972H267.394V18.797H265.821Z" fill="#666666"/>
<path d="M20 11C14.4775 11 10 15.4792 10 21C10 26.5241 14.4775 31 20 31C25.5225 31 30 26.5241 30 21C30 15.4792 25.5225 11 20 11ZM20 15.4355C20.9353 15.4355 21.6935 16.1937 21.6935 17.129C21.6935 18.0644 20.9353 18.8226 20 18.8226C19.0647 18.8226 18.3065 18.0644 18.3065 17.129C18.3065 16.1937 19.0647 15.4355 20 15.4355ZM22.2581 25.6774C22.2581 25.9446 22.0414 26.1613 21.7742 26.1613H18.2258C17.9586 26.1613 17.7419 25.9446 17.7419 25.6774V24.7097C17.7419 24.4425 17.9586 24.2258 18.2258 24.2258H18.7097V21.6452H18.2258C17.9586 21.6452 17.7419 21.4285 17.7419 21.1613V20.1935C17.7419 19.9263 17.9586 19.7097 18.2258 19.7097H20.8065C21.0737 19.7097 21.2903 19.9263 21.2903 20.1935V24.2258H21.7742C22.0414 24.2258 22.2581 24.4425 22.2581 24.7097V25.6774Z" fill="#33CCEE"/>
</svg>
