<svg width="52" height="60" viewBox="0 0 52 60" fill="none" xmlns="http://www.w3.org/2000/svg">
<path d="M24.6808 0.818778C25.4884 0.317324 26.5106 0.317323 27.3182 0.818777L38.2682 7.61751L49.6311 13.7011C50.4692 14.1498 50.9802 15.035 50.9498 15.9852L50.5369 28.8675L50.9498 41.7498C50.9802 42.7 50.4692 43.5852 49.6311 44.0339L38.2682 50.1175L27.3182 56.9163C26.5106 57.4177 25.4884 57.4177 24.6808 56.9163L13.7308 50.1175L2.36795 44.0339C1.52986 43.5852 1.01878 42.7 1.04924 41.7498L1.46212 28.8675L1.04924 15.9852C1.01878 15.035 1.52986 14.1498 2.36795 13.7011L13.7308 7.61751L24.6808 0.818778Z" fill="#F5F8FF"/>
<g filter="url(#filter0_d_356_600)">
<path d="M24.6806 5.83929C25.4883 5.33783 26.5104 5.33783 27.3181 5.83929L36.1344 11.3132L45.2831 16.2114C46.1212 16.6601 46.6322 17.5453 46.6018 18.4955L46.2694 28.8676L46.6018 39.2397C46.6322 40.1899 46.1212 41.0751 45.2831 41.5238L36.1344 46.4219L27.3181 51.8959C26.5104 52.3973 25.4883 52.3973 24.6806 51.8959L15.8643 46.4219L6.71561 41.5238C5.87752 41.0751 5.36644 40.1899 5.39689 39.2397L5.72933 28.8676L5.39689 18.4955C5.36644 17.5453 5.87752 16.6601 6.71561 16.2114L15.8643 11.3132L24.6806 5.83929Z" fill="url(#paint0_linear_356_600)" style="mix-blend-mode:multiply" shape-rendering="crispEdges"/>
</g>
<path d="M32.7538 21.1696H30.8293V20.2074C30.8293 19.9522 30.7279 19.7074 30.5474 19.527C30.367 19.3465 30.1222 19.2451 29.867 19.2451C29.6118 19.2451 29.3671 19.3465 29.1866 19.527C29.0061 19.7074 28.9048 19.9522 28.9048 20.2074V21.1696H23.1313V20.2074C23.1313 19.9522 23.0299 19.7074 22.8494 19.527C22.669 19.3465 22.4242 19.2451 22.169 19.2451C21.9138 19.2451 21.6691 19.3465 21.4886 19.527C21.3081 19.7074 21.2068 19.9522 21.2068 20.2074V21.1696H19.2823C18.5166 21.1696 17.7824 21.4738 17.241 22.0151C16.6996 22.5565 16.3955 23.2908 16.3955 24.0564V35.6034C16.3955 36.369 16.6996 37.1032 17.241 37.6446C17.7824 38.186 18.5166 38.4901 19.2823 38.4901H32.7538C33.5194 38.4901 34.2536 38.186 34.795 37.6446C35.3364 37.1032 35.6405 36.369 35.6405 35.6034V24.0564C35.6405 23.2908 35.3364 22.5565 34.795 22.0151C34.2536 21.4738 33.5194 21.1696 32.7538 21.1696ZM33.716 35.6034C33.716 35.8586 33.6146 36.1033 33.4342 36.2838C33.2537 36.4642 33.009 36.5656 32.7538 36.5656H19.2823C19.0271 36.5656 18.7823 36.4642 18.6018 36.2838C18.4214 36.1033 18.32 35.8586 18.32 35.6034V28.8676H33.716V35.6034ZM33.716 26.9431H18.32V24.0564C18.32 23.8012 18.4214 23.5564 18.6018 23.376C18.7823 23.1955 19.0271 23.0941 19.2823 23.0941H21.2068V24.0564C21.2068 24.3116 21.3081 24.5563 21.4886 24.7368C21.6691 24.9172 21.9138 25.0186 22.169 25.0186C22.4242 25.0186 22.669 24.9172 22.8494 24.7368C23.0299 24.5563 23.1313 24.3116 23.1313 24.0564V23.0941H28.9048V24.0564C28.9048 24.3116 29.0061 24.5563 29.1866 24.7368C29.3671 24.9172 29.6118 25.0186 29.867 25.0186C30.1222 25.0186 30.367 24.9172 30.5474 24.7368C30.7279 24.5563 30.8293 24.3116 30.8293 24.0564V23.0941H32.7538C33.009 23.0941 33.2537 23.1955 33.4342 23.376C33.6146 23.5564 33.716 23.8012 33.716 24.0564V26.9431Z" fill="white"/>
<defs>
<filter id="filter0_d_356_600" x="0.395508" y="2.96289" width="51.2075" height="56.8096" filterUnits="userSpaceOnUse" color-interpolation-filters="sRGB">
<feFlood flood-opacity="0" result="BackgroundImageFix"/>
<feColorMatrix in="SourceAlpha" type="matrix" values="0 0 0 0 0 0 0 0 0 0 0 0 0 0 0 0 0 0 127 0" result="hardAlpha"/>
<feOffset dy="2.5"/>
<feGaussianBlur stdDeviation="2.5"/>
<feComposite in2="hardAlpha" operator="out"/>
<feColorMatrix type="matrix" values="0 0 0 0 0 0 0 0 0 0 0 0 0 0 0 0 0 0 0.25 0"/>
<feBlend mode="normal" in2="BackgroundImageFix" result="effect1_dropShadow_356_600"/>
<feBlend mode="normal" in="SourceGraphic" in2="effect1_dropShadow_356_600" result="shape"/>
</filter>
<linearGradient id="paint0_linear_356_600" x1="6.11271" y1="39.7918" x2="45.8857" y2="16.6978" gradientUnits="userSpaceOnUse">
<stop offset="0.109375" stop-color="#2C8095"/>
<stop offset="1" stop-color="#F5BBCE"/>
</linearGradient>
</defs>
</svg>
