<svg width="43" height="49" viewBox="0 0 43 49" fill="none" xmlns="http://www.w3.org/2000/svg">
<path d="M22.8038 44.1812C21.9962 44.6827 20.9741 44.6827 20.1664 44.1812L11.9226 39.0627L3.368 34.4827C2.52991 34.0339 2.01883 33.1487 2.04929 32.1986L2.36013 22.5L2.04929 12.8014C2.01883 11.8513 2.52991 10.9661 3.368 10.5173L11.9226 5.93726L20.1664 0.818775C20.9741 0.317322 21.9962 0.317322 22.8038 0.818775L31.0476 5.93726L39.6023 10.5173C40.4404 10.9661 40.9514 11.8513 40.921 12.8014L40.6101 22.5L40.921 32.1986C40.9514 33.1487 40.4404 34.0339 39.6023 34.4827L31.0476 39.0627L22.8038 44.1812Z" fill="#F5F8FF"/>
<g filter="url(#filter0_d_356_604)">
<path d="M22.804 40.2681C21.9963 40.7696 20.9742 40.7696 20.1665 40.2681L13.5858 36.1822L6.75692 32.5261C5.91883 32.0774 5.40775 31.1922 5.4382 30.242L5.68634 22.5L5.4382 14.7579C5.40775 13.8077 5.91883 12.9225 6.75692 12.4738L13.5858 8.8177L20.1665 4.73178C20.9742 4.23033 21.9963 4.23033 22.804 4.73178L29.3847 8.8177L36.2136 12.4738C37.0517 12.9225 37.5628 13.8077 37.5323 14.7579L37.2842 22.5L37.5323 30.242C37.5628 31.1922 37.0517 32.0774 36.2136 32.5261L29.3847 36.1822L22.804 40.2681Z" fill="url(#paint0_linear_356_604)" style="mix-blend-mode:multiply" shape-rendering="crispEdges"/>
</g>
<path d="M27 23.2729C27.3125 23.4731 27.5911 23.7002 27.8359 23.9541C28.0807 24.208 28.2917 24.4863 28.4688 24.7891C28.6458 25.0918 28.776 25.4116 28.8594 25.7485C28.9427 26.0854 28.9896 26.4297 29 26.7812C29 27.3623 28.8828 27.9092 28.6484 28.4219C28.4141 28.9346 28.0911 29.3813 27.6797 29.7622C27.2682 30.1431 26.7917 30.4434 26.25 30.6631C25.7083 30.8828 25.125 30.9951 24.5 31C24.026 31 23.5677 30.9341 23.125 30.8022C22.6823 30.6704 22.276 30.48 21.9062 30.231C21.5365 29.9819 21.2083 29.6841 20.9219 29.3374C20.6354 28.9907 20.4141 28.6074 20.2578 28.1875H14V16.9375H16V16H17V16.9375H24V16H25V16.9375H27V23.2729ZM15 17.875V19.75H26V17.875H25V18.8125H24V17.875H17V18.8125H16V17.875H15ZM20.0234 27.25C20.0078 27.0986 20 26.9424 20 26.7812C20 26.3613 20.0625 25.9536 20.1875 25.5581C20.3125 25.1626 20.5026 24.7891 20.7578 24.4375H20V23.5H21V24.1299C21.2135 23.8809 21.4505 23.6611 21.7109 23.4707C21.9714 23.2803 22.2526 23.1167 22.5547 22.98C22.8568 22.8433 23.1719 22.7407 23.5 22.6724C23.8281 22.604 24.1615 22.5674 24.5 22.5625C25.0208 22.5625 25.5208 22.6431 26 22.8042V20.6875H15V27.25H20.0234ZM24.5 30.0625C24.9844 30.0625 25.4375 29.9771 25.8594 29.8062C26.2812 29.6353 26.651 29.4009 26.9688 29.103C27.2865 28.8052 27.5365 28.4585 27.7188 28.063C27.901 27.6675 27.9948 27.2402 28 26.7812C28 26.3271 27.9089 25.9023 27.7266 25.5068C27.5443 25.1113 27.2943 24.7646 26.9766 24.4668C26.6589 24.1689 26.2891 23.9346 25.8672 23.7637C25.4453 23.5928 24.9896 23.5049 24.5 23.5C24.0156 23.5 23.5625 23.5854 23.1406 23.7563C22.7188 23.9272 22.349 24.1616 22.0312 24.4595C21.7135 24.7573 21.4635 25.104 21.2812 25.4995C21.099 25.895 21.0052 26.3223 21 26.7812C21 27.2354 21.0911 27.6602 21.2734 28.0557C21.4557 28.4512 21.7057 28.7979 22.0234 29.0957C22.3411 29.3936 22.7109 29.6279 23.1328 29.7988C23.5547 29.9697 24.0104 30.0576 24.5 30.0625ZM25 26.3125H26.5V27.25H24V24.4375H25V26.3125ZM16 23.5H17V24.4375H16V23.5ZM18 23.5H19V24.4375H18V23.5ZM18 21.625H19V22.5625H18V21.625ZM16 25.375H17V26.3125H16V25.375ZM18 25.375H19V26.3125H18V25.375ZM21 22.5625H20V21.625H21V22.5625ZM23 22.5625H22V21.625H23V22.5625ZM25 22.5625H24V21.625H25V22.5625Z" fill="white"/>
<defs>
<filter id="filter0_d_356_604" x="0.437012" y="1.85547" width="42.0967" height="46.2891" filterUnits="userSpaceOnUse" color-interpolation-filters="sRGB">
<feFlood flood-opacity="0" result="BackgroundImageFix"/>
<feColorMatrix in="SourceAlpha" type="matrix" values="0 0 0 0 0 0 0 0 0 0 0 0 0 0 0 0 0 0 127 0" result="hardAlpha"/>
<feOffset dy="2.5"/>
<feGaussianBlur stdDeviation="2.5"/>
<feComposite in2="hardAlpha" operator="out"/>
<feColorMatrix type="matrix" values="0 0 0 0 0 0 0 0 0 0 0 0 0 0 0 0 0 0 0.25 0"/>
<feBlend mode="normal" in2="BackgroundImageFix" result="effect1_dropShadow_356_604"/>
<feBlend mode="normal" in="SourceGraphic" in2="effect1_dropShadow_356_604" result="shape"/>
</filter>
<linearGradient id="paint0_linear_356_604" x1="5.9707" y1="31.9998" x2="36.9707" y2="13.9998" gradientUnits="userSpaceOnUse">
<stop offset="0.109375" stop-color="#2C8095"/>
<stop offset="1" stop-color="#F5BBCE"/>
</linearGradient>
</defs>
</svg>
