<svg width="43" height="49" viewBox="0 0 43 49" fill="none" xmlns="http://www.w3.org/2000/svg">
<path d="M22.8038 44.1812C21.9962 44.6827 20.9741 44.6827 20.1664 44.1812L11.9226 39.0627L3.368 34.4827C2.52991 34.0339 2.01883 33.1487 2.04929 32.1986L2.36013 22.5L2.04929 12.8014C2.01883 11.8513 2.52991 10.9661 3.368 10.5173L11.9226 5.93726L20.1664 0.818775C20.9741 0.317322 21.9962 0.317322 22.8038 0.818775L31.0476 5.93726L39.6023 10.5173C40.4404 10.9661 40.9514 11.8513 40.921 12.8014L40.6101 22.5L40.921 32.1986C40.9514 33.1487 40.4404 34.0339 39.6023 34.4827L31.0476 39.0627L22.8038 44.1812Z" fill="#F5F8FF"/>
<g filter="url(#filter0_d_408_364)">
<path d="M22.804 40.2681C21.9963 40.7696 20.9742 40.7696 20.1665 40.2681L13.5858 36.1822L6.75692 32.5261C5.91883 32.0774 5.40775 31.1922 5.4382 30.242L5.68634 22.5L5.4382 14.7579C5.40775 13.8077 5.91883 12.9225 6.75692 12.4738L13.5858 8.8177L20.1665 4.73178C20.9742 4.23033 21.9963 4.23033 22.804 4.73178L29.3847 8.8177L36.2136 12.4738C37.0517 12.9225 37.5628 13.8077 37.5323 14.7579L37.2842 22.5L37.5323 30.242C37.5628 31.1922 37.0517 32.0774 36.2136 32.5261L29.3847 36.1822L22.804 40.2681Z" fill="url(#paint0_linear_408_364)" style="mix-blend-mode:multiply" shape-rendering="crispEdges"/>
</g>
<path d="M21.4983 15C25.6397 15 28.9967 18.357 28.9967 22.4983C28.9967 26.6397 25.6397 29.9967 21.4983 29.9967C17.357 29.9967 14 26.6397 14 22.4983C14 18.357 17.357 15 21.4983 15ZM21.4908 20.9987H20.7485C20.5574 20.9989 20.3736 21.0721 20.2346 21.2033C20.0956 21.3344 20.012 21.5138 20.0008 21.7046C19.9896 21.8953 20.0517 22.0832 20.1743 22.2298C20.297 22.3763 20.471 22.4705 20.6608 22.4931L20.7485 22.4983V26.24C20.7485 26.6299 21.0439 26.9523 21.4233 26.9928L21.5058 26.9973H21.8732C22.0309 26.9973 22.1846 26.9476 22.3124 26.8552C22.4403 26.7629 22.5357 26.6326 22.5852 26.4828C22.6347 26.3331 22.6357 26.1716 22.5881 26.0212C22.5406 25.8709 22.4468 25.7394 22.3201 25.6454L22.2482 25.5981V21.756C22.2482 21.3661 21.9527 21.0437 21.5733 21.0032L21.4908 20.9987ZM21.4983 18.7492C21.2995 18.7492 21.1087 18.8282 20.9681 18.9688C20.8275 19.1094 20.7485 19.3001 20.7485 19.499C20.7485 19.6979 20.8275 19.8886 20.9681 20.0292C21.1087 20.1698 21.2995 20.2488 21.4983 20.2488C21.6972 20.2488 21.8879 20.1698 22.0285 20.0292C22.1692 19.8886 22.2482 19.6979 22.2482 19.499C22.2482 19.3001 22.1692 19.1094 22.0285 18.9688C21.8879 18.8282 21.6972 18.7492 21.4983 18.7492Z" fill="#F5F8FF"/>
<defs>
<filter id="filter0_d_408_364" x="0.437012" y="1.85547" width="42.0967" height="46.2891" filterUnits="userSpaceOnUse" color-interpolation-filters="sRGB">
<feFlood flood-opacity="0" result="BackgroundImageFix"/>
<feColorMatrix in="SourceAlpha" type="matrix" values="0 0 0 0 0 0 0 0 0 0 0 0 0 0 0 0 0 0 127 0" result="hardAlpha"/>
<feOffset dy="2.5"/>
<feGaussianBlur stdDeviation="2.5"/>
<feComposite in2="hardAlpha" operator="out"/>
<feColorMatrix type="matrix" values="0 0 0 0 0 0 0 0 0 0 0 0 0 0 0 0 0 0 0.25 0"/>
<feBlend mode="normal" in2="BackgroundImageFix" result="effect1_dropShadow_408_364"/>
<feBlend mode="normal" in="SourceGraphic" in2="effect1_dropShadow_408_364" result="shape"/>
</filter>
<linearGradient id="paint0_linear_408_364" x1="36.9854" y1="13.9854" x2="5.98535" y2="31.9853" gradientUnits="userSpaceOnUse">
<stop offset="0.109375" stop-color="#2C8095"/>
<stop offset="1" stop-color="#F5BBCE"/>
</linearGradient>
</defs>
</svg>
