<svg width="43" height="49" viewBox="0 0 43 49" fill="none" xmlns="http://www.w3.org/2000/svg">
<path d="M20.1664 0.818778C20.974 0.317324 21.9962 0.317323 22.8038 0.818777L31.0476 5.93726L39.6022 10.5173C40.4403 10.9661 40.9514 11.8513 40.9209 12.8014L40.6101 22.5L40.9209 32.1986C40.9514 33.1487 40.4403 34.0339 39.6022 34.4827L31.0476 39.0627L22.8038 44.1812C21.9962 44.6827 20.974 44.6827 20.1664 44.1812L11.9226 39.0627L3.36795 34.4827C2.52986 34.0339 2.01878 33.1487 2.04924 32.1986L2.36008 22.5L2.04924 12.8014C2.01878 11.8513 2.52986 10.9661 3.36795 10.5173L11.9226 5.93726L20.1664 0.818778Z" fill="#F5F8FF"/>
<g filter="url(#filter0_d_356_596)">
<path d="M20.1662 4.73186C20.9739 4.23041 21.996 4.23041 22.8037 4.73186L29.3844 8.81778L36.2133 12.4739C37.0514 12.9226 37.5625 13.8078 37.532 14.758L37.2839 22.5L37.532 30.2421C37.5625 31.1923 37.0514 32.0775 36.2133 32.5262L29.3844 36.1823L22.8037 40.2682C21.996 40.7697 20.9739 40.7697 20.1662 40.2682L13.5855 36.1823L6.75662 32.5262C5.91853 32.0775 5.40745 31.1923 5.43791 30.2421L5.68605 22.5L5.43791 14.758C5.40745 13.8078 5.91853 12.9226 6.75662 12.4739L13.5855 8.81778L20.1662 4.73186Z" fill="url(#paint0_linear_356_596)" style="mix-blend-mode:multiply" shape-rendering="crispEdges"/>
</g>
<path d="M17.4995 27.4999H17.9995V26.9996H17.4995V27.4999ZM17.4995 30.4997H16.9995C16.9995 30.5926 17.0254 30.6837 17.0742 30.7627C17.123 30.8418 17.1929 30.9056 17.2759 30.9472C17.359 30.9887 17.4519 31.0063 17.5444 30.998C17.6369 30.9896 17.7252 30.9557 17.7995 30.8999L17.4995 30.4997ZM21.4995 27.4999V26.9996H21.3325L21.1995 27.0997L21.4995 27.4999ZM18.4995 19.9994H17.9995V21H18.4995V19.9994ZM24.4995 21H24.9995V19.9994H24.4995V21ZM18.4995 22.9992H17.9995V23.9998H18.4995V22.9992ZM22.4995 23.9998H22.9995V22.9992H22.4995V23.9998ZM16.9995 27.4999V30.4997H17.9995V27.4999H16.9995ZM17.7995 30.8999L21.7995 27.9001L21.1995 27.0997L17.1995 30.0995L17.7995 30.8999ZM21.4995 28.0002H27.4995V26.9996H21.4995V28.0002ZM27.4995 28.0002C28.3285 28.0002 28.9995 27.3298 28.9995 26.4993H27.9995C27.9995 26.7765 27.7765 26.9996 27.4995 26.9996V28.0002ZM28.9995 26.4993V17.5009H27.9995V26.5003H28.9995V26.4993ZM28.9995 17.5009C28.9995 16.6704 28.3285 16 27.4995 16V17.0006C27.7765 17.0006 27.9995 17.2237 27.9995 17.5009H28.9995ZM27.4995 16H15.4995V17.0006H27.4995V16ZM15.4995 16C14.6705 16 13.9995 16.6704 13.9995 17.5009H14.9995C14.9995 17.2237 15.2225 17.0006 15.4995 17.0006V16ZM13.9995 17.5009V26.4993H14.9995V17.5009H13.9995ZM13.9995 26.4993C13.9995 27.3298 14.6705 28.0002 15.4995 28.0002V26.9996C15.4338 26.9997 15.3687 26.9869 15.308 26.9618C15.2473 26.9367 15.1921 26.8998 15.1457 26.8534C15.0992 26.8069 15.0624 26.7517 15.0373 26.6909C15.0122 26.6302 14.9994 26.565 14.9995 26.4993H13.9995ZM15.4995 28.0002H17.4995V26.9996H15.4995V28.0002ZM18.4995 21H24.4995V19.9994H18.4995V21ZM18.4995 23.9998H22.4995V22.9992H18.4995V23.9998Z" fill="white"/>
<defs>
<filter id="filter0_d_356_596" x="0.436523" y="1.85547" width="42.0967" height="46.2891" filterUnits="userSpaceOnUse" color-interpolation-filters="sRGB">
<feFlood flood-opacity="0" result="BackgroundImageFix"/>
<feColorMatrix in="SourceAlpha" type="matrix" values="0 0 0 0 0 0 0 0 0 0 0 0 0 0 0 0 0 0 127 0" result="hardAlpha"/>
<feOffset dy="2.5"/>
<feGaussianBlur stdDeviation="2.5"/>
<feComposite in2="hardAlpha" operator="out"/>
<feColorMatrix type="matrix" values="0 0 0 0 0 0 0 0 0 0 0 0 0 0 0 0 0 0 0.25 0"/>
<feBlend mode="normal" in2="BackgroundImageFix" result="effect1_dropShadow_356_596"/>
<feBlend mode="normal" in="SourceGraphic" in2="effect1_dropShadow_356_596" result="shape"/>
</filter>
<linearGradient id="paint0_linear_356_596" x1="36.9849" y1="13.0146" x2="5.98486" y2="31.5146" gradientUnits="userSpaceOnUse">
<stop offset="0.109375" stop-color="#2C8095"/>
<stop offset="1" stop-color="#F5BBCE"/>
</linearGradient>
</defs>
</svg>
