<svg width="69" height="63" viewBox="0 0 69 63" fill="none" xmlns="http://www.w3.org/2000/svg">
<path d="M0.819266 31.1967C0.317812 30.3891 0.317812 29.3669 0.819266 28.5593L9.10429 15.2155L16.5178 1.36855C16.9665 0.530457 17.8518 0.0193787 18.8019 0.0498314L34.5005 0.552982L50.1991 0.0498314C51.1492 0.0193787 52.0344 0.530457 52.4831 1.36855L59.8967 15.2155L68.1817 28.5593C68.6832 29.3669 68.6832 30.3891 68.1817 31.1967L59.8967 44.5405L52.4831 58.3874C52.0344 59.2255 51.1492 59.7366 50.1991 59.7061L34.5005 59.203L18.8019 59.7061C17.8518 59.7366 16.9665 59.2255 16.5178 58.3874L9.10429 44.5405L0.819266 31.1967Z" fill="#F5F8FF"/>
<g filter="url(#filter0_d_492_1105)">
<path d="M6.81927 31.1966C6.31781 30.3889 6.31781 29.3668 6.81927 28.5591L13.521 17.7653L19.5178 6.56456C19.9665 5.72647 20.8518 5.21539 21.8019 5.24585L34.5005 5.65285L47.1991 5.24585C48.1492 5.21539 49.0344 5.72647 49.4831 6.56456L55.48 17.7653L62.1817 28.5591C62.6832 29.3668 62.6832 30.3889 62.1817 31.1966L55.48 41.9903L49.4831 53.1911C49.0344 54.0292 48.1492 54.5403 47.1991 54.5098L34.5005 54.1028L21.8019 54.5098C20.8518 54.5403 19.9665 54.0292 19.5178 53.1911L13.521 41.9903L6.81927 31.1966Z" fill="url(#paint0_linear_492_1105)" style="mix-blend-mode:multiply" shape-rendering="crispEdges"/>
</g>
<path d="M44.5805 37.561C44.7136 37.6938 44.8192 37.8514 44.8913 38.0251C44.9634 38.1987 45.0005 38.3849 45.0005 38.5729C45.0005 38.7609 44.9634 38.9471 44.8913 39.1207C44.8192 39.2943 44.7136 39.452 44.5805 39.5847C44.311 39.8508 43.9476 40 43.5689 40C43.1903 40 42.8268 39.8508 42.5574 39.5847L35.0005 32.0256L27.4436 39.5847C27.1741 39.8508 26.8107 40 26.4321 40C26.0534 40 25.69 39.8508 25.4205 39.5847C25.2874 39.452 25.1817 39.2943 25.1097 39.1207C25.0376 38.9471 25.0005 38.7609 25.0005 38.5729C25.0005 38.3849 25.0376 38.1987 25.1097 38.0251C25.1817 37.8514 25.2874 37.6938 25.4205 37.561L32.9774 30.0019L25.4205 22.4428C25.1522 22.1745 25.0015 21.8105 25.0015 21.431C25.0015 21.2431 25.0385 21.057 25.1104 20.8834C25.1823 20.7097 25.2877 20.552 25.4205 20.4191C25.5534 20.2862 25.7111 20.1808 25.8846 20.1089C26.0582 20.037 26.2442 20 26.4321 20C26.8115 20 27.1753 20.1508 27.4436 20.4191L35.0005 27.9782L42.5574 20.4191C42.8256 20.1508 43.1895 20 43.5689 20C43.9483 20 44.3122 20.1508 44.5805 20.4191C44.8487 20.6875 44.9995 21.0515 44.9995 21.431C44.9995 21.8105 44.8487 22.1745 44.5805 22.4428L37.0236 30.0019L44.5805 37.561Z" fill="white"/>
<defs>
<filter id="filter0_d_492_1105" x="1.44336" y="2.74414" width="66.1143" height="59.2666" filterUnits="userSpaceOnUse" color-interpolation-filters="sRGB">
<feFlood flood-opacity="0" result="BackgroundImageFix"/>
<feColorMatrix in="SourceAlpha" type="matrix" values="0 0 0 0 0 0 0 0 0 0 0 0 0 0 0 0 0 0 127 0" result="hardAlpha"/>
<feOffset dy="2.5"/>
<feGaussianBlur stdDeviation="2.5"/>
<feComposite in2="hardAlpha" operator="out"/>
<feColorMatrix type="matrix" values="0 0 0 0 0 0 0 0 0 0 0 0 0 0 0 0 0 0 0.25 0"/>
<feBlend mode="normal" in2="BackgroundImageFix" result="effect1_dropShadow_492_1105"/>
<feBlend mode="normal" in="SourceGraphic" in2="effect1_dropShadow_492_1105" result="shape"/>
</filter>
<linearGradient id="paint0_linear_492_1105" x1="35.0005" y1="5.87793" x2="35.0005" y2="54.3779" gradientUnits="userSpaceOnUse">
<stop offset="0.109375" stop-color="#2C8095"/>
<stop offset="1" stop-color="#F5BBCE"/>
</linearGradient>
</defs>
</svg>
