<svg width="100" height="63" viewBox="0 0 100 63" fill="none" xmlns="http://www.w3.org/2000/svg">
<path fill-rule="evenodd" clip-rule="evenodd" d="M7.49966 57.9996C5.99351 57.9996 4.59105 57.5556 3.41602 56.7914L97.3836 9.80762C98.9852 11.1831 99.9997 13.2229 99.9997 15.4996V55.4996C99.9997 56.8803 98.8804 57.9996 97.4997 57.9996H7.49966Z" fill="#2C8095"/>
<path fill-rule="evenodd" clip-rule="evenodd" d="M92.5 8C93.9621 8 95.3265 8.41839 96.48 9.14197L2.52999 56.117C0.978221 54.7429 0 52.7357 0 50.5V10.5C0 9.11929 1.11929 8 2.5 8H92.5Z" fill="#959595"/>
<path d="M12.3925 34.5953C12.3249 34.4503 12.2863 34.3359 12.2766 34.2521C12.2734 34.1507 12.3323 34.0717 12.4531 34.0154C12.5619 33.9647 12.694 33.9325 12.8494 33.9188C13.017 33.8996 13.1813 33.8891 13.3424 33.8876C13.7484 33.8748 14.1012 33.8427 14.4009 33.7912C14.7126 33.7341 15.0739 33.6098 15.4848 33.4182C16.9832 32.7195 17.9408 31.8389 18.3575 30.7766C18.7864 29.7087 18.7331 28.6007 18.1978 27.4527C17.7189 26.4255 17.009 25.6605 16.0684 25.1576C15.1221 24.6426 14.0976 24.3701 12.9948 24.3399C11.9042 24.3042 10.88 24.4581 9.92214 24.8018L14.5307 31.9874C14.6265 32.1928 14.6752 32.376 14.6767 32.5371C14.6904 32.6926 14.6005 32.8154 14.4072 32.9056C14.3701 32.9523 14.1273 32.6683 13.6788 32.0536C13.2304 31.4388 12.5842 30.5264 11.7404 29.3163C10.7589 27.9056 10.0238 26.8655 9.53509 26.196C9.04072 25.5144 8.72588 25.1389 8.59057 25.0696C7.58759 25.5373 6.79123 25.9749 6.20149 26.3823C5.60611 26.7776 5.17024 27.1206 4.89386 27.4113C4.61749 27.702 4.50952 27.8333 4.56994 27.8051C4.49825 27.8091 4.43905 27.7926 4.39234 27.7555C4.34 27.7064 4.28243 27.6302 4.21963 27.5271C4.14475 27.4296 4.08999 27.3595 4.05537 27.3168C3.92013 27.0268 4.07288 26.676 4.51361 26.2646C4.95433 25.8531 5.44459 25.4847 5.98437 25.1595C6.53623 24.8286 6.90883 24.618 7.10218 24.5279C8.39518 23.9249 9.86652 23.5625 11.5162 23.4406C13.1603 23.3065 14.6963 23.5245 16.1243 24.0944C17.5522 24.6643 18.5902 25.6441 19.2383 27.0337C19.7229 28.073 19.8772 29.0823 19.7013 30.0617C19.5198 31.0291 19.0934 31.8973 18.4222 32.6663C17.7631 33.4297 16.9562 34.034 16.0016 34.4792C15.2282 34.8398 14.477 35.043 13.748 35.0887C13.019 35.1344 12.5672 34.9699 12.3925 34.5953ZM27.8968 28.6896C26.64 29.2756 25.445 29.5681 24.3117 29.567C23.1848 29.5481 22.3621 28.9828 21.8437 27.8711C21.6578 27.4723 21.5983 27.0292 21.6653 26.5419C21.7323 26.0546 21.9479 25.5863 22.3121 25.1369C22.6707 24.6755 23.1884 24.287 23.8651 23.9714C24.3847 23.7291 24.837 23.5476 25.2221 23.4269C25.6071 23.3062 26.086 23.2447 26.6587 23.2425C27.2315 23.2402 27.8815 23.3564 28.6087 23.591C28.0266 22.8474 27.3957 22.2515 26.716 21.8035C26.0362 21.3554 25.3758 21.0749 24.7347 20.962C24.1 20.8313 23.553 20.873 23.0939 21.0871C22.8763 21.1886 22.6906 21.3267 22.5367 21.5014C22.3893 21.6584 22.2164 21.8714 22.0182 22.1404C21.8063 22.4746 21.6278 22.6755 21.4828 22.7432C21.4224 22.7713 21.3595 22.7786 21.2943 22.7649C21.2355 22.7334 21.192 22.6875 21.1638 22.6271C20.9384 22.1437 20.9752 21.6705 21.2742 21.2074C21.5853 20.7387 22.0546 20.3728 22.6821 20.1095C23.5506 19.7634 24.493 19.7653 25.5094 20.1152C26.5202 20.453 27.456 21.0244 28.3169 21.8293C29.1898 22.6286 29.8488 23.5056 30.294 24.4603C30.3672 24.6174 30.4594 24.8465 30.5705 25.1478L29.9735 25.3821C29.0805 24.6657 28.1812 24.2832 27.2759 24.2346C26.377 24.1683 25.565 24.3042 24.8399 24.6423C23.9094 25.0762 23.3096 25.5251 23.0405 25.989C22.7713 26.4529 22.7607 26.9506 23.0086 27.4823C23.2678 28.0382 23.7542 28.3557 24.4679 28.4349C25.1815 28.514 25.9734 28.3507 26.8434 27.945C27.3268 27.7196 27.7022 27.5151 27.9697 27.3316C28.2315 27.1359 28.497 26.9165 28.7661 26.6733C28.9804 26.4704 29.1758 26.3057 29.3523 26.1793C29.5287 26.0529 29.768 25.9193 30.0701 25.7784C30.4084 25.6206 30.6312 25.5462 30.7383 25.5551C30.8575 25.5583 30.9566 25.6445 31.0355 25.8137C31.0918 25.9346 30.9145 26.2011 30.5036 26.6134C30.0927 27.0257 29.6129 27.448 29.0642 27.8804C28.5155 28.3128 28.1264 28.5826 27.8968 28.6896ZM41.9917 32.555C41.17 32.9382 40.3512 33.1067 39.5352 33.0605C38.7314 33.0087 38.029 32.8434 37.4282 32.5645C36.8274 32.2856 36.4352 32.0125 36.2516 31.745C36.0793 31.5017 36.0439 31.2681 36.1455 31.0442C36.2591 30.8146 36.4545 30.65 36.7316 30.5502C37.5232 31.2697 38.2915 31.75 39.0365 31.9911C39.7816 32.2321 40.6431 32.1394 41.6211 31.7127C42.3034 31.4093 42.6383 30.7235 42.6257 29.6554C42.6309 28.5937 42.4222 27.3891 41.9997 26.0413C41.5829 24.7057 41.0899 23.4276 40.5207 22.2072C40.2277 21.5788 39.9701 21.0737 39.7479 20.6918C39.3536 22.2439 38.4434 23.3524 37.0175 24.0173C35.7849 24.592 34.563 24.4483 33.3518 23.5861C32.1527 22.7182 31.1127 21.5922 30.2319 20.2081C30.1401 20.0744 30.0323 19.8746 29.9083 19.6087C29.5533 18.8474 29.6235 18.3513 30.119 18.1202C30.1673 18.0977 30.3746 18.3688 30.741 18.9336C31.319 19.8262 31.8823 20.6081 32.4306 21.2793C32.979 21.9504 33.6232 22.4959 34.3633 22.9158C35.1099 23.3179 35.8578 23.3443 36.607 22.995C37.1991 22.7189 37.7132 22.2438 38.1491 21.5697C38.5916 20.8779 38.839 20.2255 38.8916 19.6126C38.4633 18.6942 37.9593 17.9288 37.3795 17.3165C36.8062 16.6864 36.5022 16.35 36.4676 16.3073C36.3195 16.0527 36.2285 15.8892 36.1947 15.8167C36.082 15.575 36.0365 15.3829 36.0583 15.2403C36.0922 15.0921 36.1877 14.9814 36.3448 14.9081C36.514 14.8292 36.8679 15.0835 37.4066 15.6708C37.9453 16.2582 38.5585 17.0683 39.246 18.1012C39.9336 19.134 40.5894 20.2406 41.2133 21.4208C41.5305 22.0379 41.7595 22.4975 41.9004 22.7996C42.9823 25.1197 43.5882 27.1764 43.7182 28.9694C43.8602 30.7569 43.2847 31.9521 41.9917 32.555ZM42.1925 19.4194C42.2997 19.2076 42.4318 19.0651 42.5889 18.9918C42.734 18.9242 42.8926 18.9017 43.065 18.9243C43.2495 18.9413 43.4452 18.9824 43.6522 19.0477C43.8535 19.101 44.0106 19.1381 44.1234 19.159C44.5027 19.2469 44.9623 19.2386 45.502 19.1341C46.0417 19.0295 46.5834 18.8504 47.1272 18.5969C47.7435 18.3095 48.2398 17.9383 48.6161 17.4833C48.9989 17.0106 49.0973 16.5749 48.9113 16.1761C48.7423 15.8136 48.4769 15.5916 48.1153 15.5101C47.748 15.4166 47.3545 15.4088 46.9348 15.4868C46.5151 15.5648 45.9774 15.7052 45.3217 15.908C44.4428 16.2001 43.7218 16.3892 43.1588 16.4752C42.6078 16.5556 42.1112 16.5003 41.6691 16.3093C41.2213 16.1062 40.8565 15.7025 40.5747 15.0983C40.2705 14.4457 40.3532 13.8187 40.823 13.2171C41.2871 12.6035 41.918 12.1107 42.7155 11.7388C43.4406 11.4007 44.1301 11.2704 44.7842 11.3479C45.4446 11.4077 45.9134 11.7188 46.1903 12.2811C46.3666 12.5961 46.4394 12.8785 46.4087 13.1281C46.3724 13.3658 46.2697 13.524 46.1005 13.6029C46.0038 13.648 45.9023 13.6512 45.796 13.6125C45.7018 13.5681 45.6265 13.4856 45.5701 13.3647C45.48 13.1714 45.4478 12.9289 45.4737 12.6373C45.278 12.3755 44.9772 12.2509 44.5712 12.2637C44.1773 12.2708 43.7508 12.3815 43.2916 12.5956C42.6149 12.9112 42.1363 13.2888 41.8559 13.7285C41.5698 14.1561 41.5057 14.5391 41.6634 14.8775C41.8325 15.24 42.1071 15.4503 42.4873 15.5084C42.8674 15.5666 43.2827 15.5421 43.733 15.4351C44.1897 15.3104 44.8217 15.104 45.6289 14.8158C46.3088 14.6018 46.8763 14.4622 47.3314 14.3971C47.7987 14.3263 48.2529 14.4014 48.6943 14.6222C49.13 14.831 49.4972 15.2556 49.7958 15.896C50.1057 16.5607 50.0427 17.23 49.6067 17.9041C49.1651 18.5661 48.5153 19.0971 47.6574 19.4972C46.5577 20.0099 45.4855 20.2819 44.4408 20.313C43.4081 20.3385 42.6587 20.0406 42.1925 19.4194Z" fill="black"/>
<path d="M11.3212 35.2242C11.2536 35.0792 11.215 34.9648 11.2053 34.8811C11.2022 34.7796 11.261 34.7006 11.3818 34.6443C11.4906 34.5936 11.6227 34.5614 11.7782 34.5477C11.9457 34.5285 12.11 34.518 12.2711 34.5165C12.6771 34.5037 13.0299 34.4716 13.3296 34.4201C13.6413 34.363 14.0026 34.2387 14.4135 34.0471C15.9119 33.3484 16.8695 32.4678 17.2863 31.4055C17.7151 30.3376 17.6619 29.2296 17.1265 28.0816C16.6476 27.0544 15.9378 26.2894 14.9971 25.7865C14.0508 25.2715 13.0263 24.999 11.9236 24.9688C10.8329 24.9331 9.80869 25.087 8.85085 25.4307L13.4594 32.6163C13.5552 32.8217 13.6039 33.005 13.6054 33.1661C13.6191 33.3215 13.5292 33.4443 13.3359 33.5345C13.2988 33.5812 13.056 33.2972 12.6076 32.6825C12.1591 32.0677 11.5129 31.1553 10.6691 29.9452C9.68765 28.5345 8.95254 27.4944 8.4638 26.8249C7.96943 26.1433 7.65459 25.7678 7.51929 25.6985C6.5163 26.1662 5.71994 26.6038 5.1302 27.0112C4.53482 27.4065 4.09895 27.7495 3.82258 28.0402C3.5462 28.3309 3.43823 28.4622 3.49865 28.434C3.42696 28.438 3.36776 28.4215 3.32105 28.3844C3.26871 28.3353 3.21114 28.2591 3.14834 28.156C3.07346 28.0585 3.01871 27.9884 2.98408 27.9457C2.84884 27.6557 3.00159 27.305 3.44232 26.8935C3.88304 26.482 4.3733 26.1136 4.91308 25.7884C5.46494 25.4575 5.83754 25.2469 6.03089 25.1568C7.32389 24.5538 8.79523 24.1914 10.4449 24.0695C12.089 23.9354 13.625 24.1534 15.053 24.7233C16.481 25.2932 17.5189 26.273 18.167 27.6626C18.6516 28.7019 18.8059 29.7112 18.63 30.6906C18.4485 31.658 18.0222 32.5262 17.3509 33.2952C16.6918 34.0586 15.8849 34.6629 14.9303 35.1081C14.1569 35.4687 13.4057 35.6719 12.6767 35.7176C11.9478 35.7633 11.4959 35.5988 11.3212 35.2242ZM26.8255 29.3185C25.5688 29.9046 24.3737 30.197 23.2404 30.1959C22.1135 30.177 21.2909 29.6117 20.7724 28.5C20.5865 28.1012 20.527 27.6581 20.594 27.1708C20.661 26.6835 20.8766 26.2152 21.2408 25.7658C21.5994 25.3044 22.1171 24.9159 22.7938 24.6003C23.3134 24.358 23.7657 24.1765 24.1508 24.0558C24.5359 23.9351 25.0147 23.8736 25.5875 23.8714C26.1602 23.8691 26.8102 23.9853 27.5375 24.2199C26.9553 23.4763 26.3244 22.8804 25.6447 22.4324C24.965 21.9843 24.3045 21.7038 23.6634 21.5909C23.0287 21.4602 22.4818 21.5019 22.0226 21.716C21.805 21.8175 21.6193 21.9556 21.4654 22.1303C21.318 22.2873 21.1451 22.5003 20.9469 22.7693C20.735 23.1035 20.5565 23.3044 20.4115 23.3721C20.3511 23.4002 20.2882 23.4075 20.223 23.3938C20.1642 23.3623 20.1207 23.3164 20.0925 23.256C19.8671 22.7726 19.9039 22.2994 20.2029 21.8363C20.514 21.3676 20.9833 21.0017 21.6108 20.7384C22.4793 20.3923 23.4217 20.3942 24.4381 20.7441C25.4489 21.0819 26.3847 21.6533 27.2456 22.4582C28.1185 23.2575 28.7775 24.1345 29.2227 25.0892C29.296 25.2463 29.3881 25.4754 29.4992 25.7767L28.9022 26.011C28.0092 25.2946 27.1099 24.9121 26.2046 24.8635C25.3057 24.7972 24.4937 24.9331 23.7686 25.2712C22.8382 25.7051 22.2383 26.154 21.9692 26.6179C21.7 27.0818 21.6894 27.5796 21.9373 28.1113C22.1965 28.6671 22.6829 28.9846 23.3966 29.0638C24.1102 29.1429 24.9021 28.9796 25.7721 28.5739C26.2555 28.3485 26.6309 28.1441 26.8984 27.9605C27.1602 27.7648 27.4257 27.5454 27.6948 27.3022C27.9092 27.0993 28.1045 26.9346 28.281 26.8082C28.4574 26.6818 28.6967 26.5482 28.9988 26.4073C29.3371 26.2495 29.5599 26.1751 29.667 26.184C29.7862 26.1872 29.8853 26.2734 29.9642 26.4426C30.0205 26.5635 29.8432 26.83 29.4323 27.2423C29.0214 27.6546 28.5416 28.077 27.9929 28.5093C27.4442 28.9417 27.0551 29.2115 26.8255 29.3185ZM40.9205 33.1839C40.0987 33.5671 39.2799 33.7356 38.4639 33.6894C37.6601 33.6376 36.9577 33.4723 36.3569 33.1934C35.7561 32.9145 35.3639 32.6414 35.1803 32.3739C35.008 32.1306 34.9726 31.897 35.0742 31.6731C35.1878 31.4435 35.3832 31.2789 35.6603 31.1791C36.4519 31.8986 37.2202 32.3789 37.9653 32.62C38.7103 32.861 39.5718 32.7683 40.5498 32.3416C41.2321 32.0382 41.567 31.3524 41.5544 30.2843C41.5596 29.2227 41.3509 28.018 40.9284 26.6703C40.5116 25.3346 40.0186 24.0566 39.4494 22.8361C39.1564 22.2077 38.8988 21.7026 38.6766 21.3207C38.2823 22.8728 37.3721 23.9813 35.9462 24.6462C34.7136 25.2209 33.4917 25.0772 32.2805 24.215C31.0814 23.3471 30.0414 22.2211 29.1606 20.837C29.0688 20.7033 28.961 20.5035 28.837 20.2376C28.482 19.4763 28.5522 18.9802 29.0477 18.7491C29.096 18.7266 29.3033 18.9977 29.6697 19.5625C30.2478 20.4551 30.811 21.237 31.3593 21.9082C31.9077 22.5793 32.5519 23.1248 33.292 23.5447C34.0386 23.9469 34.7865 23.9733 35.5357 23.6239C36.1278 23.3478 36.6419 22.8727 37.0779 22.1986C37.5203 21.5068 37.7678 20.8544 37.8203 20.2415C37.392 19.3231 36.888 18.5577 36.3082 17.9454C35.7349 17.3153 35.4309 16.9789 35.3963 16.9362C35.2482 16.6816 35.1572 16.5181 35.1234 16.4456C35.0107 16.2039 34.9652 16.0118 34.987 15.8692C35.0209 15.721 35.1164 15.6103 35.2735 15.537C35.4427 15.4581 35.7966 15.7124 36.3353 16.2997C36.874 16.8871 37.4872 17.6972 38.1748 18.7301C38.8623 19.7629 39.5181 20.8695 40.142 22.0497C40.4592 22.6668 40.6882 23.1264 40.8291 23.4285C41.911 25.7487 42.5169 27.8053 42.6469 29.5983C42.7889 31.3858 42.2135 32.581 40.9205 33.1839ZM41.1212 20.0483C41.2284 19.8365 41.3606 19.694 41.5177 19.6207C41.6627 19.5531 41.8214 19.5306 41.9937 19.5532C42.1782 19.5702 42.3739 19.6113 42.5809 19.6766C42.7822 19.7299 42.9393 19.767 43.0521 19.7879C43.4314 19.8758 43.891 19.8675 44.4307 19.763C44.9704 19.6584 45.5121 19.4794 46.0559 19.2258C46.6722 18.9384 47.1685 18.5672 47.5448 18.1122C47.9276 17.6395 48.026 17.2038 47.84 16.805C47.671 16.4425 47.4056 16.2205 47.044 16.139C46.6767 16.0455 46.2832 16.0377 45.8635 16.1157C45.4438 16.1937 44.9061 16.3341 44.2504 16.5369C43.3715 16.829 42.6505 17.0181 42.0875 17.1041C41.5365 17.1845 41.0399 17.1292 40.5978 16.9382C40.15 16.7351 39.7852 16.3314 39.5034 15.7272C39.1992 15.0746 39.2819 14.4476 39.7517 13.846C40.2158 13.2324 40.8467 12.7396 41.6442 12.3677C42.3693 12.0296 43.0588 11.8993 43.7129 11.9768C44.3734 12.0366 44.8421 12.3477 45.119 12.91C45.2953 13.225 45.3681 13.5074 45.3374 13.7571C45.3011 13.9947 45.1984 14.1529 45.0292 14.2318C44.9325 14.2769 44.831 14.2801 44.7247 14.2414C44.6305 14.1971 44.5552 14.1145 44.4988 13.9936C44.4087 13.8003 44.3765 13.5578 44.4024 13.2662C44.2067 13.0044 43.9059 12.8799 43.4999 12.8926C43.1061 12.8998 42.6795 13.0104 42.2203 13.2245C41.5436 13.5401 41.065 13.9177 40.7846 14.3574C40.4985 14.7851 40.4344 15.168 40.5921 15.5064C40.7612 15.8689 41.0358 16.0792 41.416 16.1373C41.7962 16.1955 42.2114 16.171 42.6617 16.064C43.1185 15.9393 43.7504 15.7329 44.5576 15.4447C45.2375 15.2307 45.805 15.0911 46.2602 15.026C46.7274 14.9552 47.1816 15.0303 47.623 15.2511C48.0587 15.4599 48.4259 15.8845 48.7245 16.5249C49.0345 17.1896 48.9714 17.8589 48.5355 18.533C48.0938 19.195 47.4441 19.726 46.5861 20.1261C45.4864 20.6389 44.4142 20.9108 43.3695 20.9419C42.3368 20.9674 41.5874 20.6695 41.1212 20.0483Z" fill="white"/>
<path d="M53.3606 51.492C52.7027 50.6806 52.0964 49.8379 51.5417 48.9638C50.9813 48.0776 50.1513 46.5815 49.0516 44.4756C48.984 44.3306 48.9732 44.1812 49.0191 44.0274C49.0772 43.8679 49.1727 43.7572 49.3056 43.6952L49.4687 43.6191C49.7151 43.9897 50.056 44.6104 50.4916 45.4813C50.5366 45.578 50.7009 45.8986 50.9842 46.4432C51.262 46.9757 51.5619 47.4611 51.8839 47.8994C53.2237 47.1128 54.2147 46.3197 54.8569 45.5201C55.5112 44.7148 55.6609 43.9315 55.3059 43.1702C54.8607 42.2155 54.0743 41.6333 52.9467 41.4235C51.8191 41.2138 50.4033 41.5062 48.6995 42.3007C47.9865 42.6331 47.4443 43.0478 47.0728 43.5447C47.0051 43.6204 46.9813 43.7271 47.0014 43.8649C47.0159 43.9905 47.0589 44.1617 47.1305 44.3784C47.2078 44.6072 47.2537 44.7844 47.2681 44.9101C47.2826 45.0357 47.2415 45.1211 47.1448 45.1662C47.0361 45.2169 46.9269 45.1722 46.8174 45.032C46.7144 44.8741 46.5248 44.499 46.2487 43.9069C46.0909 43.5686 46.1965 43.1957 46.5656 42.7882C46.9346 42.3807 47.4816 42.0079 48.2067 41.6698C50.3214 40.6837 52.0473 40.2835 53.3844 40.4692C54.7214 40.6548 55.7112 41.4364 56.3535 42.814C56.6973 43.5512 56.6886 44.3055 56.3275 45.0771C55.9664 45.8486 55.4193 46.5525 54.6861 47.1886C53.9473 47.8126 53.1911 48.305 52.4178 48.6656C52.5096 48.7993 52.5957 48.921 52.6762 49.0306C52.7567 49.1401 52.8228 49.2344 52.8743 49.3134C53.4266 50.0562 53.8071 50.6512 54.0156 51.0983C54.1395 51.3641 54.2019 51.5925 54.2026 51.7834C54.2155 51.9687 54.1019 52.0878 53.8618 52.1409L53.3606 51.492ZM62.1193 48.2904C61.173 47.5547 60.2506 46.602 59.352 45.4321C58.4655 44.2566 57.7997 43.1916 57.3545 42.2369C57.1798 41.8623 57.1517 41.5812 57.2702 41.3935C57.3387 41.288 57.3971 41.224 57.4454 41.2015C57.53 41.162 57.6214 41.2003 57.7197 41.3164C57.83 41.4267 57.991 41.6459 58.2028 41.9738L58.5977 42.5841C58.4263 41.8695 58.4406 41.2376 58.6405 40.6883C58.8469 40.1213 59.228 39.7082 59.7839 39.449C60.4002 39.1616 60.9157 39.0683 61.3305 39.1692C61.7397 39.2579 62.0711 39.5741 62.3246 40.1179C61.5852 40.1096 60.9678 40.221 60.4723 40.4521C60.001 40.6718 59.6554 40.9875 59.4354 41.399C59.2153 41.8106 59.1544 42.295 59.2525 42.8525C59.3015 43.2415 59.3965 43.5871 59.5373 43.8892C59.6895 44.2155 59.8755 44.5039 60.0953 44.7545C60.3216 44.9874 60.6272 45.2641 61.0121 45.5848C61.3906 45.9233 61.6986 46.221 61.9361 46.478C62.1858 46.7294 62.3983 47.0275 62.5738 47.3723C62.6696 47.5777 62.6676 47.7626 62.5676 47.9269C62.4621 48.0791 62.3126 48.2003 62.1193 48.2904ZM67.3584 45.8694C67.0804 45.9991 66.6681 45.6985 66.1214 44.9677C65.569 44.2249 65.1307 43.5687 64.8062 42.9991C64.4818 42.4295 63.9786 41.524 63.2967 40.2825C63.1888 40.0827 63.0588 39.8197 62.9067 39.4934C62.7151 39.0826 62.6129 38.7845 62.6 38.5992C62.5993 38.4083 62.6775 38.2763 62.8346 38.203C62.9675 38.141 63.0843 38.1233 63.185 38.15C63.2921 38.1588 63.404 38.2096 63.5208 38.3023L63.8408 39.0358C64.2014 39.8092 64.5786 40.5234 64.9723 41.1783C65.378 41.8277 65.936 42.693 66.6461 43.7741C66.9795 44.2366 67.2403 44.6225 67.4287 44.9319C67.5318 45.0898 67.5805 45.273 67.5748 45.4817C67.5634 45.6782 67.4913 45.8075 67.3584 45.8694ZM62.2564 36.1114C61.9906 36.2353 61.7433 36.2256 61.5146 36.0822C61.2979 35.9331 61.1192 35.7075 60.9783 35.4054C60.9163 35.2725 60.8773 35.173 60.8612 35.1069C60.759 34.9192 60.8226 34.7718 61.0522 34.6647C61.2214 34.5859 61.4103 34.5493 61.6189 34.555C61.834 34.5429 61.9137 34.572 61.8581 34.642C62.1255 34.8999 62.3014 35.1194 62.3859 35.3007C62.4592 35.4578 62.4821 35.6016 62.4547 35.732C62.4216 35.8504 62.3555 35.9769 62.2564 36.1114ZM73.86 42.8377C72.4462 43.497 71.1972 43.6895 70.1131 43.4153C69.0354 43.1234 68.181 42.3008 67.5499 40.9473C67.2287 40.2586 67.0936 39.5271 67.1446 38.7531C67.202 37.9613 67.4334 37.2428 67.8387 36.5978C68.2505 35.9349 68.7948 35.4458 69.4715 35.1302C70.1603 34.809 70.8168 34.6868 71.4411 34.7635C72.0597 34.8281 72.4986 35.1384 72.7578 35.6942C72.9381 36.0809 72.9952 36.3927 72.9291 36.6295C72.8694 36.8485 72.755 36.9975 72.5858 37.0764C72.3153 36.4964 71.9385 36.0983 71.4552 35.8823C70.972 35.6663 70.4404 35.6935 69.8603 35.964C69.2803 36.2345 68.8521 36.6254 68.5756 37.1368C68.2935 37.6362 68.156 38.1931 68.1631 38.8077C68.1766 39.4046 68.3102 39.9749 68.5637 40.5187C69.0991 41.6667 69.8492 42.2658 70.8142 42.316C71.7912 42.3606 72.9202 42.0843 74.2011 41.487C74.6362 41.2841 75.1928 40.9951 75.8712 40.6199C75.8953 40.6087 75.961 40.6075 76.0681 40.6164C76.1752 40.6253 76.2558 40.6245 76.3098 40.614L76.3605 40.7228C76.5239 41.0732 76.3172 41.4344 75.7403 41.8064C75.1635 42.1784 74.5367 42.5221 73.86 42.8377ZM81.7244 39.1484C80.951 39.509 80.1676 39.6904 79.3742 39.6926C78.5808 39.6948 77.8611 39.5081 77.2152 39.1326C76.5693 38.757 76.0773 38.2067 75.7392 37.4817C75.3617 36.672 75.1606 35.8463 75.1358 35.0046C75.1055 34.1508 75.2817 33.3771 75.6645 32.6837C76.0538 31.9726 76.6412 31.4339 77.4266 31.0676C78.2484 30.6844 78.9947 30.6601 79.6655 30.9946C80.3308 31.317 80.8373 31.8826 81.185 32.6914C81.5175 33.4043 81.4871 34.0806 81.0938 34.72C80.7126 35.3538 80.087 35.8736 79.2169 36.2793C79.084 36.3413 78.879 36.4222 78.6019 36.522C78.1443 36.6765 77.8052 36.7537 77.5844 36.7536C77.3637 36.7536 77.1942 36.6267 77.0759 36.3729C77.0364 36.2883 77.0324 36.2166 77.0639 36.1578C77.0897 36.087 77.1751 36.0177 77.3201 35.9501C77.4772 35.8768 77.772 35.7835 78.2046 35.67C78.6251 35.5622 78.9864 35.4379 79.2885 35.297C80.4002 34.7786 80.7307 34.036 80.2799 33.0693C80.0094 32.4893 79.6866 32.0808 79.3113 31.8439C78.9481 31.6013 78.5006 31.604 77.9689 31.8519C77.3889 32.1224 76.9425 32.5218 76.6298 33.0501C76.3115 33.5663 76.141 34.1313 76.1182 34.7451C76.1076 35.3533 76.2319 35.9353 76.4911 36.4911C76.9362 37.4458 77.5683 38.1073 78.3874 38.4756C79.2009 38.8319 80.1635 38.7508 81.2752 38.2324C81.4081 38.1704 81.626 38.0541 81.929 37.8834C82.0562 37.8094 82.2025 37.697 82.3676 37.5465C82.5328 37.3959 82.6521 37.2888 82.7254 37.2252C83.1605 36.8016 83.4989 36.5335 83.7405 36.4208C83.9218 36.3363 84.0833 36.3198 84.2251 36.3714C84.1371 36.9715 83.8417 37.5211 83.3389 38.0204C82.8426 38.5019 82.3044 38.8779 81.7244 39.1484ZM84.6648 35.1733C84.772 34.9615 84.9041 34.819 85.0612 34.7457C85.2062 34.6781 85.3649 34.6556 85.5373 34.6782C85.7217 34.6952 85.9175 34.7363 86.1244 34.8016C86.3258 34.8548 86.4829 34.8919 86.5956 34.9129C86.975 35.0008 87.4345 34.9925 87.9742 34.8879C88.514 34.7834 89.0557 34.6043 89.5995 34.3507C90.2158 34.0634 90.7121 33.6922 91.0884 33.2372C91.4711 32.7645 91.5695 32.3287 91.3836 31.9299C91.2145 31.5674 90.9492 31.3454 90.5875 31.264C90.2203 31.1704 89.8268 31.1626 89.4071 31.2407C88.9874 31.3187 88.4497 31.4591 87.794 31.6619C86.9151 31.954 86.1941 32.1431 85.631 32.2291C85.08 32.3095 84.5835 32.2542 84.1413 32.0631C83.6935 31.86 83.3287 31.4564 83.047 30.8521C82.7427 30.1996 82.8255 29.5725 83.2952 28.971C83.7594 28.3573 84.3902 27.8646 85.1878 27.4926C85.9128 27.1546 86.6024 27.0243 87.2564 27.1018C87.9169 27.1616 88.3856 27.4726 88.6625 28.035C88.8389 28.35 88.9117 28.6323 88.881 28.882C88.8447 29.1196 88.7419 29.2779 88.5727 29.3568C88.4761 29.4018 88.3746 29.405 88.2683 29.3663C88.174 29.322 88.0987 29.2394 88.0424 29.1186C87.9522 28.9252 87.9201 28.6828 87.946 28.3912C87.7503 28.1293 87.4495 28.0048 87.0435 28.0176C86.6496 28.0247 86.2231 28.1353 85.7639 28.3495C85.0872 28.665 84.6086 29.0427 84.3281 29.4824C84.0421 29.91 83.9779 30.293 84.1357 30.6314C84.3047 30.9939 84.5794 31.2042 84.9595 31.2623C85.3397 31.3204 85.755 31.296 86.2053 31.189C86.662 31.0643 87.294 30.8578 88.1012 30.5697C88.7811 30.3556 89.3486 30.2161 89.8037 30.1509C90.2709 30.0802 90.7252 30.1552 91.1665 30.3761C91.6023 30.5848 91.9694 31.0094 92.2681 31.6499C92.578 32.3145 92.515 32.9839 92.079 33.6579C91.6374 34.3199 90.9876 34.851 90.1296 35.251C89.03 35.7638 87.9578 36.0358 86.9131 36.0669C85.8804 36.0923 85.131 35.7945 84.6648 35.1733Z" fill="black"/>
<path d="M54.3606 51.492C53.7027 50.6806 53.0964 49.8379 52.5417 48.9638C51.9813 48.0776 51.1513 46.5815 50.0516 44.4756C49.984 44.3306 49.9732 44.1812 50.0191 44.0274C50.0772 43.8679 50.1727 43.7572 50.3056 43.6952L50.4687 43.6191C50.7151 43.9897 51.056 44.6104 51.4916 45.4813C51.5366 45.578 51.7009 45.8986 51.9842 46.4432C52.262 46.9757 52.5619 47.4611 52.8839 47.8994C54.2237 47.1128 55.2147 46.3197 55.8569 45.5201C56.5112 44.7148 56.6609 43.9315 56.3059 43.1702C55.8607 42.2155 55.0743 41.6333 53.9467 41.4235C52.8191 41.2138 51.4033 41.5062 49.6995 42.3007C48.9865 42.6331 48.4443 43.0478 48.0728 43.5447C48.0051 43.6204 47.9813 43.7271 48.0014 43.8649C48.0159 43.9905 48.0589 44.1617 48.1305 44.3784C48.2078 44.6072 48.2537 44.7844 48.2681 44.9101C48.2826 45.0357 48.2415 45.1211 48.1448 45.1662C48.0361 45.2169 47.9269 45.1722 47.8174 45.032C47.7144 44.8741 47.5248 44.499 47.2487 43.9069C47.0909 43.5686 47.1965 43.1957 47.5656 42.7882C47.9346 42.3807 48.4816 42.0079 49.2067 41.6698C51.3214 40.6837 53.0473 40.2835 54.3844 40.4692C55.7214 40.6548 56.7112 41.4364 57.3535 42.814C57.6973 43.5512 57.6886 44.3055 57.3275 45.0771C56.9664 45.8486 56.4193 46.5525 55.6861 47.1886C54.9473 47.8126 54.1911 48.305 53.4178 48.6656C53.5096 48.7993 53.5957 48.921 53.6762 49.0306C53.7567 49.1401 53.8228 49.2344 53.8743 49.3134C54.4266 50.0562 54.8071 50.6512 55.0156 51.0983C55.1395 51.3641 55.2019 51.5925 55.2026 51.7834C55.2155 51.9687 55.1019 52.0878 54.8618 52.1409L54.3606 51.492ZM63.1193 48.2904C62.173 47.5547 61.2506 46.602 60.352 45.4321C59.4655 44.2566 58.7997 43.1916 58.3545 42.2369C58.1798 41.8623 58.1517 41.5812 58.2702 41.3935C58.3387 41.288 58.3971 41.224 58.4454 41.2015C58.53 41.162 58.6214 41.2003 58.7197 41.3164C58.83 41.4267 58.991 41.6459 59.2028 41.9738L59.5977 42.5841C59.4263 41.8695 59.4406 41.2376 59.6405 40.6883C59.8469 40.1213 60.228 39.7082 60.7839 39.449C61.4002 39.1616 61.9157 39.0683 62.3305 39.1692C62.7397 39.2579 63.0711 39.5741 63.3246 40.1179C62.5852 40.1096 61.9678 40.221 61.4723 40.4521C61.001 40.6718 60.6554 40.9875 60.4354 41.399C60.2153 41.8106 60.1544 42.295 60.2525 42.8525C60.3015 43.2415 60.3965 43.5871 60.5373 43.8892C60.6895 44.2155 60.8755 44.5039 61.0953 44.7545C61.3216 44.9874 61.6272 45.2641 62.0121 45.5848C62.3906 45.9233 62.6986 46.221 62.9361 46.478C63.1858 46.7294 63.3983 47.0275 63.5738 47.3723C63.6696 47.5777 63.6676 47.7626 63.5676 47.9269C63.4621 48.0791 63.3126 48.2003 63.1193 48.2904ZM68.3584 45.8694C68.0804 45.9991 67.6681 45.6985 67.1214 44.9677C66.569 44.2249 66.1307 43.5687 65.8062 42.9991C65.4818 42.4295 64.9786 41.524 64.2967 40.2825C64.1888 40.0827 64.0588 39.8197 63.9067 39.4934C63.7151 39.0826 63.6129 38.7845 63.6 38.5992C63.5993 38.4083 63.6775 38.2763 63.8346 38.203C63.9675 38.141 64.0843 38.1233 64.185 38.15C64.2921 38.1588 64.404 38.2096 64.5208 38.3023L64.8408 39.0358C65.2014 39.8092 65.5786 40.5234 65.9723 41.1783C66.378 41.8277 66.936 42.693 67.6461 43.7741C67.9795 44.2366 68.2403 44.6225 68.4287 44.9319C68.5318 45.0898 68.5805 45.273 68.5748 45.4817C68.5634 45.6782 68.4913 45.8075 68.3584 45.8694ZM63.2564 36.1114C62.9906 36.2353 62.7433 36.2256 62.5146 36.0822C62.2979 35.9331 62.1192 35.7075 61.9783 35.4054C61.9163 35.2725 61.8773 35.173 61.8612 35.1069C61.759 34.9192 61.8226 34.7718 62.0522 34.6647C62.2214 34.5859 62.4103 34.5493 62.6189 34.555C62.834 34.5429 62.9137 34.572 62.8581 34.642C63.1255 34.8999 63.3014 35.1194 63.3859 35.3007C63.4592 35.4578 63.4821 35.6016 63.4547 35.732C63.4216 35.8504 63.3555 35.9769 63.2564 36.1114ZM74.86 42.8377C73.4462 43.497 72.1972 43.6895 71.1131 43.4153C70.0354 43.1234 69.181 42.3008 68.5499 40.9473C68.2287 40.2586 68.0936 39.5271 68.1446 38.7531C68.202 37.9613 68.4334 37.2428 68.8387 36.5978C69.2505 35.9349 69.7948 35.4458 70.4715 35.1302C71.1603 34.809 71.8168 34.6868 72.4411 34.7635C73.0597 34.8281 73.4986 35.1384 73.7578 35.6942C73.9381 36.0809 73.9952 36.3927 73.9291 36.6295C73.8694 36.8485 73.755 36.9975 73.5858 37.0764C73.3153 36.4964 72.9385 36.0983 72.4552 35.8823C71.972 35.6663 71.4404 35.6935 70.8603 35.964C70.2803 36.2345 69.8521 36.6254 69.5756 37.1368C69.2935 37.6362 69.156 38.1931 69.1631 38.8077C69.1766 39.4046 69.3102 39.9749 69.5637 40.5187C70.0991 41.6667 70.8492 42.2658 71.8142 42.316C72.7912 42.3606 73.9202 42.0843 75.2011 41.487C75.6362 41.2841 76.1928 40.9951 76.8712 40.6199C76.8953 40.6087 76.961 40.6075 77.0681 40.6164C77.1752 40.6253 77.2558 40.6245 77.3098 40.614L77.3605 40.7228C77.5239 41.0732 77.3172 41.4344 76.7403 41.8064C76.1635 42.1784 75.5367 42.5221 74.86 42.8377ZM82.7244 39.1484C81.951 39.509 81.1676 39.6904 80.3742 39.6926C79.5808 39.6948 78.8611 39.5081 78.2152 39.1326C77.5693 38.757 77.0773 38.2067 76.7392 37.4817C76.3617 36.672 76.1606 35.8463 76.1358 35.0046C76.1055 34.1508 76.2817 33.3771 76.6645 32.6837C77.0538 31.9726 77.6412 31.4339 78.4266 31.0676C79.2484 30.6844 79.9947 30.6601 80.6655 30.9946C81.3308 31.317 81.8373 31.8826 82.185 32.6914C82.5175 33.4043 82.4871 34.0806 82.0938 34.72C81.7126 35.3538 81.087 35.8736 80.2169 36.2793C80.084 36.3413 79.879 36.4222 79.6019 36.522C79.1443 36.6765 78.8052 36.7537 78.5844 36.7536C78.3637 36.7536 78.1942 36.6267 78.0759 36.3729C78.0364 36.2883 78.0324 36.2166 78.0639 36.1578C78.0897 36.087 78.1751 36.0177 78.3201 35.9501C78.4772 35.8768 78.772 35.7835 79.2046 35.67C79.6251 35.5622 79.9864 35.4379 80.2885 35.297C81.4002 34.7786 81.7307 34.036 81.2799 33.0693C81.0094 32.4893 80.6866 32.0808 80.3113 31.8439C79.9481 31.6013 79.5006 31.604 78.9689 31.8519C78.3889 32.1224 77.9425 32.5218 77.6298 33.0501C77.3115 33.5663 77.141 34.1313 77.1182 34.7451C77.1076 35.3533 77.2319 35.9353 77.4911 36.4911C77.9362 37.4458 78.5683 38.1073 79.3874 38.4756C80.2009 38.8319 81.1635 38.7508 82.2752 38.2324C82.4081 38.1704 82.626 38.0541 82.929 37.8834C83.0562 37.8094 83.2025 37.697 83.3676 37.5465C83.5328 37.3959 83.6521 37.2888 83.7254 37.2252C84.1605 36.8016 84.4989 36.5335 84.7405 36.4208C84.9218 36.3363 85.0833 36.3198 85.2251 36.3714C85.1371 36.9715 84.8417 37.5211 84.3389 38.0204C83.8426 38.5019 83.3044 38.8779 82.7244 39.1484ZM85.6648 35.1733C85.772 34.9615 85.9041 34.819 86.0612 34.7457C86.2062 34.6781 86.3649 34.6556 86.5373 34.6782C86.7217 34.6952 86.9175 34.7363 87.1244 34.8016C87.3258 34.8548 87.4829 34.8919 87.5956 34.9129C87.975 35.0008 88.4345 34.9925 88.9742 34.8879C89.514 34.7834 90.0557 34.6043 90.5995 34.3507C91.2158 34.0634 91.7121 33.6922 92.0884 33.2372C92.4711 32.7645 92.5695 32.3287 92.3836 31.9299C92.2145 31.5674 91.9492 31.3454 91.5875 31.264C91.2203 31.1704 90.8268 31.1626 90.4071 31.2407C89.9874 31.3187 89.4497 31.4591 88.794 31.6619C87.9151 31.954 87.1941 32.1431 86.631 32.2291C86.08 32.3095 85.5835 32.2542 85.1413 32.0631C84.6935 31.86 84.3287 31.4564 84.047 30.8521C83.7427 30.1996 83.8255 29.5725 84.2952 28.971C84.7594 28.3573 85.3902 27.8646 86.1878 27.4926C86.9128 27.1546 87.6024 27.0243 88.2564 27.1018C88.9169 27.1616 89.3856 27.4726 89.6625 28.035C89.8389 28.35 89.9117 28.6323 89.881 28.882C89.8447 29.1196 89.7419 29.2779 89.5727 29.3568C89.4761 29.4018 89.3746 29.405 89.2683 29.3663C89.174 29.322 89.0987 29.2394 89.0424 29.1186C88.9522 28.9252 88.9201 28.6828 88.946 28.3912C88.7503 28.1293 88.4495 28.0048 88.0435 28.0176C87.6496 28.0247 87.2231 28.1353 86.7639 28.3495C86.0872 28.665 85.6086 29.0427 85.3281 29.4824C85.0421 29.91 84.9779 30.293 85.1357 30.6314C85.3047 30.9939 85.5794 31.2042 85.9595 31.2623C86.3397 31.3204 86.755 31.296 87.2053 31.189C87.662 31.0643 88.294 30.8578 89.1012 30.5697C89.7811 30.3556 90.3486 30.2161 90.8037 30.1509C91.2709 30.0802 91.7252 30.1552 92.1665 30.3761C92.6023 30.5848 92.9694 31.0094 93.2681 31.6499C93.578 32.3145 93.515 32.9839 93.079 33.6579C92.6374 34.3199 91.9876 34.851 91.1296 35.251C90.03 35.7638 88.9578 36.0358 87.9131 36.0669C86.8804 36.0923 86.131 35.7945 85.6648 35.1733Z" fill="white"/>
</svg>
