<svg width="40" height="40" viewBox="0 0 40 40" fill="none" xmlns="http://www.w3.org/2000/svg">
<path d="M3.63363 38.0774C3.47578 37.9566 3.43344 37.6829 3.63939 37.477L37.4797 3.63935C37.6857 3.43335 37.9594 3.47583 38.0802 3.63378C38.971 4.79884 39.5 6.25433 39.5 7.83481V32.5773C39.5 36.4006 36.4007 39.5 32.5776 39.5H7.83791C6.25595 39.5 4.79921 38.9699 3.63363 38.0774Z" fill="#45A5BA" stroke="black"/>
<path d="M36.3664 1.92256C36.5242 2.04343 36.5666 2.31707 36.3606 2.523L2.52031 36.3607C2.31429 36.5667 2.04063 36.5242 1.91985 36.3662C1.029 35.2012 0.5 33.7457 0.5 32.1652V7.42274C0.5 3.5994 3.59929 0.5 7.42242 0.5H32.1621C33.7441 0.5 35.2008 1.03007 36.3664 1.92256Z" fill="#45A5BA" stroke="black"/>
</svg>
