<svg width="69" height="63" viewBox="0 0 69 63" xmlns="http://www.w3.org/2000/svg">
<path d="M0.818778 31.1967C0.317324 30.3891 0.317323 29.3669 0.818777 28.5593L9.1038 15.2155L16.5173 1.36855C16.9661 0.530457 17.8513 0.0193787 18.8014 0.0498314L34.5 0.552982L50.1986 0.0498314C51.1487 0.0193787 52.0339 0.530457 52.4827 1.36855L59.8962 15.2155L68.1812 28.5593C68.6827 29.3669 68.6827 30.3891 68.1812 31.1967L59.8962 44.5405L52.4827 58.3874C52.0339 59.2255 51.1487 59.7366 50.1986 59.7061L34.5 59.203L18.8014 59.7061C17.8513 59.7366 16.9661 59.2255 16.5173 58.3874L9.1038 44.5405L0.818778 31.1967Z" fill="#F5F8FF"/>
<g filter="url(#filter0_d_525_1182)">
<path d="M6.81878 31.1966C6.31732 30.3889 6.31732 29.3668 6.81878 28.5591L13.5205 17.7653L19.5173 6.56456C19.9661 5.72647 20.8513 5.21539 21.8014 5.24585L34.5 5.65285L47.1986 5.24585C48.1487 5.21539 49.0339 5.72647 49.4827 6.56456L55.4795 17.7653L62.1812 28.5591C62.6827 29.3668 62.6827 30.3889 62.1812 31.1966L55.4795 41.9903L49.4827 53.1911C49.0339 54.0292 48.1487 54.5403 47.1986 54.5098L34.5 54.1028L21.8014 54.5098C20.8513 54.5403 19.9661 54.0292 19.5173 53.1911L13.5205 41.9903L6.81878 31.1966Z" fill="url(#paint0_linear_525_1182)" style="mix-blend-mode:multiply" shape-rendering="crispEdges"/>
</g>
<path fill-rule="evenodd" clip-rule="evenodd" d="M31.1293 27.3748L34.6508 26.4619C34.8882 26.4037 34.9673 26.2871 34.8882 26.1123C34.354 24.908 33.5627 23.898 32.435 23.1599C30.7138 22.0333 28.7948 21.8002 26.8165 22.1498C24.3633 22.5966 22.3651 23.8203 20.8616 25.7627C19.457 27.5497 18.7843 29.5892 19.0613 31.8618C19.2591 33.7847 20.1889 35.3387 21.7519 36.5041C23.4532 37.7472 25.392 38.1551 27.4693 37.8443C30.0016 37.553 31.9998 36.3293 33.5231 34.348C33.7501 34.0465 33.9321 33.7449 34.1176 33.4374C34.207 33.2893 34.2971 33.1399 34.3936 32.9884C34.7497 34.2315 35.4619 35.2804 36.4906 36.1545C37.9744 37.417 39.7352 37.9609 41.674 37.9997L43.3753 37.8443C45.3339 37.417 47.0551 36.5429 48.4597 35.1444C50.4381 33.1632 51.2888 30.8712 50.9129 28.0547C50.6557 26.054 49.6072 24.539 47.9454 23.4124C46.0857 22.1692 43.9886 21.9556 41.8718 22.3052C39.3593 22.7714 37.4798 23.8203 35.9367 25.8209C35.2641 26.695 34.7497 27.5885 34.4529 28.5597H27.6474C27.3308 28.5597 27.1726 28.7734 27.1132 28.8899L26.0251 31.1819C25.8866 31.5316 25.9855 31.8035 26.4208 31.8035H30.516L29.9423 32.561C28.9729 33.6293 27.7661 34.1344 26.3219 33.9596C24.6403 33.707 23.473 32.3279 23.4532 30.6575C23.4335 28.9482 24.205 27.6079 25.6294 26.6756C26.8362 25.9181 28.1617 25.7238 29.4675 26.3842C29.9225 26.5979 30.1401 26.8116 30.4566 27.1612C30.7226 27.4596 30.7514 27.4536 31.086 27.3838C31.0999 27.3809 31.1143 27.3779 31.1293 27.3748ZM46.6792 28.8705L46.7386 29.5697C46.6396 31.3567 45.7098 32.697 44.048 33.5322C42.9203 34.0761 41.7333 34.1538 40.5661 33.6488C39.0427 32.9884 38.2514 31.3373 38.6273 29.7057C39.0427 27.7439 40.3485 26.5202 42.3466 26.0929C44.3645 25.6461 46.3033 26.8116 46.6792 28.8705Z" fill="white"/>
<defs>
<filter id="filter0_d_525_1182" x="1.44287" y="2.74414" width="66.1143" height="59.2666" filterUnits="userSpaceOnUse" color-interpolation-filters="sRGB">
<feFlood flood-opacity="0" result="BackgroundImageFix"/>
<feColorMatrix in="SourceAlpha" type="matrix" values="0 0 0 0 0 0 0 0 0 0 0 0 0 0 0 0 0 0 127 0" result="hardAlpha"/>
<feOffset dy="2.5"/>
<feGaussianBlur stdDeviation="2.5"/>
<feComposite in2="hardAlpha" operator="out"/>
<feColorMatrix type="matrix" values="0 0 0 0 0 0 0 0 0 0 0 0 0 0 0 0 0 0 0.25 0"/>
<feBlend mode="normal" in2="BackgroundImageFix" result="effect1_dropShadow_525_1182"/>
<feBlend mode="normal" in="SourceGraphic" in2="effect1_dropShadow_525_1182" result="shape"/>
</filter>
<linearGradient id="paint0_linear_525_1182" x1="35" y1="5.87793" x2="35" y2="54.3779" gradientUnits="userSpaceOnUse">
<stop offset="0.109375" stop-color="#2C8095"/>
<stop offset="1" stop-color="#F5BBCE"/>
</linearGradient>
</defs>
</svg>
