<svg width="35" height="35" viewBox="0 0 35 35" fill="none" xmlns="http://www.w3.org/2000/svg">
<path d="M17.5 2.91667C25.5544 2.91667 32.0833 9.44563 32.0833 17.5C32.0833 25.5544 25.5544 32.0833 17.5 32.0833C9.44563 32.0833 2.91667 25.5544 2.91667 17.5C2.91667 9.44563 9.44563 2.91667 17.5 2.91667ZM17.4854 14.5833H16.0417C15.67 14.5837 15.3125 14.7261 15.0422 14.9812C14.7719 15.2364 14.6092 15.5851 14.5875 15.9562C14.5657 16.3273 14.6864 16.6926 14.925 16.9777C15.1635 17.2627 15.5019 17.4459 15.871 17.4898L16.0417 17.5V24.7771C16.0417 25.5354 16.6162 26.1625 17.3542 26.2412L17.5146 26.25H18.2292C18.5359 26.25 18.8348 26.1533 19.0834 25.9737C19.332 25.794 19.5176 25.5406 19.6138 25.2494C19.7101 24.9582 19.7121 24.644 19.6196 24.3516C19.527 24.0592 19.3446 23.8034 19.0983 23.6206L18.9583 23.5287V16.0562C18.9583 15.2979 18.3838 14.6708 17.6458 14.5921L17.4854 14.5833ZM17.5 10.2083C17.1132 10.2083 16.7423 10.362 16.4688 10.6355C16.1953 10.909 16.0417 11.2799 16.0417 11.6667C16.0417 12.0534 16.1953 12.4244 16.4688 12.6979C16.7423 12.9714 17.1132 13.125 17.5 13.125C17.8868 13.125 18.2577 12.9714 18.5312 12.6979C18.8047 12.4244 18.9583 12.0534 18.9583 11.6667C18.9583 11.2799 18.8047 10.909 18.5312 10.6355C18.2577 10.362 17.8868 10.2083 17.5 10.2083Z" fill="#F5F8FF"/>
</svg>
