<svg width="15" height="15" viewBox="0 0 15 15" fill="none" xmlns="http://www.w3.org/2000/svg">
<path opacity="0.2" d="M14.3952 11.2564C14.2787 12.1272 13.8499 12.926 13.1885 13.5043C12.5272 14.0826 11.6783 14.4011 10.7997 14.4004C8.09447 14.4004 5.50004 13.3258 3.58715 11.4129C1.67426 9.49998 0.59961 6.90555 0.59961 4.20031C0.598939 3.32176 0.917372 2.47286 1.49569 1.81149C2.07401 1.15012 2.87285 0.721299 3.74364 0.604776C3.87237 0.589484 4.00258 0.616292 4.1148 0.681189C4.22702 0.746085 4.3152 0.84558 4.36615 0.96478L5.95091 4.50481C5.98985 4.59574 6.00571 4.69488 5.99707 4.79341C5.98843 4.89194 5.95557 4.98681 5.90141 5.06957L4.29865 6.97534C4.24179 7.06113 4.20817 7.1602 4.20107 7.26287C4.19398 7.36554 4.21364 7.4683 4.25815 7.56109C4.8784 8.83086 6.19091 10.1276 7.46443 10.7419C7.55771 10.7862 7.66094 10.8054 7.76393 10.7976C7.86691 10.7899 7.96609 10.7554 8.05168 10.6976L9.9267 9.10011C10.0098 9.04482 10.1054 9.01113 10.2048 9.00209C10.3042 8.99305 10.4043 9.00896 10.496 9.04836L14.033 10.6331C14.1527 10.6837 14.2528 10.7719 14.3182 10.8843C14.3835 10.9967 14.4105 11.1273 14.3952 11.2564Z" fill="black"/>
<path d="M9.02034 1.04461C9.04071 0.968461 9.07588 0.897074 9.12385 0.834524C9.17182 0.771975 9.23164 0.71949 9.29989 0.680068C9.36815 0.640646 9.44351 0.615059 9.52166 0.60477C9.59981 0.594482 9.67922 0.599692 9.75535 0.620104C10.8677 0.910319 11.8825 1.4918 12.6954 2.30465C13.5082 3.1175 14.0897 4.13234 14.3799 5.24465C14.4003 5.32078 14.4055 5.4002 14.3952 5.47834C14.3849 5.55649 14.3594 5.63185 14.3199 5.70011C14.2805 5.76836 14.228 5.82819 14.1655 5.87615C14.1029 5.92412 14.0315 5.95929 13.9554 5.97966C13.9047 5.99297 13.8525 5.99977 13.8001 5.99991C13.6679 5.9999 13.5394 5.95623 13.4346 5.87566C13.3297 5.7951 13.2544 5.68216 13.2204 5.5544C12.9837 4.64638 12.5091 3.81792 11.8456 3.1544C11.1821 2.49087 10.3536 2.01631 9.4456 1.77962C9.36938 1.75933 9.29792 1.72422 9.23528 1.67628C9.17265 1.62835 9.12008 1.56854 9.08059 1.50028C9.04109 1.43201 9.01544 1.35663 9.0051 1.27844C8.99477 1.20025 8.99995 1.12079 9.02034 1.04461ZM8.84559 4.17964C9.87985 4.45564 10.5444 5.12015 10.8204 6.15441C10.8544 6.28217 10.9297 6.39511 11.0345 6.47567C11.1394 6.55623 11.2679 6.59991 11.4001 6.59991C11.4525 6.59978 11.5047 6.59297 11.5554 6.57966C11.6315 6.5593 11.7029 6.52412 11.7655 6.47616C11.828 6.42819 11.8805 6.36837 11.9199 6.30011C11.9593 6.23186 11.9849 6.1565 11.9952 6.07835C12.0055 6.0002 12.0003 5.92079 11.9799 5.84466C11.5959 4.40764 10.5924 3.40413 9.15535 3.02013C9.07921 2.99979 8.99982 2.99464 8.92169 3.00499C8.84357 3.01533 8.76825 3.04097 8.70003 3.08042C8.63182 3.11987 8.57204 3.17238 8.52411 3.23493C8.47619 3.29749 8.44105 3.36887 8.42071 3.44501C8.40037 3.52114 8.39523 3.60054 8.40558 3.67866C8.41592 3.75678 8.44155 3.8321 8.48101 3.90032C8.52046 3.96853 8.57296 4.02831 8.63552 4.07624C8.69808 4.12416 8.76946 4.1593 8.84559 4.17964ZM14.9912 11.331C14.8574 12.3472 14.3583 13.2801 13.5871 13.9553C12.8158 14.6305 11.8252 15.0018 10.8001 15C4.84505 15 6.78655e-06 10.1549 6.78655e-06 4.19989C-0.00183072 3.17485 0.369526 2.18419 1.04472 1.41293C1.71991 0.641681 2.65276 0.14258 3.66904 0.00884832C3.92603 -0.0225313 4.18628 0.0300449 4.41094 0.158729C4.6356 0.287412 4.81261 0.485301 4.91555 0.722855L6.49957 4.25914V4.26814C6.57839 4.44998 6.61094 4.64851 6.59432 4.846C6.57769 5.04349 6.51242 5.23379 6.40432 5.3999C6.39082 5.42015 6.37657 5.4389 6.36157 5.45765L4.80005 7.30867C5.36181 8.45018 6.55582 9.63369 7.71233 10.1969L9.53785 8.64368C9.55578 8.62861 9.57456 8.61459 9.5941 8.60168C9.76007 8.49098 9.95102 8.42341 10.1497 8.40508C10.3483 8.38674 10.5484 8.41823 10.7319 8.49668L10.7416 8.50118L14.2749 10.0844C14.5129 10.187 14.7112 10.3639 14.8403 10.5886C14.9695 10.8133 15.0224 11.0737 14.9912 11.331ZM13.8001 11.181H13.7919L10.2669 9.60219L8.44059 11.1555C8.42287 11.1705 8.40434 11.1845 8.38509 11.1975C8.2124 11.3127 8.01279 11.3811 7.80574 11.3961C7.59869 11.4111 7.3913 11.3721 7.20383 11.283C5.79906 10.6042 4.3988 9.21444 3.71929 7.82467C3.62931 7.63856 3.58894 7.43237 3.60208 7.22606C3.61522 7.01976 3.68143 6.82035 3.79429 6.64716C3.80702 6.62683 3.82131 6.60752 3.83704 6.58941L5.40006 4.73614L3.82504 1.21111C3.82475 1.20812 3.82475 1.2051 3.82504 1.20211C3.09773 1.29698 2.42994 1.65374 1.94673 2.20556C1.46353 2.75737 1.19805 3.46641 1.20002 4.19989C1.2028 6.74514 2.21513 9.18534 4.01489 10.9851C5.81465 12.7849 8.25486 13.7972 10.8001 13.8C11.5331 13.8025 12.242 13.5379 12.7941 13.0558C13.3463 12.5736 13.7039 11.9069 13.8001 11.1802V11.181Z" fill="black"/>
</svg>
