<svg width="30" height="30" viewBox="0 0 30 30" fill="none" xmlns="http://www.w3.org/2000/svg">
<path d="M15 22.3889L21.2793 16.1101C21.5107 15.8813 21.7139 15.6265 21.8838 15.3511C21.999 15.1653 22.0996 14.9702 22.1846 14.7676C22.3955 14.2644 22.5029 13.7246 22.5029 13.1794C22.5029 12.6343 22.3945 12.0945 22.1846 11.5916C22.1016 11.3926 22.0029 11.2007 21.8896 11.0178C21.7168 10.7388 21.5117 10.4807 21.2773 10.2495C21.0938 10.0637 20.8936 9.89624 20.6797 9.74902C20.4463 9.58911 20.1973 9.45312 19.9355 9.34375C19.4326 9.13354 18.8926 9.02539 18.3477 9.02539C17.8027 9.02539 17.2637 9.13354 16.7607 9.34375C16.4756 9.46289 16.2061 9.61304 15.9561 9.7915C15.7646 9.92822 15.585 10.0813 15.4189 10.2495L15 10.668L14.5801 10.2495C14.1973 9.86182 13.7412 9.55396 13.2383 9.34375C12.7354 9.13354 12.1953 9.02539 11.6504 9.02539C11.1055 9.02539 10.5654 9.13354 10.0635 9.34375C9.56055 9.55396 9.10352 9.86182 8.7207 10.2495C8.33301 10.6326 8.02539 11.0889 7.81445 11.5918C7.60449 12.0947 7.49609 12.6345 7.49609 13.1797C7.49609 13.4431 7.52148 13.7056 7.57129 13.9631C7.625 14.2383 7.70605 14.5078 7.81445 14.7678C7.93945 15.0662 8.09863 15.3481 8.28906 15.6082C8.41895 15.7864 8.56348 15.9543 8.7207 16.1101L15 22.3889Z" fill="#CE1126"/>
<path d="M14.9116 22.4774L15 22.5658L15.0884 22.4774L21.3668 16.1989C21.3669 16.1988 21.367 16.1987 21.3672 16.1986C21.7667 15.8039 22.0839 15.3339 22.3003 14.8157C22.5168 14.2973 22.6282 13.7411 22.6281 13.1794C22.628 12.6177 22.5163 12.0615 22.2995 11.5433C22.0828 11.0253 21.7655 10.5555 21.3659 10.1611C20.9714 9.76182 20.5016 9.4448 19.9837 9.2284C19.4655 9.0119 18.9096 8.90041 18.348 8.90041C17.7864 8.90041 17.2305 9.0119 16.7123 9.2284C16.1943 9.44487 15.7244 9.762 15.3298 10.1614C15.3297 10.1615 15.3296 10.1616 15.3296 10.1617L14.9998 10.4914L14.6689 10.1617C14.6688 10.1616 14.6687 10.1615 14.6687 10.1614C14.2741 9.76198 13.8042 9.44486 13.2862 9.2284C12.768 9.0119 12.2121 8.90041 11.6505 8.90041C11.0889 8.90041 10.533 9.0119 10.0148 9.2284C9.4969 9.44482 9.02707 9.76187 8.63255 10.1612C8.23308 10.5557 7.91588 11.0256 7.69936 11.5436C7.48271 12.0619 7.37115 12.618 7.37115 13.1798C7.37115 13.7415 7.48271 14.2976 7.69936 14.8159C7.91595 15.3341 8.23326 15.8041 8.63288 16.1987C8.63299 16.1988 8.63308 16.1989 8.63318 16.199L14.9116 22.4774ZM0.125 15C0.125 6.79804 6.79804 0.125 15 0.125C23.202 0.125 29.875 6.79804 29.875 15C29.875 23.202 23.202 29.875 15 29.875C6.79804 29.875 0.125 23.202 0.125 15Z" fill="white" stroke="black" stroke-width="0.25"/>
</svg>
