<svg width="30" height="30" viewBox="0 0 30 30" fill="none" xmlns="http://www.w3.org/2000/svg">
<path d="M3.58405 23.2479L10.1795 3.5899L29.8413 10.1841L23.2459 29.8421L3.58405 23.2479Z" fill="#64B5F6" stroke="black" stroke-width="0.25"/>
<path d="M6.93299 20.5496L11.5034 6.5316L26.95 11.5658L22.3796 25.5839L6.93299 20.5496Z" fill="#1E88E5" stroke="black" stroke-width="0.25"/>
<path d="M1.50495 21.8623L5.25893 1.47857L25.6466 5.23184L21.8926 25.6156L1.50495 21.8623Z" fill="#90CAF9" stroke="black" stroke-width="0.25"/>
<path d="M4.43205 18.7443L7.01211 4.22501L23.011 7.06691L20.431 21.5862L4.43205 18.7443Z" fill="#42A5F5" stroke="black" stroke-width="0.25"/>
<path d="M0.125 0.125H20.8654V20.8614H0.125V0.125Z" fill="#BBDEFB" stroke="black" stroke-width="0.25"/>
<path d="M2.37402 2.37305H18.6165V17.1133H2.37402V2.37305Z" fill="#4CAF50" stroke="black" stroke-width="0.25"/>
<path d="M10.4954 9.51961C10.4596 9.46582 10.4158 9.39933 10.366 9.32263C10.2262 9.10712 10.0399 8.81151 9.85389 8.49062C9.66759 8.16932 9.48272 7.8248 9.34479 7.51108C9.20459 7.19217 9.12109 6.92279 9.12109 6.74512C9.12109 5.98971 9.7398 5.37109 10.4954 5.37109C11.251 5.37109 11.8697 5.98971 11.8697 6.74512C11.8697 6.92279 11.7862 7.19217 11.646 7.51108C11.5081 7.8248 11.3232 8.16932 11.1369 8.49062C10.9509 8.81151 10.7646 9.10712 10.6248 9.32263C10.5751 9.39933 10.5312 9.46582 10.4954 9.51961ZM10.366 10.1637C10.4158 10.087 10.4596 10.0205 10.4954 9.96673C10.5312 10.0205 10.5751 10.087 10.6248 10.1637C10.7646 10.3792 10.9509 10.6748 11.1369 10.9957C11.3232 11.317 11.5081 11.6615 11.646 11.9753C11.7862 12.2942 11.8697 12.5635 11.8697 12.7412C11.8697 13.4966 11.251 14.1152 10.4954 14.1152C9.7398 14.1152 9.12109 13.4966 9.12109 12.7412C9.12109 12.5635 9.20459 12.2942 9.34479 11.9753C9.48272 11.6615 9.66759 11.317 9.85389 10.9957C10.0399 10.6748 10.2262 10.3792 10.366 10.1637Z" fill="white" stroke="black" stroke-width="0.25"/>
<path d="M6.70099 7.56498L6.70111 7.56506L6.70418 7.55995C7.121 6.86538 7.94232 6.66879 8.55174 7.07499L8.55166 7.0751L8.55676 7.07817C8.72184 7.17719 8.92047 7.38947 9.13017 7.66902C9.3371 7.94487 9.54529 8.27307 9.73152 8.5896C9.91753 8.90575 10.0805 9.20826 10.1969 9.43185C10.2374 9.50948 10.2722 9.57753 10.3004 9.63326C10.2363 9.63758 10.1573 9.64252 10.0667 9.64746C9.81052 9.66143 9.4615 9.67538 9.0896 9.67538C8.71722 9.67538 8.32447 9.66139 7.98001 9.62006C7.63044 9.57812 7.34905 9.5099 7.18606 9.41213C6.49134 8.99537 6.29474 8.17424 6.70099 7.56498ZM10.7941 10.0682C10.7522 9.98572 10.7164 9.91366 10.6877 9.85524C10.7522 9.85088 10.832 9.84588 10.9237 9.84088C11.1799 9.82691 11.5289 9.81296 11.9008 9.81296C12.2732 9.81296 12.6659 9.82695 13.0104 9.86828C13.36 9.91022 13.6414 9.97844 13.8044 10.0762C14.4991 10.493 14.6957 11.3141 14.2894 11.9234L14.2893 11.9233L14.2862 11.9284C13.8694 12.623 13.0481 12.8196 12.4387 12.4134L12.4322 12.409L12.4252 12.4056C12.2659 12.3259 12.0699 12.1269 11.8598 11.8503C11.6534 11.5786 11.4455 11.2486 11.2593 10.9275C11.0734 10.6069 10.9105 10.2976 10.7941 10.0682Z" fill="white" stroke="black" stroke-width="0.25"/>
<path d="M14.2862 7.55995L14.2861 7.56003L14.2894 7.56498C14.6957 8.17424 14.4991 8.99537 13.8044 9.41213C13.6414 9.5099 13.36 9.57812 13.0104 9.62006C12.6659 9.66139 12.2732 9.67538 11.9008 9.67538C11.5289 9.67538 11.1799 9.66143 10.9237 9.64746C10.832 9.64246 10.7522 9.63746 10.6877 9.6331C10.7164 9.57468 10.7522 9.50262 10.7941 9.42015C10.9105 9.19078 11.0734 8.88143 11.2593 8.56081C11.4455 8.23972 11.6534 7.90973 11.8598 7.638C12.0699 7.36147 12.2659 7.16246 12.4252 7.08278L12.4322 7.0793L12.4387 7.07499C13.0481 6.66879 13.8694 6.86538 14.2862 7.55995ZM10.0667 9.84088C10.1573 9.84582 10.2363 9.85076 10.3004 9.85508C10.2722 9.91081 10.2374 9.97886 10.1969 10.0565C10.0805 10.2801 9.91753 10.5826 9.73152 10.8987C9.54529 11.2153 9.3371 11.5435 9.13017 11.8193C8.92047 12.0989 8.72184 12.3111 8.55676 12.4102L8.55669 12.4101L8.55174 12.4134C7.94232 12.8196 7.121 12.623 6.70418 11.9284L6.7043 11.9283L6.70099 11.9234C6.29474 11.3141 6.49134 10.493 7.18606 10.0762C7.34905 9.97844 7.63044 9.91022 7.98001 9.86828C8.32447 9.82695 8.71722 9.81296 9.0896 9.81296C9.4615 9.81296 9.81052 9.82691 10.0667 9.84088Z" fill="white" stroke="black" stroke-width="0.25"/>
<path d="M11.8697 9.74317C11.8697 10.502 11.2544 11.1172 10.4954 11.1172C9.73637 11.1172 9.12109 10.502 9.12109 9.74317C9.12109 8.98434 9.73637 8.36914 10.4954 8.36914C11.2544 8.36914 11.8697 8.98434 11.8697 9.74317Z" fill="#FFC107" stroke="black" stroke-width="0.25"/>
</svg>
