<svg width="25" height="25" viewBox="0 0 25 25" fill="none" xmlns="http://www.w3.org/2000/svg">
<path fill-rule="evenodd" clip-rule="evenodd" d="M9.77987 15.9936V23.499C9.77987 24.3247 9.16805 25 8.42098 25H4.34479C3.59772 25 2.98639 24.3247 2.98639 23.499V12.9917H0.67632C0.0513176 12.9917 -0.23384 12.1362 0.228076 11.6855L11.5865 0.382724C11.8629 0.109773 12.2169 -0.0171801 12.5655 0.00186291C12.8687 0.0184645 13.1676 0.145418 13.4073 0.382724L24.7662 11.6855C25.2413 12.1362 24.9425 12.9917 24.3175 12.9917H22.0079V23.499C22.0079 24.3247 21.3966 25 20.649 25H16.5733C15.8258 25 15.2145 24.3247 15.2145 23.499V15.9936H9.77987ZM8.12508 12.5747L16.8751 12.5771V21.2456C16.8751 21.729 16.9542 22.1689 17.0817 22.4873C17.1476 22.6518 17.2267 22.7837 17.3141 22.8726C17.3946 22.9546 17.483 23 17.5753 23H19.6749C20.0597 23 20.3751 22.2104 20.3751 21.2456V12.5678C20.5021 12.5454 20.6031 12.4668 20.6686 12.3627C20.7882 12.1713 20.7858 11.8925 20.5958 11.7124L13.0987 4.25237C12.7584 3.91594 12.2379 3.91594 11.8971 4.25237L4.40045 11.7124C4.22907 11.8798 4.21393 12.1318 4.3067 12.3198C4.34479 12.3969 4.40045 12.4633 4.47126 12.5087C4.51667 12.538 4.56842 12.5585 4.62506 12.5683V21.6621C4.62506 22.1684 4.70417 22.6294 4.83161 22.9629C4.95856 23.2944 5.13337 23.5 5.32526 23.5H7.42488C7.80965 23.5 8.12508 22.6728 8.12508 21.6621V12.5747Z" fill="#707070"/>
</svg>
