<svg width="17" height="15" viewBox="0 0 17 15" fill="none" xmlns="http://www.w3.org/2000/svg">
<path opacity="0.2" d="M15.6247 1.24999V11.2498C15.6247 11.4156 15.5589 11.5745 15.4417 11.6917C15.3245 11.809 15.1655 11.8748 14.9997 11.8748H10.3537C10.2458 11.8748 10.1398 11.9027 10.0459 11.9558C9.95194 12.0089 9.87337 12.0854 9.81781 12.1779L8.6608 14.0716C8.60527 14.1642 8.52672 14.2408 8.4328 14.294C8.33888 14.3471 8.2328 14.3751 8.12487 14.3751C8.01694 14.3751 7.91085 14.3471 7.81693 14.294C7.72301 14.2408 7.64447 14.1642 7.58894 14.0716L6.43193 12.1779C6.37636 12.0854 6.2978 12.0089 6.20388 11.9558C6.10997 11.9027 6.0039 11.8748 5.896 11.8748H1.24999C1.08423 11.8748 0.925263 11.809 0.808055 11.6917C0.690847 11.5745 0.625 11.4156 0.625 11.2498V1.24999C0.625 1.08423 0.690847 0.925263 0.808055 0.808055C0.925263 0.690847 1.08423 0.625 1.24999 0.625H14.9997C15.1655 0.625 15.3245 0.690847 15.4417 0.808055C15.5589 0.925263 15.6247 1.08423 15.6247 1.24999Z" fill="black"/>
<path d="M7.18737 6.24989C7.18737 6.06447 7.24236 5.88322 7.34537 5.72905C7.44838 5.57488 7.59479 5.45472 7.7661 5.38377C7.9374 5.31281 8.1259 5.29425 8.30775 5.33042C8.4896 5.36659 8.65665 5.45588 8.78776 5.58699C8.91887 5.7181 9.00815 5.88514 9.04433 6.067C9.0805 6.24885 9.06193 6.43735 8.99098 6.60865C8.92002 6.77995 8.79986 6.92637 8.64569 7.02938C8.49153 7.13239 8.31027 7.18737 8.12486 7.18737C7.87622 7.18737 7.63777 7.0886 7.46196 6.91279C7.28614 6.73698 7.18737 6.49853 7.18737 6.24989ZM11.5623 7.18737C11.7477 7.18737 11.929 7.13239 12.0831 7.02938C12.2373 6.92637 12.3575 6.77995 12.4284 6.60865C12.4994 6.43735 12.5179 6.24885 12.4818 6.067C12.4456 5.88514 12.3563 5.7181 12.2252 5.58699C12.0941 5.45588 11.927 5.36659 11.7452 5.33042C11.5633 5.29425 11.3748 5.31281 11.2035 5.38377C11.0322 5.45472 10.8858 5.57488 10.7828 5.72905C10.6798 5.88322 10.6248 6.06447 10.6248 6.24989C10.6248 6.49853 10.7236 6.73698 10.8994 6.91279C11.0752 7.0886 11.3137 7.18737 11.5623 7.18737ZM16.2497 1.24998V11.2498C16.2497 11.5813 16.118 11.8993 15.8836 12.1337C15.6492 12.3681 15.3313 12.4998 14.9997 12.4998H10.3537L9.19437 14.3974C9.08277 14.5817 8.92543 14.7341 8.7376 14.8396C8.54977 14.9452 8.33783 15.0005 8.12236 15C7.90689 14.9995 7.6952 14.9434 7.50783 14.837C7.32047 14.7306 7.16379 14.5775 7.053 14.3927L5.89599 12.4998H1.24998C0.918463 12.4998 0.600526 12.3681 0.36611 12.1337C0.131694 11.8993 0 11.5813 0 11.2498V1.24998C0 0.918463 0.131694 0.600526 0.36611 0.36611C0.600526 0.131694 0.918463 0 1.24998 0H14.9997C15.3313 0 15.6492 0.131694 15.8836 0.36611C16.118 0.600526 16.2497 0.918463 16.2497 1.24998ZM14.9997 1.24998H1.24998V11.2498H5.89599C6.11118 11.2504 6.32261 11.3062 6.51002 11.4119C6.69743 11.5177 6.85454 11.6698 6.96628 11.8537L8.12486 13.7498L9.28265 11.8498C9.39488 11.6665 9.5523 11.515 9.73984 11.4099C9.92739 11.3049 10.1388 11.2497 10.3537 11.2498H14.9997V1.24998ZM4.68742 7.18737C4.87283 7.18737 5.05409 7.13239 5.20825 7.02938C5.36242 6.92637 5.48258 6.77995 5.55354 6.60865C5.6245 6.43735 5.64306 6.24885 5.60689 6.067C5.57071 5.88514 5.48143 5.7181 5.35032 5.58699C5.21921 5.45588 5.05217 5.36659 4.87031 5.33042C4.68846 5.29425 4.49996 5.31281 4.32866 5.38377C4.15736 5.45472 4.01094 5.57488 3.90793 5.72905C3.80492 5.88322 3.74993 6.06447 3.74993 6.24989C3.74993 6.49853 3.8487 6.73698 4.02452 6.91279C4.20033 7.0886 4.43878 7.18737 4.68742 7.18737Z" fill="black"/>
</svg>
