<svg width="21" height="21" viewBox="0 0 21 21" fill="none" xmlns="http://www.w3.org/2000/svg">
<path d="M14.2731 11.8334C14.4306 11.4071 14.5105 10.9553 14.5089 10.5001C14.5089 9.48931 14.1125 8.51993 13.4068 7.80521C12.7011 7.09049 11.744 6.68896 10.746 6.68896C10.3021 6.68949 9.86186 6.77039 9.44604 6.92785L10.3292 7.85008C10.4634 7.82832 10.5991 7.81718 10.7351 7.81674C11.4407 7.81525 12.1183 8.0966 12.6198 8.59935C13.1213 9.1021 13.4061 9.78541 13.4119 10.5001C13.4114 10.6378 13.4004 10.7752 13.379 10.9112L14.2731 11.8334Z" fill="#ABABAB"/>
<path d="M19.2648 10.2389C17.4163 6.77779 14.1745 4.68335 10.5872 4.68335C9.61043 4.68567 8.64026 4.84506 7.71289 5.15557L8.59601 6.05557C9.24648 5.88531 9.91532 5.7976 10.5872 5.79446C13.6753 5.79446 16.4838 7.5389 18.1568 10.4778C17.5431 11.5681 16.7295 12.5298 15.7597 13.3111L16.5386 14.1C17.6609 13.183 18.593 12.0501 19.2812 10.7667L19.4239 10.5L19.2648 10.2389Z" fill="#ABABAB"/>
<path d="M3.12705 3.71108L5.57347 6.18886C4.02714 7.19725 2.76333 8.59206 1.90385 10.2389L1.76123 10.5L1.90385 10.7666C3.75237 14.2277 6.99414 16.3222 10.5815 16.3222C11.9817 16.3219 13.3637 16.0009 14.6241 15.3833L17.3667 18.1611L18.3266 17.3277L4.06503 2.8833L3.12705 3.71108ZM8.47515 9.12774L12.1228 12.8222C11.7107 13.0806 11.2362 13.219 10.7515 13.2222C10.3993 13.2222 10.0506 13.1517 9.72544 13.0147C9.40027 12.8777 9.10505 12.6769 8.85678 12.4239C8.60851 12.1709 8.41209 11.8706 8.27882 11.5405C8.14554 11.2103 8.07805 10.8567 8.08022 10.5C8.0864 10.0147 8.22293 9.54035 8.47515 9.12774ZM7.6798 8.32219C7.16662 9.05519 6.92608 9.94846 7.00079 10.8438C7.07549 11.7392 7.46061 12.579 8.08796 13.2144C8.7153 13.8497 9.5444 14.2398 10.4285 14.3155C11.3125 14.3911 12.1945 14.1475 12.9182 13.6277L13.7958 14.5166C12.7798 14.9565 11.6864 15.1833 10.5815 15.1833C7.4933 15.1833 4.68486 13.4389 3.01186 10.5C3.81474 9.06009 4.97104 7.85452 6.36882 6.99997L7.6798 8.32219Z" fill="#ABABAB"/>
</svg>
