<svg width="35" height="35" viewBox="0 0 35 35" fill="none" xmlns="http://www.w3.org/2000/svg">
<path d="M35 17.5C35 27.165 27.165 35 17.5 35C7.83502 35 0 27.165 0 17.5C0 7.83502 7.83502 0 17.5 0C27.165 0 35 7.83502 35 17.5Z" fill="white"/>
<path d="M25.9436 27.5094L19.6825 21.2482C19.1234 21.6955 18.4806 22.0495 17.7538 22.3104C17.0271 22.5713 16.2538 22.7017 15.4339 22.7017C13.4027 22.7017 11.6839 21.9985 10.2774 20.5919C8.87013 19.1847 8.1665 17.4655 8.1665 15.4344C8.1665 13.4032 8.87013 11.684 10.2774 10.2768C11.6839 8.87025 13.4027 8.16699 15.4339 8.16699C17.465 8.16699 19.1842 8.87025 20.5915 10.2768C21.998 11.684 22.7012 13.4032 22.7012 15.4344C22.7012 16.2543 22.5708 17.0276 22.3099 17.7543C22.049 18.4811 21.695 19.1239 21.2478 19.683L27.5368 25.972C27.7418 26.177 27.8443 26.4286 27.8443 26.7267C27.8443 27.0249 27.7325 27.2857 27.5089 27.5094C27.3039 27.7143 27.043 27.8168 26.7262 27.8168C26.4094 27.8168 26.1486 27.7143 25.9436 27.5094ZM15.4339 20.4656C16.8314 20.4656 18.0196 19.9766 18.9982 18.9987C19.9762 18.02 20.4651 16.8319 20.4651 15.4344C20.4651 14.0368 19.9762 12.8487 18.9982 11.87C18.0196 10.8921 16.8314 10.4031 15.4339 10.4031C14.0363 10.4031 12.8482 10.8921 11.8695 11.87C10.8916 12.8487 10.4026 14.0368 10.4026 15.4344C10.4026 16.8319 10.8916 18.02 11.8695 18.9987C12.8482 19.9766 14.0363 20.4656 15.4339 20.4656Z" fill="#5699AA"/>
</svg>
